<?xml version="1.0" encoding="utf-8"?>
<!-- Generator: Adobe Illustrator 24.0.3, SVG Export Plug-In . SVG Version: 6.00 Build 0)  -->
<svg version="1.1" id="Layer_1" xmlns="http://www.w3.org/2000/svg" xmlns:xlink="http://www.w3.org/1999/xlink" x="0px" y="0px"
	 viewBox="0 0 132 41" style="enable-background:new 0 0 132 41;" xml:space="preserve">
<style type="text/css">
	.st0{fill:#262262;}
	.st1{fill:#5EAEE0;}
	.st2{fill:#282560;}
</style>
<title>Logo</title>
<desc>Created with Sketch.</desc>
<g id="Symbols">
	<g id="Header" transform="translate(-70.000000, -14.000000)">
		<g id="Group-6">
			<g id="Logo" transform="translate(70.916800, 14.500000)">
				<path id="RESEARCHERWORKBENCH" class="st0" d="M1.8,40v-1.9h0.8L3.8,40h2l-1.5-2.2c0.8-0.3,1.3-1,1.3-2v0c0-0.6-0.2-1.1-0.6-1.5
					C4.7,33.9,4,33.6,3,33.6H0V40H1.8z M2.9,36.7H1.8v-1.5h1.2c0.6,0,1,0.3,1,0.8v0C3.9,36.4,3.5,36.7,2.9,36.7z M11.7,40v-1.5H8.3
					v-1h3.1v-1.4H8.3v-1h3.4v-1.5H6.5V40H11.7z M15.1,40.1c1.5,0,2.6-0.8,2.6-2.1v0c0-1.2-0.9-1.7-2.4-2c-0.9-0.2-1.1-0.3-1.1-0.6v0
					c0-0.2,0.2-0.4,0.6-0.4c0.6,0,1.2,0.2,1.8,0.6l0.9-1.2c-0.7-0.6-1.5-0.8-2.6-0.8c-1.5,0-2.5,0.9-2.5,2v0c0,1.3,1,1.7,2.4,2
					c0.9,0.2,1.1,0.3,1.1,0.6v0c0,0.3-0.3,0.4-0.7,0.4c-0.7,0-1.4-0.3-2.1-0.8l-1,1.2C12.9,39.8,14,40.1,15.1,40.1z M23.7,40v-1.5
					h-3.4v-1h3.1v-1.4h-3.1v-1h3.4v-1.5h-5.1V40H23.7z M26,40l0.5-1.1h2.5l0.5,1.1h1.9l-2.7-6.4h-1.7L24.1,40H26z M28.4,37.5h-1.4
					l0.7-1.8L28.4,37.5z M33.6,40v-1.9h0.8l1.3,1.9h2l-1.5-2.2c0.8-0.3,1.3-1,1.3-2v0c0-0.6-0.2-1.1-0.6-1.5
					c-0.4-0.4-1.1-0.7-2.1-0.7h-3V40H33.6z M34.8,36.7h-1.2v-1.5h1.2c0.6,0,1,0.3,1,0.8v0C35.7,36.4,35.4,36.7,34.8,36.7z
					 M41.5,40.1c1.4,0,2.2-0.6,2.8-1.4L43,37.7c-0.4,0.5-0.8,0.8-1.4,0.8c-0.9,0-1.5-0.7-1.5-1.7v0c0-0.9,0.6-1.7,1.5-1.7
					c0.6,0,1,0.3,1.4,0.7l1.3-1c-0.6-0.8-1.4-1.3-2.7-1.3c-1.9,0-3.4,1.5-3.4,3.3v0C38.2,38.7,39.6,40.1,41.5,40.1z M46.8,40v-2.4
					h2.3V40h1.8v-6.4h-1.8V36h-2.3v-2.4H45V40H46.8z M57.1,40v-1.5h-3.4v-1h3.1v-1.4h-3.1v-1h3.4v-1.5H52V40H57.1z M59.8,40v-1.9
					h0.8l1.3,1.9h2l-1.5-2.2c0.8-0.3,1.3-1,1.3-2v0c0-0.6-0.2-1.1-0.6-1.5c-0.4-0.4-1.1-0.7-2.1-0.7h-3V40H59.8z M61,36.7h-1.2v-1.5
					H61c0.6,0,1,0.3,1,0.8v0C61.9,36.4,61.6,36.7,61,36.7z M70.3,40l1.3-3.7l1.3,3.7h1.5l2.1-6.4h-1.8l-1.1,3.7l-1.2-3.7h-1.5
					l-1.2,3.7l-1.1-3.7h-1.9l2.1,6.4H70.3z M80.5,40.1c2,0,3.4-1.5,3.4-3.3v0c0-1.8-1.5-3.3-3.4-3.3S77,35,77,36.8v0
					C77,38.7,78.5,40.1,80.5,40.1z M80.5,38.5c-1,0-1.6-0.8-1.6-1.7v0c0-0.9,0.6-1.7,1.6-1.7c1,0,1.6,0.8,1.6,1.7v0
					C82.1,37.8,81.5,38.5,80.5,38.5z M86.6,40v-1.9h0.8l1.3,1.9h2l-1.5-2.2c0.8-0.3,1.3-1,1.3-2v0c0-0.6-0.2-1.1-0.6-1.5
					c-0.4-0.4-1.1-0.7-2.1-0.7h-3V40H86.6z M87.8,36.7h-1.2v-1.5h1.2c0.6,0,1,0.3,1,0.8v0C88.7,36.4,88.4,36.7,87.8,36.7z M93.1,40
					v-1.6l0.6-0.7l1.6,2.4h2.1L95,36.4l2.4-2.7h-2.1l-2.2,2.6v-2.6h-1.8V40H93.1z M101.3,40c1.5,0,2.4-0.7,2.4-1.8v0
					c0-0.9-0.5-1.3-1.3-1.6c0.6-0.2,1-0.7,1-1.4v0c0-0.4-0.2-0.8-0.4-1c-0.4-0.4-0.9-0.6-1.7-0.6H98V40H101.3z M100.8,36.2h-1.1V35
					h1.1c0.5,0,0.8,0.2,0.8,0.5v0C101.7,36,101.4,36.2,100.8,36.2z M101.1,38.6h-1.4v-1.2h1.3c0.6,0,0.9,0.2,0.9,0.6v0
					C101.9,38.4,101.6,38.6,101.1,38.6z M109.7,40v-1.5h-3.4v-1h3.1v-1.4h-3.1v-1h3.4v-1.5h-5.1V40H109.7z M112.3,40v-3.5l2.7,3.5
					h1.5v-6.4h-1.7V37l-2.6-3.4h-1.6V40H112.3z M120.8,40.1c1.4,0,2.2-0.6,2.8-1.4l-1.3-0.9c-0.4,0.5-0.8,0.8-1.4,0.8
					c-0.9,0-1.5-0.7-1.5-1.7v0c0-0.9,0.6-1.7,1.5-1.7c0.6,0,1,0.3,1.4,0.7l1.3-1c-0.6-0.8-1.4-1.3-2.7-1.3c-1.9,0-3.4,1.5-3.4,3.3v0
					C117.5,38.7,119,40.1,120.8,40.1z M126.1,40v-2.4h2.3V40h1.8v-6.4h-1.8V36h-2.3v-2.4h-1.8V40H126.1z"/>
				<g id="All_Of_Us_Logo" transform="translate(0.083200, 0.000000)">
					<g id="Group">
						<g>
							<g transform="translate(56.662325, 6.222222)">
								<path id="Shape" class="st1" d="M0.2,12.2c0-0.8,0.2-1.7,0.7-2.6c0.5-0.9,1.2-1.7,2.2-2.3s2.2-0.9,3.6-0.9
									c1.7,0,3,0.4,3.8,1.2c0.8,0.8,1.2,1.8,1.2,3c0,1.6-0.6,3-1.9,4.2s-2.8,1.8-4.8,1.8c-1.4,0-2.6-0.3-3.5-1.1
									C0.7,14.7,0.2,13.7,0.2,12.2 M3.6,13.3c0,0.7,0.1,1.2,0.4,1.5c0.2,0.3,0.7,0.5,1.2,0.5c1,0,1.7-0.7,2.3-2.1
									c0.6-1.4,0.9-2.6,0.9-3.6c0-0.7-0.2-1.3-0.4-1.6c-0.3-0.3-0.6-0.5-1-0.5c-1,0-1.8,0.7-2.4,2.2C3.9,11.2,3.6,12.4,3.6,13.3"
									/>
								<path id="Path" class="st1" d="M17.9,8l-1.2,5.2c-0.7,3-1.6,5.2-2.7,6.7c-1.1,1.5-2.6,2.2-4.5,2.2c-0.9,0-1.6-0.2-2-0.5
									c-0.4-0.3-0.6-0.8-0.6-1.2c0-0.4,0.2-0.8,0.5-1.1c0.3-0.3,0.7-0.5,1.1-0.5c0.9,0,1.4,0.5,1.6,1.4c0.1,0.5,0.3,0.7,0.6,0.7
									c0.4,0,0.7-0.3,1-1c0.3-0.7,0.7-1.9,1.1-3.9l0.3-1.7c0.1-0.4,0.2-0.7,0.2-0.9L14.5,8H13l0.4-1.3h1.4
									c0.7-2.6,1.6-4.4,2.5-5.2c1-0.8,2.1-1.3,3.5-1.3c0.9,0,1.6,0.2,2.2,0.5s0.8,0.8,0.8,1.4c0,0.4-0.1,0.7-0.4,1
									c-0.3,0.3-0.6,0.4-1,0.4c-0.6,0-1.1-0.4-1.6-1.3c-0.3-0.6-0.7-1-1-1c-0.4,0-0.7,0.5-0.9,1.5l-0.7,3.9H20L19.6,8L17.9,8
									L17.9,8z"/>
							</g>
							<g>
								<path id="Shape_1_" class="st2" d="M11.5,1h9L32,28.4h-9.9l-1.4-3.7h-9.6l-1.4,3.7H0L11.5,1z M18.4,18.3l-2.5-6.6l-2.5,6.6
									H18.4z"/>
								<rect id="Rectangle" x="33.2" y="0" class="st2" width="8.8" height="28.4"/>
								<rect id="Rectangle_1_" x="46" y="0" class="st2" width="8.8" height="28.4"/>
							</g>
							<g id="Path_1_" transform="translate(81.880173, 0.933333)">
								<path class="st2" d="M0.2,15.3v-15h9.3v14.9c0,3.4,1.7,4.8,4.2,4.8s4.2-1.3,4.2-4.6V0.3h9.3v14.8c0,9.3-5.4,12.9-13.5,12.9
									C5.4,28.1,0.2,24.3,0.2,15.3"/>
								<path class="st2" d="M28.3,24.9l3-5c2.6,1.6,5.4,2.4,7.9,2.4c0.9,0,1.3-0.2,1.3-0.7v-0.1c0-0.4-0.4-0.7-2.5-1.2
									c-5.4-1.3-8.7-2.8-8.7-7.2V13c0-4.7,3.7-7.3,9.3-7.3c3.5,0,7,0.9,9.5,2.5l-2.8,5.3c-2.3-1.2-5-2-6.8-2
									c-0.9,0-1.2,0.2-1.2,0.7v0.1c0,0.4,0.5,0.7,2.6,1.2c5.4,1.3,8.6,2.8,8.6,7.2v0.1c0,4.6-3.5,7.3-9.2,7.3
									C35,28,31.3,26.9,28.3,24.9"/>
							</g>
						</g>
					</g>
				</g>
			</g>
		</g>
	</g>
</g>
</svg>
