<?xml version="1.0" encoding="utf-8"?>
<!-- Generator: Adobe Illustrator 22.1.0, SVG Export Plug-In . SVG Version: 6.00 Build 0)  -->
<svg version="1.1" id="Layer_1" xmlns="http://www.w3.org/2000/svg" xmlns:xlink="http://www.w3.org/1999/xlink" x="0px" y="0px"
	 viewBox="0 0 614.9 153.9" style="enable-background:new 0 0 614.9 153.9;" xml:space="preserve">
<style type="text/css">
	.st0{fill:#5EAEE0;}
	.st1{fill:#282560;}
	.st2{fill:#909294;}
</style>
<g>
	<g>
		<g>
			<g>
				<g>
					<path class="st0" d="M191.8,69.2c0-2.6,0.8-5.4,2.3-8.3c1.5-3,3.9-5.4,7.1-7.4c3.2-2,7.1-3,11.6-3c5.5,0,9.6,1.3,12.2,4
						c2.6,2.6,3.9,5.8,3.9,9.6c0,5.2-2,9.6-6,13.4c-4,3.8-9.1,5.7-15.3,5.7c-4.5,0-8.3-1.1-11.3-3.4
						C193.3,77.4,191.8,73.9,191.8,69.2 M202.6,72.9c0,2.2,0.4,3.8,1.2,4.9c0.8,1.1,2.1,1.6,3.7,1.6c3.1,0,5.5-2.3,7.5-6.9
						c1.9-4.6,2.9-8.5,2.9-11.7c0-2.4-0.5-4.2-1.4-5.2c-0.9-1.1-2-1.6-3.2-1.6c-3.3,0-5.9,2.4-7.8,7.2
						C203.6,66.1,202.6,70,202.6,72.9"/>
					<path class="st0" d="M248.5,55.8l-3.7,16.6c-2.1,9.6-5,16.7-8.6,21.4c-3.6,4.7-8.4,7.1-14.5,7.1c-2.9,0-5-0.6-6.4-1.7
						c-1.3-1.1-2-2.5-2-4c0-1.4,0.5-2.6,1.6-3.6c1-1,2.3-1.5,3.6-1.5c2.9,0,4.5,1.5,5,4.6c0.2,1.6,0.9,2.3,2,2.3
						c1.2,0,2.2-1,3.2-3.1c0.9-2.1,2.1-6.2,3.5-12.5l1.1-5.4c0.3-1.3,0.6-2.3,0.7-3l3.7-17.2h-4.8l1.3-4.1h4.4
						c2.3-8.4,5-14,8.1-16.8c3.1-2.7,6.8-4.1,11.1-4.1c2.9,0,5.2,0.6,7,1.7c1.8,1.1,2.7,2.6,2.7,4.4c0,1.2-0.4,2.3-1.3,3.2
						c-0.9,0.9-2,1.4-3.3,1.4c-1.9,0-3.6-1.4-5-4.1c-1-2-2.1-3.1-3.1-3.1c-1.2,0-2.2,1.6-2.8,4.9l-2.4,12.4h5.5l-1.3,4.1H248.5z"/>
				</g>
				<g>
					<path class="st1" d="M45.9,13.2h29l36.9,88.2H80.1l-4.6-11.8H44.8l-4.5,11.8H9L45.9,13.2z M68.2,68.9l-8-21.3l-8,21.3H68.2z"/>
					<rect x="115.6" y="10.1" class="st1" width="28.4" height="91.3"/>
					<rect x="156.7" y="10.1" class="st1" width="28.4" height="91.3"/>
				</g>
				<g>
					<path class="st1" d="M272.7,62.1V13.9h29.8v47.9c0,10.9,5.6,15.5,13.5,15.5c7.9,0,13.5-4.3,13.5-14.9V13.9h29.8v47.6
						c0,29.9-17.4,41.6-43.5,41.6C289.5,103.2,272.7,91.1,272.7,62.1"/>
					<path class="st1" d="M362.8,93.1l9.6-16.1c8.3,5.1,17.5,7.6,25.3,7.6c2.8,0,4.1-0.6,4.1-2.3v-0.2c0-1.4-1.2-2.3-8.1-4
						c-17.3-4.3-27.9-8.9-27.9-23v-0.3c0-15,12-23.4,29.8-23.4c11.3,0,22.4,2.9,30.6,7.9l-9,16.9c-7.3-4-16-6.4-21.8-6.4
						c-2.8,0-4,0.8-4,2.1v0.3c0,1.4,1.5,2.3,8.4,4c17.3,4.3,27.6,9,27.6,23v0.3c0,14.9-11.1,23.5-29.6,23.5
						C384.5,103,372.5,99.6,362.8,93.1"/>
				</g>
			</g>
			<rect x="451.8" y="10.8" class="st2" width="1.5" height="133.3"/>
			<g>
				<path class="st2" d="M481.4,32.7H479V13.4h-7.2v-2.2h16.9v2.2h-7.2V32.7z"/>
				<path class="st2" d="M494.7,32.7h-2.4V10.3h2.4v9.3c1-1.7,2.7-3.1,5.4-3.1c3.8,0,6.1,2.6,6.1,6.4v9.9h-2.4v-9.3
					c0-3-1.6-4.8-4.4-4.8c-2.7,0-4.8,2-4.8,5V32.7z"/>
				<path class="st2" d="M518.3,31c2.2,0,3.7-0.9,5-2.2l1.5,1.3c-1.6,1.8-3.5,3-6.6,3c-4.4,0-7.9-3.4-7.9-8.3c0-4.6,3.2-8.3,7.6-8.3
					c4.7,0,7.4,3.8,7.4,8.4c0,0.2,0,0.5,0,0.7h-12.6C513.1,29.1,515.5,31,518.3,31z M523,23.9c-0.2-2.9-1.9-5.4-5.1-5.4
					c-2.8,0-4.9,2.3-5.2,5.4H523z"/>
				<path class="st2" d="M480.9,62.1h-5.2v7.6h-2.4V48.1h8.1c4.9,0,8.1,2.6,8.1,6.9C489.4,59.7,485.5,62.1,480.9,62.1z M481.1,50.4
					h-5.4v9.5h5.3c3.6,0,5.9-1.9,5.9-4.8C486.9,52,484.6,50.4,481.1,50.4z"/>
				<path class="st2" d="M495.8,69.7h-2.4V53.8h2.4v4.2c1.2-2.6,3.5-4.6,6.5-4.4V56h-0.2c-3.5,0-6.3,2.5-6.3,7.3V69.7z"/>
				<path class="st2" d="M512.2,68c2.2,0,3.7-0.9,5-2.2l1.5,1.3c-1.6,1.8-3.5,3-6.6,3c-4.4,0-7.9-3.4-7.9-8.3c0-4.6,3.2-8.3,7.6-8.3
					c4.7,0,7.4,3.8,7.4,8.4c0,0.2,0,0.5,0,0.7h-12.6C507,66,509.4,68,512.2,68z M516.9,60.8c-0.2-2.9-1.9-5.4-5.1-5.4
					c-2.8,0-4.9,2.3-5.2,5.4H516.9z"/>
				<path class="st2" d="M530.6,70c-4.6,0-8.2-3.8-8.2-8.3c0-4.5,3.5-8.3,8.2-8.3c3,0,4.9,1.3,6.4,2.8l-1.6,1.7
					c-1.3-1.3-2.7-2.4-4.8-2.4c-3.2,0-5.7,2.7-5.7,6.2c0,3.5,2.5,6.2,5.8,6.2c2,0,3.6-1,4.9-2.4l1.5,1.4
					C535.5,68.8,533.6,70,530.6,70z"/>
				<path class="st2" d="M541.1,50.3v-2.6h2.7v2.6H541.1z M541.2,69.7V53.8h2.4v15.9H541.2z"/>
				<path class="st2" d="M554.4,70c-2.3,0-4.8-0.9-6.6-2.3L549,66c1.7,1.3,3.6,2,5.5,2c1.9,0,3.3-1,3.3-2.5v-0.1
					c0-1.6-1.9-2.2-4-2.8c-2.5-0.7-5.3-1.6-5.3-4.5V58c0-2.7,2.3-4.6,5.4-4.6c1.9,0,4.1,0.7,5.7,1.8l-1.1,1.8
					c-1.5-1-3.2-1.5-4.7-1.5c-1.9,0-3.1,1-3.1,2.3v0.1c0,1.5,2,2.1,4.1,2.7c2.5,0.7,5.1,1.7,5.1,4.6v0.1C560,68.2,557.5,70,554.4,70
					z"/>
				<path class="st2" d="M564.5,50.3v-2.6h2.7v2.6H564.5z M564.7,69.7V53.8h2.4v15.9H564.7z"/>
				<path class="st2" d="M579.8,70c-4.8,0-8.2-3.8-8.2-8.3c0-4.5,3.5-8.3,8.3-8.3c4.8,0,8.3,3.8,8.3,8.3
					C588.1,66.2,584.6,70,579.8,70z M579.8,55.5c-3.4,0-5.8,2.7-5.8,6.2c0,3.4,2.5,6.2,5.9,6.2c3.4,0,5.8-2.7,5.8-6.2
					C585.7,58.3,583.2,55.5,579.8,55.5z"/>
				<path class="st2" d="M594.8,69.7h-2.4V53.8h2.4v2.8c1-1.7,2.7-3.1,5.4-3.1c3.8,0,6.1,2.6,6.1,6.4v9.9H604v-9.3
					c0-3-1.6-4.8-4.4-4.8c-2.7,0-4.8,2-4.8,5V69.7z"/>
				<path class="st2" d="M483.6,100.7h-0.1l-7.8-11.5v17.4h-2.4V85.1h2.5l7.8,11.8l7.8-11.8h2.5v21.5h-2.4V89.2L483.6,100.7z"/>
				<path class="st2" d="M506.6,104.9c2.2,0,3.7-0.9,5-2.2l1.5,1.3c-1.6,1.8-3.5,3-6.6,3c-4.4,0-7.9-3.4-7.9-8.3
					c0-4.6,3.2-8.3,7.6-8.3c4.7,0,7.4,3.8,7.4,8.4c0,0.2,0,0.5,0,0.7H501C501.3,103,503.8,104.9,506.6,104.9z M511.2,97.8
					c-0.2-2.9-1.9-5.4-5.1-5.4c-2.8,0-4.9,2.3-5.2,5.4H511.2z"/>
				<path class="st2" d="M530.6,106.6v-3.2c-1.3,1.9-3.2,3.5-6.1,3.5c-3.8,0-7.6-3-7.6-8.3c0-5.2,3.8-8.3,7.6-8.3
					c3,0,4.9,1.6,6.1,3.4v-9.6h2.4v22.5H530.6z M524.9,92.5c-3.1,0-5.6,2.3-5.6,6.2c0,3.8,2.6,6.2,5.6,6.2c3,0,5.8-2.5,5.8-6.2
					C530.7,95,527.9,92.5,524.9,92.5z"/>
				<path class="st2" d="M538.3,87.2v-2.6h2.7v2.6H538.3z M538.5,106.6V90.7h2.4v15.9H538.5z"/>
				<path class="st2" d="M553.5,107c-4.6,0-8.2-3.8-8.2-8.3c0-4.5,3.5-8.3,8.2-8.3c3,0,4.9,1.3,6.4,2.8l-1.6,1.7
					c-1.3-1.3-2.7-2.4-4.8-2.4c-3.2,0-5.7,2.7-5.7,6.2c0,3.5,2.5,6.2,5.8,6.2c2,0,3.6-1,4.9-2.4l1.5,1.4
					C558.4,105.7,556.5,107,553.5,107z"/>
				<path class="st2" d="M564,87.2v-2.6h2.7v2.6H564z M564.1,106.6V90.7h2.4v15.9H564.1z"/>
				<path class="st2" d="M574.4,106.6H572V90.7h2.4v2.8c1-1.7,2.7-3.1,5.4-3.1c3.8,0,6.1,2.6,6.1,6.4v9.9h-2.4v-9.3
					c0-3-1.6-4.8-4.4-4.8c-2.7,0-4.8,2-4.8,5V106.6z"/>
				<path class="st2" d="M598,104.9c2.2,0,3.7-0.9,5-2.2l1.5,1.3c-1.6,1.8-3.5,3-6.6,3c-4.4,0-7.9-3.4-7.9-8.3
					c0-4.6,3.2-8.3,7.6-8.3c4.7,0,7.4,3.8,7.4,8.4c0,0.2,0,0.5,0,0.7h-12.6C592.7,103,595.2,104.9,598,104.9z M602.6,97.8
					c-0.2-2.9-1.9-5.4-5.1-5.4c-2.8,0-4.9,2.3-5.2,5.4H602.6z"/>
				<path class="st2" d="M475.9,122v21.5h-2.4V122H475.9z"/>
				<path class="st2" d="M484.2,143.6h-2.4v-15.9h2.4v2.8c1-1.7,2.7-3.1,5.4-3.1c3.8,0,6.1,2.6,6.1,6.4v9.9h-2.4v-9.3
					c0-3-1.6-4.8-4.4-4.8c-2.7,0-4.8,2-4.8,5V143.6z"/>
				<path class="st2" d="M500.8,124.2v-2.6h2.7v2.6H500.8z M501,143.6v-15.9h2.4v15.9H501z"/>
				<path class="st2" d="M512.1,139c0,1.9,1.1,2.6,2.7,2.6c0.8,0,1.5-0.2,2.3-0.6v2c-0.8,0.4-1.7,0.7-2.9,0.7
					c-2.6,0-4.5-1.3-4.5-4.5v-9.6h-2.2v-2.1h2.2v-4.8h2.4v4.8h5v2.1h-5V139z"/>
				<path class="st2" d="M521.4,124.2v-2.6h2.7v2.6H521.4z M521.5,143.6v-15.9h2.4v15.9H521.5z"/>
				<path class="st2" d="M530.3,130.7l-0.7-1.9c1.8-0.8,3.5-1.3,5.8-1.3c4.3,0,6.8,2.2,6.8,6.4v9.7h-2.3v-2.4
					c-1.1,1.4-3,2.7-5.8,2.7c-3,0-5.9-1.7-5.9-5c0-3.4,2.8-5.2,6.8-5.2c2,0,3.5,0.3,4.9,0.7v-0.6c0-2.9-1.8-4.3-4.7-4.3
					C533.3,129.5,531.8,130,530.3,130.7z M530.6,138.8c0,2,1.8,3.2,4,3.2c2.9,0,5.3-1.8,5.3-4.3v-1.5c-1.2-0.3-2.7-0.7-4.7-0.7
					C532.3,135.5,530.6,136.8,530.6,138.8z"/>
				<path class="st2" d="M550.3,139c0,1.9,1.1,2.6,2.7,2.6c0.8,0,1.5-0.2,2.3-0.6v2c-0.8,0.4-1.7,0.7-2.9,0.7
					c-2.6,0-4.5-1.3-4.5-4.5v-9.6h-2.2v-2.1h2.2v-4.8h2.4v4.8h5v2.1h-5V139z"/>
				<path class="st2" d="M559.6,124.2v-2.6h2.7v2.6H559.6z M559.7,143.6v-15.9h2.4v15.9H559.7z"/>
				<path class="st2" d="M579.4,127.7h2.6l-6.9,16h-2.1l-6.9-16h2.6l5.4,13.2L579.4,127.7z"/>
				<path class="st2" d="M591.8,141.9c2.2,0,3.7-0.9,5-2.2l1.5,1.3c-1.6,1.8-3.5,3-6.6,3c-4.4,0-7.9-3.4-7.9-8.3
					c0-4.6,3.2-8.3,7.6-8.3c4.7,0,7.4,3.8,7.4,8.4c0,0.2,0,0.5,0,0.7h-12.6C586.5,139.9,589,141.9,591.8,141.9z M596.4,134.7
					c-0.2-2.9-1.9-5.4-5.1-5.4c-2.8,0-4.9,2.3-5.2,5.4H596.4z"/>
			</g>
		</g>
	</g>
	<g>
		<path class="st1" d="M9,119.3h11.8c3.8,0,6.5,1,8.1,2.7c1.5,1.4,2.2,3.4,2.2,5.8v0.1c0,3.8-2,6.4-5.1,7.7l6,8.7h-8l-5-7.6h-0.1h-3
			v7.6H9V119.3z M20.5,131.2c2.4,0,3.7-1.1,3.7-3v-0.1c0-2-1.4-3-3.7-3H16v6H20.5z"/>
		<path class="st1" d="M36.4,119.3h20.1v5.9H43.2v3.8h12v5.5h-12v4h13.4v5.9H36.4V119.3z"/>
		<path class="st1" d="M60.7,140.5l3.9-4.6c2.5,2,5.2,3,8.1,3c1.9,0,2.9-0.6,2.9-1.7v-0.1c0-1-0.8-1.6-4.2-2.4
			c-5.3-1.2-9.4-2.7-9.4-7.9v-0.1c0-4.6,3.7-8,9.7-8c4.2,0,7.6,1.1,10.3,3.3l-3.5,4.9c-2.3-1.6-4.8-2.5-7-2.5
			c-1.7,0-2.5,0.7-2.5,1.6v0.1c0,1.1,0.9,1.6,4.3,2.4c5.7,1.2,9.3,3.1,9.3,7.8v0.1c0,5.1-4,8.1-10.1,8.1
			C67.9,144.7,63.7,143.3,60.7,140.5z"/>
		<path class="st1" d="M87.5,119.3h20.1v5.9H94.3v3.8h12v5.5h-12v4h13.4v5.9H87.5V119.3z"/>
		<path class="st1" d="M121.6,119.1h6.7l10.6,25.2h-7.4l-1.8-4.5H120l-1.8,4.5H111L121.6,119.1z M127.7,134.4l-2.8-7.1l-2.8,7.1
			H127.7z"/>
		<path class="st1" d="M142.3,119.3h11.8c3.8,0,6.5,1,8.1,2.7c1.5,1.4,2.2,3.4,2.2,5.8v0.1c0,3.8-2,6.4-5.1,7.7l6,8.7h-8l-5-7.6
			h-0.1h-3v7.6h-6.9V119.3z M153.8,131.2c2.4,0,3.7-1.1,3.7-3v-0.1c0-2-1.4-3-3.7-3h-4.5v6H153.8z"/>
		<path class="st1" d="M168.1,131.8L168.1,131.8c0-7.4,5.6-13.1,13.2-13.1c5.1,0,8.4,2.1,10.6,5.2l-5.2,4c-1.4-1.8-3.1-2.9-5.5-2.9
			c-3.5,0-6,3-6,6.6v0.1c0,3.7,2.5,6.7,6,6.7c2.6,0,4.1-1.2,5.6-3l5.2,3.7c-2.4,3.2-5.5,5.6-11.1,5.6
			C173.8,144.7,168.1,139.3,168.1,131.8z"/>
		<path class="st1" d="M195.9,119.3h6.9v9.3h8.9v-9.3h6.9v25h-6.9v-9.5h-8.9v9.5h-6.9V119.3z"/>
		<path class="st1" d="M236.3,119.3H247c6.3,0,10.4,3.2,10.4,8.8v0.1c0,5.9-4.5,9-10.7,9h-3.4v7.1h-6.9V119.3z M246.5,131.7
			c2.5,0,4-1.3,4-3.2v-0.1c0-2.1-1.5-3.3-4-3.3h-3.2v6.6H246.5z"/>
		<path class="st1" d="M261.3,119.3h11.8c3.8,0,6.5,1,8.1,2.7c1.5,1.4,2.2,3.4,2.2,5.8v0.1c0,3.8-2,6.4-5.1,7.7l6,8.7h-8l-5-7.6
			h-0.1h-3v7.6h-6.9V119.3z M272.8,131.2c2.4,0,3.7-1.1,3.7-3v-0.1c0-2-1.4-3-3.7-3h-4.5v6H272.8z"/>
		<path class="st1" d="M286.1,131.8L286.1,131.8c0-7.2,5.8-13.1,13.5-13.1c7.7,0,13.4,5.7,13.4,12.9v0.1c0,7.2-5.8,13-13.5,13
			C291.8,144.7,286.1,139,286.1,131.8z M305.9,131.8L305.9,131.8c0-3.7-2.6-6.8-6.4-6.8c-3.8,0-6.3,3.1-6.3,6.7v0.1
			c0,3.6,2.6,6.7,6.4,6.7C303.4,138.5,305.9,135.4,305.9,131.8z"/>
		<path class="st1" d="M316,131.8L316,131.8c0-7.4,5.7-13.1,13.5-13.1c4.4,0,7.5,1.4,10.1,3.6l-4.1,4.9c-1.8-1.5-3.6-2.4-6-2.4
			c-3.6,0-6.4,3-6.4,6.9v0.1c0,4,2.8,6.9,6.8,6.9c1.7,0,3-0.4,4-1v-3h-4.9v-5.1h11.5v11.2c-2.6,2.2-6.3,3.9-10.8,3.9
			C321.8,144.7,316,139.4,316,131.8z"/>
		<path class="st1" d="M345.9,119.3h11.8c3.8,0,6.5,1,8.1,2.7c1.5,1.4,2.2,3.4,2.2,5.8v0.1c0,3.8-2,6.4-5.1,7.7l6,8.7h-8l-5-7.6
			h-0.1h-3v7.6h-6.9V119.3z M357.4,131.2c2.4,0,3.7-1.1,3.7-3v-0.1c0-2-1.4-3-3.7-3h-4.5v6H357.4z"/>
		<path class="st1" d="M381.2,119.1h6.7l10.6,25.2h-7.4l-1.8-4.5h-9.6l-1.8,4.5h-7.3L381.2,119.1z M387.3,134.4l-2.8-7.1l-2.8,7.1
			H387.3z"/>
		<path class="st1" d="M400.9,119.3h7.3l6,9.7l6-9.7h7.3v25h-6.9v-14.3l-6.4,9.8H414l-6.4-9.7v14.3h-6.8V119.3z"/>
	</g>
</g>
</svg>
