<?xml version="1.0" encoding="utf-8"?>
<!-- Generator: Adobe Illustrator 22.1.0, SVG Export Plug-In . SVG Version: 6.00 Build 0)  -->
<svg version="1.1" id="Layer_1" xmlns="http://www.w3.org/2000/svg" xmlns:xlink="http://www.w3.org/1999/xlink" x="0px" y="0px"
	 viewBox="0 0 522 60.3" style="enable-background:new 0 0 522 60.3;" xml:space="preserve">
<style type="text/css">
	.st0{fill:#5EAEE0;}
	.st1{fill:#282560;}
</style>
<g>
	<path class="st0" d="M25.9,51.9H9.3V9.5h16.5c13.3,0,22.5,9.1,22.5,21.1v0.1C48.4,42.6,39.2,51.9,25.9,51.9z M38.6,30.7
		c0-7.5-5.1-12.8-12.8-12.8h-7.2v25.6h7.2c7.6,0,12.8-5.1,12.8-12.7V30.7z"/>
	<path class="st0" d="M85.2,51.9l-3.9-9.5H63.4l-3.9,9.5H50L68.2,9.2h8.6l18.2,42.7H85.2z M72.4,20.4l-5.6,13.7H78L72.4,20.4z"/>
	<path class="st0" d="M115.2,18.1v33.8h-9.3V18.1H93V9.5h35.1v8.6H115.2z"/>
	<path class="st0" d="M161.3,51.9l-3.9-9.5h-17.9l-3.9,9.5h-9.5l18.2-42.7h8.6l18.2,42.7H161.3z M148.5,20.4l-5.6,13.7h11.3
		L148.5,20.4z"/>
	<path class="st1" d="M216,51.9h-20.2V9.5h19.7c8.7,0,14,4.3,14,11v0.1c0,4.8-2.5,7.4-5.6,9.1c4.9,1.9,7.9,4.7,7.9,10.4v0.1
		C231.8,48,225.5,51.9,216,51.9z M220.2,22c0-2.8-2.2-4.4-6.1-4.4h-9.2v9h8.6c4.1,0,6.7-1.3,6.7-4.5V22z M222.6,39
		c0-2.8-2.1-4.6-6.9-4.6h-10.8v9.3H216c4.1,0,6.6-1.5,6.6-4.6V39z"/>
	<path class="st1" d="M265.2,51.9l-9.1-13.6h-7.3v13.6h-9.3V9.5h19.4c10,0,16,5.3,16,14v0.1c0,6.8-3.7,11.1-9.1,13.1l10.4,15.1
		H265.2z M265.4,24c0-4-2.8-6.1-7.3-6.1h-9.3v12.2h9.4c4.5,0,7.1-2.4,7.1-6V24z"/>
	<path class="st1" d="M303.9,52.6c-13.1,0-22.5-9.7-22.5-21.8v-0.1c0-12,9.5-21.9,22.6-21.9s22.5,9.7,22.5,21.8v0.1
		C326.4,42.8,316.9,52.6,303.9,52.6z M316.7,30.7c0-7.3-5.3-13.3-12.8-13.3s-12.7,5.9-12.7,13.2v0.1c0,7.3,5.3,13.3,12.8,13.3
		s12.7-5.9,12.7-13.2V30.7z"/>
	<path class="st1" d="M378.9,52.2h-8.1l-9.6-27.7l-9.6,27.7h-8.1L329,9.5h10l8.8,28.7l9.5-28.8h8l9.5,28.8l8.8-28.7h9.7L378.9,52.2z
		"/>
	<path class="st1" d="M414.1,52.5c-6.4,0-12.9-2.2-18-6.8l5.5-6.6c3.8,3.1,7.8,5.1,12.7,5.1c3.8,0,6.1-1.5,6.1-4v-0.1
		c0-2.4-1.5-3.6-8.5-5.4c-8.5-2.2-14-4.5-14-13v-0.1c0-7.7,6.2-12.8,14.8-12.8c6.2,0,11.4,1.9,15.7,5.4l-4.8,7
		c-3.8-2.6-7.4-4.2-11-4.2s-5.4,1.6-5.4,3.7V21c0,2.8,1.8,3.7,9.1,5.6c8.6,2.2,13.4,5.3,13.4,12.7v0.1
		C429.7,47.8,423.2,52.5,414.1,52.5z"/>
	<path class="st1" d="M437.8,51.9V9.5h32v8.3H447v8.6h20v8.3h-20v8.9h23v8.3H437.8z"/>
	<path class="st1" d="M504.1,51.9L495,38.3h-7.3v13.6h-9.3V9.5h19.4c10,0,16,5.3,16,14v0.1c0,6.8-3.7,11.1-9.1,13.1L515,51.9H504.1z
		 M504.2,24c0-4-2.8-6.1-7.3-6.1h-9.3v12.2h9.4c4.5,0,7.1-2.4,7.1-6V24z"/>
</g>
</svg>
