<?xml version="1.0" encoding="utf-8"?>
<!-- Generator: Adobe Illustrator 21.0.2, SVG Export Plug-In . SVG Version: 6.00 Build 0)  -->
<svg version="1.1" id="Layer_1" xmlns="http://www.w3.org/2000/svg" xmlns:xlink="http://www.w3.org/1999/xlink" x="0px" y="0px"
	 viewBox="0 0 468.3 122.3" style="enable-background:new 0 0 468.3 122.3;" xml:space="preserve">
<style type="text/css">
	.st0{fill:#909194;}
	.st1{fill:#5DADE0;}
</style>
<g>
	<path class="st0" d="M85.3,22.2c0-0.3,0-0.7-0.1-1l-12.9,1l0,0.5v0.2c0,5.8-4,8.8-10.4,8.8h-3.8l0,0H24.2C10.2,31.8,1.8,40,1.8,52
		v0.2c0,0.2,0,0.3,0,0.5c0,0.1,0,0.2,0,0.3c0,0.3,0,0.7,0.1,1l12.9-1l0-0.5v-0.2c0-5.8,4-8.8,10.4-8.8l7.5,0c2.4-4.4,7-7.4,12.3-7.4
		c5.3,0,10,3,12.3,7.4l5.6,0c13.9,0,22.3-8.3,22.3-20.2V23c0-0.2,0-0.3,0-0.5C85.3,22.5,85.3,22.3,85.3,22.2z"/>
	<g>
		<path class="st0" d="M90.2,40v-0.2c0-12.8,9.1-23.3,22.1-23.3c14.9,0,21.8,11.6,21.8,24.3c0,1-0.1,2.2-0.2,3.3h-31.1
			C104,50,108,53,113.7,53c4.3,0,7.3-1.3,10.8-4.6l7.3,6.4c-4.2,5.2-10.2,8.3-18.3,8.3C100.1,63.1,90.2,53.7,90.2,40z M121.7,36.3
			c-0.8-5.7-4.1-9.5-9.4-9.5c-5.3,0-8.7,3.8-9.7,9.5H121.7z"/>
		<path class="st0" d="M136.2,56.2l5.4-8.3c4.8,3.5,9.9,5.3,14.1,5.3c3.7,0,5.3-1.3,5.3-3.3v-0.2c0-2.8-4.3-3.7-9.3-5.2
			c-6.3-1.8-13.3-4.8-13.3-13.4V31c0-9.1,7.3-14.2,16.3-14.2c5.7,0,11.8,1.9,16.7,5.2l-4.8,8.8c-4.4-2.6-8.8-4.2-12.1-4.2
			c-3.1,0-4.7,1.3-4.7,3.1v0.2c0,2.5,4.3,3.7,9.1,5.3c6.3,2.1,13.5,5.1,13.5,13.3v0.2c0,9.9-7.4,14.4-17.1,14.4
			C149.1,63,142.1,60.9,136.2,56.2z"/>
		<path class="st0" d="M175.8,40v-0.2c0-12.8,9.1-23.3,22.1-23.3c14.9,0,21.8,11.6,21.8,24.3c0,1-0.1,2.2-0.2,3.3h-31.1
			c1.3,5.8,5.3,8.8,10.9,8.8c4.3,0,7.3-1.3,10.8-4.6l7.3,6.4c-4.2,5.2-10.2,8.3-18.3,8.3C185.8,63.1,175.8,53.7,175.8,40z
			 M207.4,36.3c-0.8-5.7-4.1-9.5-9.4-9.5c-5.3,0-8.7,3.8-9.7,9.5H207.4z"/>
		<path class="st0" d="M222.7,49.3v-0.2c0-9.8,7.4-14.3,18-14.3c4.5,0,7.8,0.8,10.9,1.8V36c0-5.3-3.3-8.2-9.6-8.2
			c-4.8,0-8.3,0.9-12.3,2.4l-3.2-9.7c4.9-2.2,9.8-3.6,17.3-3.6c6.9,0,11.9,1.8,15.1,5c3.3,3.3,4.8,8.3,4.8,14.3v21.4h-12.3v-0.3
			c-3.1,3.4-7.3,5.7-13.5,5.7C229.7,63,222.7,58.1,222.7,49.3z M251.8,46.4v-2.3c-2.2-1-5-1.7-8.1-1.7c-5.4,0-8.8,2.2-8.8,6.2v0.2
			c0,3.4,2.8,5.4,6.9,5.4C247.8,54.2,251.8,51,251.8,46.4z"/>
		<path class="st0" d="M271.9,17.4h12.7v9c2.6-6.2,6.8-10.2,14.3-9.8v13.3h-0.7c-8.4,0-13.6,5.1-13.6,15.8v16.5h-12.7V17.4z"/>
		<path class="st0" d="M300.8,40v-0.2c0-12.8,9.8-23.3,23.4-23.3c8.4,0,13.7,2.8,17.8,7.5l-7.8,8.3c-2.8-3-5.7-4.9-10.2-4.9
			c-6.3,0-10.8,5.6-10.8,12.2v0.2c0,6.8,4.4,12.3,11.3,12.3c4.3,0,7.2-1.8,10.3-4.8l7.4,7.5c-4.3,4.8-9.3,8.2-18.3,8.2
			C310.7,63.1,300.8,52.8,300.8,40z"/>
		<path class="st0" d="M346.1,1.3h12.7v22.5c2.9-3.8,6.7-7.2,13.1-7.2c9.6,0,15.2,6.3,15.2,16.6v28.9h-12.7V37.2
			c0-6-2.8-9.1-7.7-9.1c-4.8,0-7.9,3.1-7.9,9.1v24.9h-12.7V1.3z"/>
		<path class="st0" d="M391.2,40v-0.2c0-12.8,9.1-23.3,22.1-23.3c14.9,0,21.8,11.6,21.8,24.3c0,1-0.1,2.2-0.2,3.3h-31.1
			c1.3,5.8,5.3,8.8,10.9,8.8c4.3,0,7.3-1.3,10.8-4.6l7.3,6.4c-4.2,5.2-10.2,8.3-18.3,8.3C401.1,63.1,391.2,53.7,391.2,40z
			 M422.7,36.3c-0.8-5.7-4.1-9.5-9.4-9.5c-5.3,0-8.7,3.8-9.7,9.5H422.7z"/>
		<path class="st0" d="M439.5,17.4h12.7v9c2.6-6.2,6.8-10.2,14.3-9.8v13.3h-0.7c-8.4,0-13.6,5.1-13.6,15.8v16.5h-12.7V17.4z"/>
	</g>
	<path class="st0" d="M85.3,23c0-0.2,0-0.3,0-0.5v-0.2c0-11.9-8.4-20.2-22.3-20.2H39.1l0,6c1.8-0.9,3.9-1.5,6.1-1.5
		c5.1,0,9.6,2.9,11.9,7.1h4.8c6.4,0,10.4,3.1,10.4,8.8v0.2l0,0.5l12.9,1c0-0.3,0.1-0.6,0.1-1C85.3,23.2,85.3,23.1,85.3,23z"/>
	<path class="st1" d="M87.5,97.6v-0.2c0-12.8,10.3-23.3,24.3-23.3c13.8,0,24.1,10.3,24.1,23.1v0.2c0,12.8-10.3,23.3-24.3,23.3
		C97.7,120.7,87.5,110.4,87.5,97.6z M123.3,97.6v-0.2c0-6.6-4.8-12.3-11.8-12.3c-7.3,0-11.6,5.6-11.6,12.2v0.2
		c0,6.6,4.8,12.3,11.8,12.3C119,109.8,123.3,104.2,123.3,97.6z"/>
	<path class="st1" d="M140.2,75h12.7v9c2.6-6.2,6.8-10.2,14.3-9.8v13.3h-0.7c-8.4,0-13.6,5.1-13.6,15.8v16.5h-12.7V75z"/>
	<path class="st1" d="M174.8,107V85.8h0V75h0V63.6h12.7V75h10.5v10.8h-10.5v19.1c0,2.9,1.3,4.3,4.1,4.3c2.3,0,4.4-0.6,6.3-1.6v10.2
		c-2.7,1.6-5.8,2.6-10,2.6C180,120.4,174.8,117.4,174.8,107z"/>
	<path class="st1" d="M202.2,106.8v-0.2c0-9.8,7.4-14.3,18-14.3c4.5,0,7.8,0.8,10.9,1.8v-0.8c0-5.3-3.3-8.2-9.6-8.2
		c-4.8,0-8.3,0.9-12.3,2.4l-3.2-9.7c4.9-2.2,9.8-3.6,17.3-3.6c6.9,0,11.9,1.8,15.1,5c3.3,3.3,4.8,8.3,4.8,14.3v25.9h-12.3v-4.8
		c-3.1,3.4-7.3,5.7-13.5,5.7C209.1,120.5,202.2,115.7,202.2,106.8z M231.3,103.9v-2.3c-2.2-1-5-1.7-8.1-1.7c-5.4,0-8.8,2.2-8.8,6.2
		v0.2c0,3.4,2.8,5.4,6.9,5.4C227.3,111.8,231.3,108.5,231.3,103.9z"/>
	<path class="st1" d="M251.2,63.6h12.7v56.1h-12.7V63.6z"/>
	<circle class="st1" cx="45.2" cy="49.9" r="8.2"/>
	<circle class="st0" cx="45.2" cy="20.7" r="8.2"/>
	<path class="st0" d="M73.6,39.3l14.3,20.8h-15L60.4,41.5"/>
	<path class="st1" d="M85.3,82.1c0-0.2,0-0.3,0-0.5v-0.2c0-11.9-8.4-20.2-22.3-20.2l-37.7,0c-6.4,0-10.4-3.1-10.4-8.8v-0.2l0-0.1
		c0-0.2,0-0.4,0-0.7c0-3.6-2.9-6.5-6.5-6.5S1.8,48,1.8,51.6c0,0,0,0.1,0,0.1c0,0,0,0.1,0,0.1c0,0.1,0,0.1,0,0.2c0,0.1,0,0.1,0,0.2
		c0,0.1,0,0.3,0,0.4v0.2c0,11.9,8.4,20.2,22.3,20.2h8.6c2.3-4.5,7-7.6,12.4-7.6s10.1,3.1,12.4,7.6h0.4l0,0h3.8
		c6.4,0,10.4,3.1,10.4,8.8v0.2l0,0.5l12.9,1c0-0.3,0.1-0.6,0.1-1C85.3,82.4,85.3,82.2,85.3,82.1z"/>
	<circle class="st1" cx="45.2" cy="79.3" r="8.2"/>
	<g>
		<path class="st1" d="M85.2,81.5c-0.5-3.1-3.1-5.6-6.4-5.6c-3.4,0-6.1,2.5-6.4,5.8l-0.1,0v0.2c0,5-3.8,8.8-10.2,8.8h-23l0,28.9H52
			v-17.5h9.8c12.5,0,22.6-6.4,23.5-18.7c0-0.4,0.1-0.9,0.1-1.3c0-0.2,0-0.3,0-0.5v-0.2L85.2,81.5z"/>
	</g>
</g>
</svg>
