<?xml version="1.0" encoding="utf-8"?>
<!-- Generator: Adobe Illustrator 21.0.2, SVG Export Plug-In . SVG Version: 6.00 Build 0)  -->
<svg version="1.1" id="Layer_1" xmlns="http://www.w3.org/2000/svg" xmlns:xlink="http://www.w3.org/1999/xlink" x="0px" y="0px"
	 viewBox="0 0 174.5 41.8" style="enable-background:new 0 0 174.5 41.8;" xml:space="preserve">
<style type="text/css">
	.st0{fill:#5EAEE0;}
	.st1{fill:#282560;}
</style>
<g>
	<path class="st0" d="M2,1.4h8c2.2,0,3.9,0.6,5.1,1.8c1,1,1.5,2.3,1.5,4v0c0,2.8-1.5,4.6-3.7,5.4l4.3,6.2h-4.5l-3.7-5.6h-3v5.6H2
		V1.4z M9.8,9.9c1.9,0,2.9-1,2.9-2.5v0c0-1.6-1.1-2.5-3-2.5H5.9v5H9.8z"/>
	<path class="st0" d="M19.7,1.4h13.2v3.4h-9.4v3.5h8.2v3.4h-8.2v3.7H33v3.4H19.7V1.4z"/>
	<path class="st0" d="M34.9,16.4l2.3-2.7c1.6,1.3,3.2,2.1,5.2,2.1c1.6,0,2.5-0.6,2.5-1.6v0c0-1-0.6-1.5-3.5-2.2
		c-3.5-0.9-5.8-1.9-5.8-5.3V6.5c0-3.2,2.5-5.3,6.1-5.3c2.5,0,4.7,0.8,6.5,2.2l-2,2.9c-1.5-1.1-3.1-1.7-4.5-1.7s-2.2,0.7-2.2,1.5v0
		c0,1.1,0.7,1.5,3.8,2.3c3.5,0.9,5.5,2.2,5.5,5.2v0c0,3.5-2.6,5.4-6.4,5.4C39.7,19.2,37,18.3,34.9,16.4z"/>
	<path class="st0" d="M51.7,1.4h13.2v3.4h-9.4v3.5h8.2v3.4h-8.2v3.7H65v3.4H51.7V1.4z"/>
	<path class="st0" d="M74.1,1.3h3.5l7.5,17.6h-4L79.5,15h-7.4l-1.6,3.9h-3.9L74.1,1.3z M78.1,11.6l-2.3-5.7l-2.3,5.7H78.1z"/>
	<path class="st0" d="M87.5,1.4h8c2.2,0,3.9,0.6,5.1,1.8c1,1,1.5,2.3,1.5,4v0c0,2.8-1.5,4.6-3.7,5.4l4.3,6.2h-4.5l-3.7-5.6h-3v5.6
		h-3.8V1.4z M95.2,9.9c1.9,0,2.9-1,2.9-2.5v0c0-1.6-1.1-2.5-3-2.5h-3.8v5H95.2z"/>
	<path class="st0" d="M104.4,10.2L104.4,10.2c0-5,3.7-9.1,9.1-9.1c3.3,0,5.3,1.1,6.9,2.7L118,6.7c-1.3-1.2-2.7-2-4.5-2
		c-2.9,0-5.1,2.4-5.1,5.4v0c0,3,2.1,5.5,5.1,5.5c2,0,3.2-0.8,4.6-2l2.4,2.5c-1.8,1.9-3.8,3.1-7.2,3.1
		C108.2,19.2,104.4,15.3,104.4,10.2z"/>
	<path class="st0" d="M123.2,1.4h3.8v6.9h7.1V1.4h3.8v17.5h-3.8v-7h-7.1v7h-3.8V1.4z"/>
	<path class="st0" d="M141.9,1.4h13.2v3.4h-9.4v3.5h8.2v3.4h-8.2v3.7h9.5v3.4h-13.3V1.4z"/>
	<path class="st0" d="M158.2,1.4h8c2.2,0,3.9,0.6,5.1,1.8c1,1,1.5,2.3,1.5,4v0c0,2.8-1.5,4.6-3.7,5.4l4.3,6.2h-4.5l-3.7-5.6h-3v5.6
		h-3.8V1.4z M166,9.9c1.9,0,2.9-1,2.9-2.5v0c0-1.6-1.1-2.5-3-2.5h-3.8v5H166z"/>
	<path class="st1" d="M1,23.4h2.1l5,14.6L13,23.4h1.6L19.4,38l5-14.6h2.1l-6.2,17.6h-1.7l-4.8-14.2L8.9,41.1H7.3L1,23.4z"/>
	<path class="st1" d="M28.4,32.2L28.4,32.2c0-4.9,3.6-9.1,8.9-9.1s8.9,4.2,8.9,9v0c0,4.8-3.6,9-8.9,9C32,41.2,28.4,37.1,28.4,32.2z
		 M44.2,32.2L44.2,32.2c0-4-2.9-7.3-6.9-7.3s-6.8,3.2-6.8,7.2v0c0,4,2.9,7.2,6.9,7.2S44.2,36.2,44.2,32.2z"/>
	<path class="st1" d="M50.4,23.4h7.5c2.1,0,3.9,0.6,5,1.7c0.9,0.8,1.3,2.1,1.3,3.4v0c0,2.9-2,4.6-4.7,5.1l5.4,7.1h-2.4l-5.1-6.8h-5
		v6.8h-2V23.4z M57.8,32.4c2.6,0,4.5-1.3,4.5-3.6v-0.1c0-2.1-1.6-3.4-4.5-3.4h-5.4v7.1H57.8z"/>
	<path class="st1" d="M68.5,23.4h2v10.4l10-10.4h2.5l-7.5,7.6l7.8,9.8h-2.5l-6.7-8.5l-3.7,3.8v4.7h-2V23.4z"/>
	<path class="st1" d="M86.5,23.4h7.4c2,0,3.6,0.6,4.6,1.5c0.7,0.8,1.1,1.7,1.1,2.8v0.1c0,2.3-1.4,3.4-2.8,4c2.1,0.6,3.7,1.8,3.7,4.2
		v0c0,3-2.5,4.8-6.3,4.8h-7.8V23.4z M97.6,28.1c0-1.7-1.4-2.8-3.9-2.8h-5.3v6h5.2C96,31.2,97.6,30.2,97.6,28.1L97.6,28.1z M93.9,33
		h-5.5v6.2h5.9c2.6,0,4.3-1.2,4.3-3.1v0C98.6,34.1,97,33,93.9,33z"/>
	<path class="st1" d="M104.5,23.4h12.6v1.8h-10.7v6h9.5V33h-9.5v6.1h10.8v1.8h-12.8V23.4z"/>
	<path class="st1" d="M121.3,23.4h1.8l11,14v-14h1.9v17.5h-1.6l-11.3-14.3v14.3h-1.9V23.4z"/>
	<path class="st1" d="M140.2,32.2L140.2,32.2c0-5,3.7-9.1,8.8-9.1c3.2,0,5.1,1.1,6.8,2.8l-1.3,1.4c-1.5-1.4-3.1-2.4-5.5-2.4
		c-3.9,0-6.8,3.1-6.8,7.2v0c0,4,2.9,7.2,6.8,7.2c2.4,0,4-0.9,5.6-2.5l1.3,1.3c-1.8,1.8-3.8,3.1-7,3.1
		C144,41.2,140.2,37.3,140.2,32.2z"/>
	<path class="st1" d="M159.5,23.4h2v7.8h10.1v-7.8h2v17.5h-2v-7.9h-10.1v7.9h-2V23.4z"/>
</g>
</svg>
