<?xml version="1.0" encoding="utf-8"?>
<!-- Generator: Adobe Illustrator 22.0.1, SVG Export Plug-In . SVG Version: 6.00 Build 0)  -->
<svg version="1.1" id="Layer_1" xmlns="http://www.w3.org/2000/svg" xmlns:xlink="http://www.w3.org/1999/xlink" x="0px" y="0px"
	 viewBox="0 0 621 226.8" style="enable-background:new 0 0 621 226.8;" xml:space="preserve">
<style type="text/css">
	.st0{fill:#5EAEE0;}
	.st1{fill:#282560;}
	.st2{fill:#909294;}
	.st3{clip-path:url(#SVGID_2_);}
	.st4{clip-path:url(#SVGID_4_);fill:#292562;}
	.st5{clip-path:url(#SVGID_6_);}
	.st6{clip-path:url(#SVGID_8_);fill:#6FABDD;}
	.st7{fill:none;stroke:#979797;stroke-width:0.9;stroke-linecap:square;stroke-miterlimit:10;}
</style>
<g>
	<g>
		<g>
			<g>
				<g>
					<g>
						<path class="st0" d="M193,69.3c0-2.6,0.8-5.4,2.3-8.3c1.5-3,3.9-5.4,7.1-7.4c3.2-2,7.1-3,11.6-3c5.5,0,9.6,1.3,12.2,4
							c2.6,2.6,3.9,5.8,3.9,9.6c0,5.2-2,9.6-6,13.4c-4,3.8-9.1,5.7-15.3,5.7c-4.5,0-8.3-1.1-11.3-3.4C194.5,77.5,193,74,193,69.3
							 M203.8,73.1c0,2.2,0.4,3.8,1.2,4.9c0.8,1.1,2.1,1.6,3.7,1.6c3.1,0,5.5-2.3,7.5-6.9c1.9-4.6,2.9-8.5,2.9-11.7
							c0-2.4-0.5-4.2-1.4-5.2c-0.9-1.1-2-1.6-3.2-1.6c-3.3,0-5.9,2.4-7.8,7.2C204.8,66.3,203.8,70.1,203.8,73.1"/>
						<path class="st0" d="M249.7,55.9L246,72.5c-2.1,9.6-5,16.7-8.6,21.4c-3.6,4.7-8.4,7.1-14.5,7.1c-2.9,0-5-0.6-6.4-1.7
							c-1.3-1.1-2-2.5-2-4c0-1.4,0.5-2.6,1.6-3.6c1-1,2.3-1.5,3.6-1.5c2.9,0,4.5,1.5,5,4.6c0.2,1.6,0.9,2.3,2,2.3
							c1.2,0,2.2-1,3.2-3.1c0.9-2.1,2.1-6.2,3.5-12.5l1.1-5.4c0.3-1.3,0.6-2.3,0.7-3l3.7-17.2h-4.8l1.3-4.1h4.4
							c2.3-8.4,5-14,8.1-16.8c3.1-2.7,6.8-4.1,11.1-4.1c2.9,0,5.2,0.6,7,1.7c1.8,1.1,2.7,2.6,2.7,4.4c0,1.2-0.4,2.3-1.3,3.2
							c-0.9,0.9-2,1.4-3.3,1.4c-1.9,0-3.6-1.4-5-4.1c-1-2-2.1-3.1-3.1-3.1c-1.2,0-2.2,1.6-2.8,4.9l-2.4,12.4h5.5l-1.3,4.1H249.7z"/>
					</g>
					<g>
						<path class="st1" d="M47.1,13.4h29l36.9,88.2H81.2l-4.6-11.8H46l-4.5,11.8H10.2L47.1,13.4z M69.4,69l-8-21.3l-8,21.3H69.4z"/>
						<rect x="116.7" y="10.2" class="st1" width="28.4" height="91.3"/>
						<rect x="157.9" y="10.2" class="st1" width="28.4" height="91.3"/>
					</g>
					<g>
						<path class="st1" d="M273.8,62.3V14h29.8v47.9c0,10.9,5.6,15.5,13.5,15.5c7.9,0,13.5-4.3,13.5-14.9V14h29.8v47.6
							c0,29.9-17.4,41.6-43.5,41.6C290.7,103.3,273.8,91.3,273.8,62.3"/>
						<path class="st1" d="M364,93.3l9.6-16.1c8.3,5.1,17.5,7.6,25.3,7.6c2.8,0,4.1-0.6,4.1-2.3v-0.2c0-1.4-1.2-2.3-8.1-4
							c-17.3-4.3-27.9-8.9-27.9-23V55c0-15,12-23.4,29.8-23.4c11.3,0,22.4,2.9,30.6,7.9l-9,16.9c-7.3-4-16-6.4-21.8-6.4
							c-2.8,0-4,0.8-4,2.1v0.3c0,1.4,1.5,2.3,8.4,4c17.3,4.3,27.6,9,27.6,23v0.3c0,14.9-11.1,23.5-29.6,23.5
							C385.7,103.1,373.7,99.8,364,93.3"/>
					</g>
				</g>
				<rect x="453" y="10.9" class="st2" width="1.5" height="133.3"/>
				<g>
					<path class="st2" d="M482.6,32.9h-2.5V13.6h-7.2v-2.2h16.9v2.2h-7.2V32.9z"/>
					<path class="st2" d="M495.9,32.9h-2.4V10.4h2.4v9.3c1-1.7,2.7-3.1,5.4-3.1c3.8,0,6.1,2.6,6.1,6.4v9.9h-2.4v-9.3
						c0-3-1.6-4.8-4.4-4.8c-2.7,0-4.8,2-4.8,5V32.9z"/>
					<path class="st2" d="M519.5,31.2c2.2,0,3.7-0.9,5-2.2l1.5,1.3c-1.6,1.8-3.5,3-6.6,3c-4.4,0-7.9-3.4-7.9-8.3
						c0-4.6,3.2-8.3,7.6-8.3c4.7,0,7.4,3.8,7.4,8.4c0,0.2,0,0.5,0,0.7h-12.6C514.3,29.2,516.7,31.2,519.5,31.2z M524.2,24
						c-0.2-2.9-1.9-5.4-5.1-5.4c-2.8,0-4.9,2.3-5.2,5.4H524.2z"/>
					<path class="st2" d="M482.1,62.2h-5.2v7.6h-2.4V48.3h8.1c4.9,0,8.1,2.6,8.1,6.9C490.6,59.8,486.7,62.2,482.1,62.2z M482.3,50.5
						h-5.4V60h5.3c3.6,0,5.9-1.9,5.9-4.8C488.1,52.1,485.8,50.5,482.3,50.5z"/>
					<path class="st2" d="M497,69.8h-2.4V53.9h2.4V58c1.2-2.6,3.5-4.6,6.5-4.4v2.6h-0.2c-3.5,0-6.3,2.5-6.3,7.3V69.8z"/>
					<path class="st2" d="M513.4,68.1c2.2,0,3.7-0.9,5-2.2l1.5,1.3c-1.6,1.8-3.5,3-6.6,3c-4.4,0-7.9-3.4-7.9-8.3
						c0-4.6,3.2-8.3,7.6-8.3c4.7,0,7.4,3.8,7.4,8.4c0,0.2,0,0.5,0,0.7h-12.6C508.2,66.2,510.6,68.1,513.4,68.1z M518.1,61
						c-0.2-2.9-1.9-5.4-5.1-5.4c-2.8,0-4.9,2.3-5.2,5.4H518.1z"/>
					<path class="st2" d="M531.8,70.2c-4.6,0-8.2-3.8-8.2-8.3c0-4.5,3.5-8.3,8.2-8.3c3,0,4.9,1.3,6.4,2.8l-1.6,1.7
						c-1.3-1.3-2.7-2.4-4.8-2.4c-3.2,0-5.7,2.7-5.7,6.2c0,3.5,2.5,6.2,5.8,6.2c2,0,3.6-1,4.9-2.4l1.5,1.4
						C536.7,68.9,534.8,70.2,531.8,70.2z"/>
					<path class="st2" d="M542.3,50.4v-2.6h2.7v2.6H542.3z M542.4,69.8V53.9h2.4v15.9H542.4z"/>
					<path class="st2" d="M555.6,70.1c-2.3,0-4.8-0.9-6.6-2.3l1.2-1.7c1.7,1.3,3.6,2,5.5,2c1.9,0,3.3-1,3.3-2.5v-0.1
						c0-1.6-1.9-2.2-4-2.8c-2.5-0.7-5.3-1.6-5.3-4.5v-0.1c0-2.7,2.3-4.6,5.4-4.6c1.9,0,4.1,0.7,5.7,1.8l-1.1,1.8
						c-1.5-1-3.2-1.5-4.7-1.5c-1.9,0-3.1,1-3.1,2.3V58c0,1.5,2,2.1,4.1,2.7c2.5,0.7,5.1,1.7,5.1,4.6v0.1
						C561.2,68.4,558.7,70.1,555.6,70.1z"/>
					<path class="st2" d="M565.7,50.4v-2.6h2.7v2.6H565.7z M565.8,69.8V53.9h2.4v15.9H565.8z"/>
					<path class="st2" d="M581,70.2c-4.8,0-8.2-3.8-8.2-8.3c0-4.5,3.5-8.3,8.3-8.3c4.8,0,8.3,3.8,8.3,8.3
						C589.3,66.4,585.8,70.2,581,70.2z M581,55.6c-3.4,0-5.8,2.7-5.8,6.2c0,3.4,2.5,6.2,5.9,6.2c3.4,0,5.8-2.7,5.8-6.2
						C586.9,58.4,584.3,55.6,581,55.6z"/>
					<path class="st2" d="M596,69.8h-2.4V53.9h2.4v2.8c1-1.7,2.7-3.1,5.4-3.1c3.8,0,6.1,2.6,6.1,6.4v9.9h-2.4v-9.3
						c0-3-1.6-4.8-4.4-4.8c-2.7,0-4.8,2-4.8,5V69.8z"/>
					<path class="st2" d="M484.8,100.8h-0.1l-7.8-11.5v17.4h-2.4V85.2h2.5l7.8,11.8l7.8-11.8h2.5v21.5h-2.4V89.3L484.8,100.8z"/>
					<path class="st2" d="M507.8,105c2.2,0,3.7-0.9,5-2.2l1.5,1.3c-1.6,1.8-3.5,3-6.6,3c-4.4,0-7.9-3.4-7.9-8.3
						c0-4.6,3.2-8.3,7.6-8.3c4.7,0,7.4,3.8,7.4,8.4c0,0.2,0,0.5,0,0.7h-12.6C502.5,103.1,505,105,507.8,105z M512.4,97.9
						c-0.2-2.9-1.9-5.4-5.1-5.4c-2.8,0-4.9,2.3-5.2,5.4H512.4z"/>
					<path class="st2" d="M531.8,106.7v-3.2c-1.3,1.9-3.2,3.5-6.1,3.5c-3.8,0-7.6-3-7.6-8.3c0-5.2,3.8-8.3,7.6-8.3
						c3,0,4.9,1.6,6.1,3.4v-9.6h2.4v22.5H531.8z M526.1,92.6c-3.1,0-5.6,2.3-5.6,6.2c0,3.8,2.6,6.2,5.6,6.2c3,0,5.8-2.5,5.8-6.2
						C531.9,95.1,529.1,92.6,526.1,92.6z"/>
					<path class="st2" d="M539.5,87.4v-2.6h2.7v2.6H539.5z M539.6,106.7V90.8h2.4v15.9H539.6z"/>
					<path class="st2" d="M554.7,107.1c-4.6,0-8.2-3.8-8.2-8.3c0-4.5,3.5-8.3,8.2-8.3c3,0,4.9,1.3,6.4,2.8l-1.6,1.7
						c-1.3-1.3-2.7-2.4-4.8-2.4c-3.2,0-5.7,2.7-5.7,6.2c0,3.5,2.5,6.2,5.8,6.2c2,0,3.6-1,4.9-2.4l1.5,1.4
						C559.6,105.8,557.7,107.1,554.7,107.1z"/>
					<path class="st2" d="M565.2,87.4v-2.6h2.7v2.6H565.2z M565.3,106.7V90.8h2.4v15.9H565.3z"/>
					<path class="st2" d="M575.6,106.7h-2.4V90.8h2.4v2.8c1-1.7,2.7-3.1,5.4-3.1c3.8,0,6.1,2.6,6.1,6.4v9.9h-2.4v-9.3
						c0-3-1.6-4.8-4.4-4.8c-2.7,0-4.8,2-4.8,5V106.7z"/>
					<path class="st2" d="M599.2,105c2.2,0,3.7-0.9,5-2.2l1.5,1.3c-1.6,1.8-3.5,3-6.6,3c-4.4,0-7.9-3.4-7.9-8.3
						c0-4.6,3.2-8.3,7.6-8.3c4.7,0,7.4,3.8,7.4,8.4c0,0.2,0,0.5,0,0.7h-12.6C593.9,103.1,596.4,105,599.2,105z M603.8,97.9
						c-0.2-2.9-1.9-5.4-5.1-5.4c-2.8,0-4.9,2.3-5.2,5.4H603.8z"/>
					<path class="st2" d="M477.1,122.1v21.5h-2.4v-21.5H477.1z"/>
					<path class="st2" d="M485.4,143.7H483v-15.9h2.4v2.8c1-1.7,2.7-3.1,5.4-3.1c3.8,0,6.1,2.6,6.1,6.4v9.9h-2.4v-9.3
						c0-3-1.6-4.8-4.4-4.8c-2.7,0-4.8,2-4.8,5V143.7z"/>
					<path class="st2" d="M502,124.3v-2.6h2.7v2.6H502z M502.2,143.7v-15.9h2.4v15.9H502.2z"/>
					<path class="st2" d="M513.3,139.2c0,1.9,1.1,2.6,2.7,2.6c0.8,0,1.5-0.2,2.3-0.6v2c-0.8,0.4-1.7,0.7-2.9,0.7
						c-2.6,0-4.5-1.3-4.5-4.5v-9.6h-2.2v-2.1h2.2V123h2.4v4.8h5v2.1h-5V139.2z"/>
					<path class="st2" d="M522.6,124.3v-2.6h2.7v2.6H522.6z M522.7,143.7v-15.9h2.4v15.9H522.7z"/>
					<path class="st2" d="M531.5,130.8l-0.7-1.9c1.8-0.8,3.5-1.3,5.8-1.3c4.3,0,6.8,2.2,6.8,6.4v9.7h-2.3v-2.4
						c-1.1,1.4-3,2.7-5.8,2.7c-3,0-5.9-1.7-5.9-5c0-3.4,2.8-5.2,6.8-5.2c2,0,3.5,0.3,4.9,0.7V134c0-2.9-1.8-4.3-4.7-4.3
						C534.5,129.7,533,130.1,531.5,130.8z M531.8,138.9c0,2,1.8,3.2,4,3.2c2.9,0,5.3-1.8,5.3-4.3v-1.5c-1.2-0.3-2.7-0.7-4.7-0.7
						C533.5,135.6,531.8,136.9,531.8,138.9z"/>
					<path class="st2" d="M551.5,139.2c0,1.9,1.1,2.6,2.7,2.6c0.8,0,1.5-0.2,2.3-0.6v2c-0.8,0.4-1.7,0.7-2.9,0.7
						c-2.6,0-4.5-1.3-4.5-4.5v-9.6h-2.2v-2.1h2.2V123h2.4v4.8h5v2.1h-5V139.2z"/>
					<path class="st2" d="M560.8,124.3v-2.6h2.7v2.6H560.8z M560.9,143.7v-15.9h2.4v15.9H560.9z"/>
					<path class="st2" d="M580.6,127.8h2.6l-6.9,16h-2.1l-6.9-16h2.6l5.4,13.2L580.6,127.8z"/>
					<path class="st2" d="M593,142c2.2,0,3.7-0.9,5-2.2l1.5,1.3c-1.6,1.8-3.5,3-6.6,3c-4.4,0-7.9-3.4-7.9-8.3c0-4.6,3.2-8.3,7.6-8.3
						c4.7,0,7.4,3.8,7.4,8.4c0,0.2,0,0.5,0,0.7h-12.6C587.7,140.1,590.2,142,593,142z M597.6,134.9c-0.2-2.9-1.9-5.4-5.1-5.4
						c-2.8,0-4.9,2.3-5.2,5.4H597.6z"/>
				</g>
			</g>
		</g>
		<g>
			<path class="st1" d="M10.2,119.4H22c3.8,0,6.5,1,8.1,2.7c1.5,1.4,2.2,3.4,2.2,5.8v0.1c0,3.8-2,6.4-5.1,7.7l6,8.7h-8l-5-7.6h-0.1
				h-3v7.6h-6.9V119.4z M21.7,131.4c2.4,0,3.7-1.1,3.7-3v-0.1c0-2-1.4-3-3.7-3h-4.5v6H21.7z"/>
			<path class="st1" d="M37.5,119.4h20.1v5.9H44.4v3.8h12v5.5h-12v4h13.4v5.9H37.5V119.4z"/>
			<path class="st1" d="M61.8,140.6l3.9-4.6c2.5,2,5.2,3,8.1,3c1.9,0,2.9-0.6,2.9-1.7v-0.1c0-1-0.8-1.6-4.2-2.4
				c-5.3-1.2-9.4-2.7-9.4-7.9v-0.1c0-4.6,3.7-8,9.7-8c4.2,0,7.6,1.1,10.3,3.3l-3.5,4.9c-2.3-1.6-4.8-2.5-7-2.5
				c-1.7,0-2.5,0.7-2.5,1.6v0.1c0,1.1,0.9,1.6,4.3,2.4c5.7,1.2,9.3,3.1,9.3,7.8v0.1c0,5.1-4,8.1-10.1,8.1
				C69.1,144.8,64.9,143.4,61.8,140.6z"/>
			<path class="st1" d="M88.7,119.4h20.1v5.9H95.5v3.8h12v5.5h-12v4H109v5.9H88.7V119.4z"/>
			<path class="st1" d="M122.8,119.2h6.7l10.6,25.2h-7.4l-1.8-4.5h-9.6l-1.8,4.5h-7.3L122.8,119.2z M128.9,134.5l-2.8-7.1l-2.8,7.1
				H128.9z"/>
			<path class="st1" d="M143.5,119.4h11.8c3.8,0,6.5,1,8.1,2.7c1.5,1.4,2.2,3.4,2.2,5.8v0.1c0,3.8-2,6.4-5.1,7.7l6,8.7h-8l-5-7.6
				h-0.1h-3v7.6h-6.9V119.4z M155,131.4c2.4,0,3.7-1.1,3.7-3v-0.1c0-2-1.4-3-3.7-3h-4.5v6H155z"/>
			<path class="st1" d="M169.3,131.9L169.3,131.9c0-7.4,5.6-13.1,13.2-13.1c5.1,0,8.4,2.1,10.6,5.2l-5.2,4c-1.4-1.8-3.1-2.9-5.5-2.9
				c-3.5,0-6,3-6,6.6v0.1c0,3.7,2.5,6.7,6,6.7c2.6,0,4.1-1.2,5.6-3l5.2,3.7c-2.4,3.2-5.5,5.6-11.1,5.6
				C175,144.9,169.3,139.4,169.3,131.9z"/>
			<path class="st1" d="M197.1,119.4h6.9v9.4h8.9v-9.4h6.9v25h-6.9v-9.5H204v9.5h-6.9V119.4z"/>
			<path class="st1" d="M237.5,119.4h10.7c6.3,0,10.4,3.2,10.4,8.8v0.1c0,5.9-4.5,9-10.7,9h-3.4v7.1h-6.9V119.4z M247.7,131.8
				c2.5,0,4-1.3,4-3.2v-0.1c0-2.1-1.5-3.3-4-3.3h-3.2v6.6H247.7z"/>
			<path class="st1" d="M262.5,119.4h11.8c3.8,0,6.5,1,8.1,2.7c1.5,1.4,2.2,3.4,2.2,5.8v0.1c0,3.8-2,6.4-5.1,7.7l6,8.7h-8l-5-7.6
				h-0.1h-3v7.6h-6.9V119.4z M274,131.4c2.4,0,3.7-1.1,3.7-3v-0.1c0-2-1.4-3-3.7-3h-4.5v6H274z"/>
			<path class="st1" d="M287.2,131.9L287.2,131.9c0-7.2,5.8-13.1,13.5-13.1c7.7,0,13.4,5.7,13.4,12.9v0.1c0,7.2-5.8,13-13.5,13
				C293,144.9,287.2,139.1,287.2,131.9z M307.1,131.9L307.1,131.9c0-3.7-2.6-6.8-6.4-6.8c-3.8,0-6.3,3.1-6.3,6.7v0.1
				c0,3.6,2.6,6.7,6.4,6.7C304.6,138.6,307.1,135.5,307.1,131.9z"/>
			<path class="st1" d="M317.2,131.9L317.2,131.9c0-7.4,5.7-13.1,13.5-13.1c4.4,0,7.5,1.4,10.1,3.6l-4.1,4.9c-1.8-1.5-3.6-2.4-6-2.4
				c-3.6,0-6.4,3-6.4,6.9v0.1c0,4,2.8,6.9,6.8,6.9c1.7,0,3-0.4,4-1v-3h-4.9v-5.1h11.5V141c-2.6,2.2-6.3,3.9-10.8,3.9
				C323,144.9,317.2,139.5,317.2,131.9z"/>
			<path class="st1" d="M347.1,119.4h11.8c3.8,0,6.5,1,8.1,2.7c1.5,1.4,2.2,3.4,2.2,5.8v0.1c0,3.8-2,6.4-5.1,7.7l6,8.7h-8l-5-7.6
				H357h-3v7.6h-6.9V119.4z M358.6,131.4c2.4,0,3.7-1.1,3.7-3v-0.1c0-2-1.4-3-3.7-3h-4.5v6H358.6z"/>
			<path class="st1" d="M382.4,119.2h6.7l10.6,25.2h-7.4l-1.8-4.5h-9.6l-1.8,4.5h-7.3L382.4,119.2z M388.4,134.5l-2.8-7.1l-2.8,7.1
				H388.4z"/>
			<path class="st1" d="M402.1,119.4h7.3l6,9.7l6-9.7h7.3v25h-6.9V130l-6.4,9.8h-0.1l-6.4-9.7v14.3h-6.8V119.4z"/>
		</g>
	</g>
</g>
<g>
	<defs>
		<path id="SVGID_1_" d="M602.4,199.2h-14v12.3h-5.1v-29.2h5.1v12.2h14v-12.2h5.1v29.2h-5.1V199.2z M577.9,206.8
			c-3,3.2-6.4,5.2-11.9,5.2c-8.5,0-14.9-6.6-14.9-15.1c0-8.4,6.2-15.2,15.1-15.2c5.4,0,8.6,1.9,11.4,4.6l-3.3,3.8
			c-2.3-2.2-4.8-3.6-8.2-3.6c-5.6,0-9.6,4.6-9.6,10.4c0,5.8,4.1,10.4,9.6,10.4c3.6,0,5.9-1.5,8.4-3.8L577.9,206.8z M539.9,202.5
			v-20.2h5.1v29.2h-4.3l-16.1-20.8v20.8h-5.1v-29.2h4.8L539.9,202.5z M513.1,182.3v4.6h-16.5v7.6h14.7v4.6h-14.7v7.9h16.7v4.6h-21.9
			v-29.2H513.1z M474.9,207c3.5,0,5.6-1.4,5.6-4.1c0-2.5-2-4-6-4h-8.1v8H474.9z M473.4,194.6c3.3,0,5.5-1.3,5.5-4
			c0-2.4-1.8-3.8-5.1-3.8h-7.4v7.8H473.4z M474.4,182.3c5.9,0,9.6,2.9,9.6,7.5c0,3.6-2,5.4-4.2,6.6c3.4,1.2,5.8,3.1,5.8,7.1
			c0,5.3-4.3,8.1-10.8,8.1h-13.5v-29.2H474.4z M444.2,194.9l12.7,16.7h-6.2l-10-13.2l-4.6,4.7v8.5H431v-29.2h5.1V197l13.9-14.7h6.3
			L444.2,194.9z M419.5,191.9c0-3.2-2.3-4.9-6.1-4.9H406v9.8h7.5C417.2,196.8,419.5,194.9,419.5,191.9z M425.6,211.5h-6.1l-7.2-10.2
			H406v10.2h-5.1v-29.2h13c6.7,0,10.9,3.6,10.9,9.3c0,4.8-2.9,7.8-7,8.9L425.6,211.5z M389.2,196.9c0-5.7-4.1-10.4-9.9-10.4
			s-9.9,4.6-9.9,10.4s4.1,10.4,9.9,10.4S389.2,202.7,389.2,196.9z M394.6,196.9c0,8.3-6.3,15.2-15.3,15.2s-15.2-6.8-15.2-15.1
			c0-8.3,6.3-15.2,15.3-15.2S394.6,188.6,394.6,196.9z M329,204l7.2-21.8h4.3l7.2,21.8l7-21.7h5.4l-10.2,29.4h-4.4l-7.2-21l-7.2,21
			h-4.4l-10.2-29.4h5.6L329,204z"/>
	</defs>
	<clipPath id="SVGID_2_">
		<use xlink:href="#SVGID_1_"  style="overflow:visible;"/>
	</clipPath>
	<g class="st3">
		<defs>
			<rect id="SVGID_3_" x="99.8" y="78.5" width="591.2" height="591.2"/>
		</defs>
		<clipPath id="SVGID_4_">
			<use xlink:href="#SVGID_3_"  style="overflow:visible;"/>
		</clipPath>
		<rect x="308.1" y="173.4" class="st4" width="307.8" height="46.9"/>
	</g>
</g>
<g>
	<defs>
		<path id="SVGID_5_" d="M293.9,192.4L293.9,192.4c0-2.8-1.9-4.3-5.1-4.3h-6.4v8.4h6.5C292.1,196.5,293.9,194.8,293.9,192.4z
			 M301.3,211.5h-7.5l-6.3-9.4h-5.1v9.4H276v-29.2h13.4c6.9,0,11,3.6,11,9.6v0.1c0,4.7-2.5,7.7-6.3,9.1L301.3,211.5z M270.3,211.5
			H248v-29.2h22.1v5.7h-15.7v5.9h13.8v5.7h-13.8v6.1h15.9V211.5z M241,211.5h-6.4v-11.7h-11.9v11.7h-6.4v-29.2h6.4v11.6h11.9v-11.6
			h6.4V211.5z M211.1,206.8c-3,3.2-6.3,5.2-12,5.2c-8.6,0-15-6.6-15-15v-0.1c0-8.3,6.3-15.1,15.2-15.1c5.5,0,8.8,1.8,11.5,4.5
			l-4.1,4.7c-2.3-2-4.6-3.3-7.5-3.3c-4.9,0-8.5,4.1-8.5,9.1v0.1c0,5,3.5,9.2,8.5,9.2c3.3,0,5.4-1.3,7.7-3.4L211.1,206.8z
			 M173.1,192.4L173.1,192.4c0-2.8-1.9-4.3-5.1-4.3h-6.4v8.4h6.5C171.3,196.5,173.1,194.8,173.1,192.4z M180.5,211.5H173l-6.3-9.4
			h-5.1v9.4h-6.4v-29.2h13.4c6.9,0,11,3.6,11,9.6v0.1c0,4.7-2.5,7.7-6.3,9.1L180.5,211.5z M139.1,199.3l-3.9-9.5l-3.9,9.5H139.1z
			 M150.7,211.5H144l-2.7-6.6H129l-2.7,6.6h-6.6l12.5-29.4h5.9L150.7,211.5z M116.5,211.5H94.3v-29.2h22.1v5.7h-15.7v5.9h13.8v5.7
			h-13.8v6.1h15.9V211.5z M88.7,202.9c0,5.8-4.4,9.1-10.7,9.1c-4.4,0-8.9-1.5-12.4-4.7l3.8-4.6c2.6,2.2,5.4,3.6,8.7,3.6
			c2.6,0,4.2-1,4.2-2.8v-0.1c0-1.6-1-2.5-5.9-3.7c-5.9-1.5-9.7-3.1-9.7-8.9v-0.1c0-5.3,4.3-8.8,10.2-8.8c4.3,0,7.9,1.3,10.9,3.7
			l-3.3,4.8c-2.6-1.8-5.1-2.9-7.6-2.9c-2.5,0-3.8,1.1-3.8,2.5v0.1c0,1.9,1.3,2.5,6.3,3.8C85.3,195.6,88.7,197.7,88.7,202.9
			L88.7,202.9z M61.8,211.5H39.6v-29.2h22.1v5.7H45.9v5.9h13.8v5.7H45.9v6.1h15.9V211.5z M27.2,192.4L27.2,192.4
			c0-2.8-1.9-4.3-5.1-4.3h-6.4v8.4h6.5C25.4,196.5,27.2,194.8,27.2,192.4z M34.6,211.5h-7.5l-6.3-9.4h-5.1v9.4H9.4v-29.2h13.4
			c6.9,0,11,3.6,11,9.6v0.1c0,4.7-2.5,7.7-6.3,9.1L34.6,211.5z"/>
	</defs>
	<clipPath id="SVGID_6_">
		<use xlink:href="#SVGID_5_"  style="overflow:visible;"/>
	</clipPath>
	<g class="st5">
		<defs>
			<rect id="SVGID_7_" x="-209.2" y="115.6" width="591.2" height="591.2"/>
		</defs>
		<clipPath id="SVGID_8_">
			<use xlink:href="#SVGID_7_"  style="overflow:visible;"/>
		</clipPath>
		<rect x="1" y="173.4" class="st6" width="308.6" height="46.9"/>
	</g>
</g>
<g>
	<line class="st7" x1="10.2" y1="163.9" x2="607.5" y2="163.9"/>
</g>
</svg>
