<?xml version="1.0" encoding="utf-8"?>
<!-- Generator: Adobe Illustrator 21.0.2, SVG Export Plug-In . SVG Version: 6.00 Build 0)  -->
<svg version="1.1" id="Layer_1" xmlns="http://www.w3.org/2000/svg" xmlns:xlink="http://www.w3.org/1999/xlink" x="0px" y="0px"
	 viewBox="0 0 605 140.2" style="enable-background:new 0 0 605 140.2;" xml:space="preserve">
<style type="text/css">
	.st0{fill:#5EAEE0;}
	.st1{fill:#282560;}
	.st2{fill:#909294;}
</style>
<g>
	<g>
		<g>
			<g>
				<g>
					<path class="st0" d="M185,61.3c0-2.6,0.8-5.4,2.3-8.3c1.5-3,3.9-5.4,7.1-7.4c3.2-2,7.1-3,11.6-3c5.5,0,9.6,1.3,12.2,4
						c2.6,2.6,3.9,5.8,3.9,9.6c0,5.2-2,9.6-6,13.4c-4,3.8-9.1,5.7-15.3,5.7c-4.5,0-8.3-1.1-11.3-3.4C186.5,69.5,185,66,185,61.3
						 M195.8,65.1c0,2.2,0.4,3.8,1.2,4.9c0.8,1.1,2.1,1.6,3.7,1.6c3.1,0,5.5-2.3,7.5-6.9c1.9-4.6,2.9-8.5,2.9-11.7
						c0-2.4-0.5-4.2-1.4-5.2c-0.9-1.1-2-1.6-3.2-1.6c-3.3,0-5.9,2.4-7.8,7.2C196.8,58.3,195.8,62.1,195.8,65.1"/>
					<path class="st0" d="M241.7,47.9L238,64.5c-2.1,9.6-5,16.7-8.6,21.4c-3.6,4.7-8.4,7.1-14.5,7.1c-2.9,0-5-0.6-6.4-1.7
						c-1.3-1.1-2-2.5-2-4c0-1.4,0.5-2.6,1.6-3.6c1-1,2.3-1.5,3.6-1.5c2.9,0,4.5,1.5,5,4.6c0.2,1.6,0.9,2.3,2,2.3
						c1.2,0,2.2-1,3.2-3.1c0.9-2.1,2.1-6.2,3.5-12.5l1.1-5.4c0.3-1.3,0.6-2.3,0.7-3l3.7-17.2h-4.8l1.3-4.1h4.4
						c2.3-8.4,5-14,8.1-16.8c3.1-2.7,6.8-4.1,11.1-4.1c2.9,0,5.2,0.6,7,1.7c1.8,1.1,2.7,2.6,2.7,4.4c0,1.2-0.4,2.3-1.3,3.2
						c-0.9,0.9-2,1.4-3.3,1.4c-1.9,0-3.6-1.4-5-4.1c-1-2-2.1-3.1-3.1-3.1c-1.2,0-2.2,1.6-2.8,4.9l-2.4,12.4h5.5l-1.3,4.1H241.7z"/>
				</g>
				<g>
					<path class="st1" d="M39.1,5.4h29L105,93.5H73.2l-4.6-11.8H38l-4.5,11.8H2.2L39.1,5.4z M61.4,61l-8-21.3l-8,21.3H61.4z"/>
					<rect x="108.7" y="2.2" class="st1" width="28.4" height="91.3"/>
					<rect x="149.9" y="2.2" class="st1" width="28.4" height="91.3"/>
				</g>
				<g>
					<path class="st1" d="M265.8,54.3V6h29.8v47.9c0,10.9,5.6,15.5,13.5,15.5c7.9,0,13.5-4.3,13.5-14.9V6h29.8v47.6
						c0,29.9-17.4,41.6-43.5,41.6C282.7,95.3,265.8,83.3,265.8,54.3"/>
					<path class="st1" d="M356,85.3l9.6-16.1c8.3,5.1,17.5,7.6,25.3,7.6c2.8,0,4.1-0.6,4.1-2.3v-0.2c0-1.4-1.2-2.3-8.1-4
						c-17.3-4.3-27.9-8.9-27.9-23V47c0-15,12-23.4,29.8-23.4c11.3,0,22.4,2.9,30.6,7.9l-9,16.9c-7.3-4-16-6.4-21.8-6.4
						c-2.8,0-4,0.8-4,2.1v0.3c0,1.4,1.5,2.3,8.4,4c17.3,4.3,27.6,9,27.6,23v0.3c0,14.9-11.1,23.5-29.6,23.5
						C377.7,95.1,365.7,91.8,356,85.3"/>
				</g>
			</g>
			<rect x="445" y="2.9" class="st2" width="1.5" height="133.3"/>
			<g>
				<path class="st2" d="M474.6,24.9h-2.5V5.6h-7.2V3.3h16.9v2.2h-7.2V24.9z"/>
				<path class="st2" d="M487.9,24.9h-2.4V2.4h2.4v9.3c1-1.7,2.7-3.1,5.4-3.1c3.8,0,6.1,2.6,6.1,6.4v9.9h-2.4v-9.3
					c0-3-1.6-4.8-4.4-4.8c-2.7,0-4.8,2-4.8,5V24.9z"/>
				<path class="st2" d="M511.5,23.2c2.2,0,3.7-0.9,5-2.2l1.5,1.3c-1.6,1.8-3.5,3-6.6,3c-4.4,0-7.9-3.4-7.9-8.3
					c0-4.6,3.2-8.3,7.6-8.3c4.7,0,7.4,3.8,7.4,8.4c0,0.2,0,0.5,0,0.7h-12.6C506.3,21.2,508.7,23.2,511.5,23.2z M516.2,16
					c-0.2-2.9-1.9-5.4-5.1-5.4c-2.8,0-4.9,2.3-5.2,5.4H516.2z"/>
				<path class="st2" d="M474.1,54.2h-5.2v7.6h-2.4V40.3h8.1c4.9,0,8.1,2.6,8.1,6.9C482.6,51.8,478.7,54.2,474.1,54.2z M474.3,42.5
					h-5.4V52h5.3c3.6,0,5.9-1.9,5.9-4.8C480.1,44.1,477.8,42.5,474.3,42.5z"/>
				<path class="st2" d="M489,61.8h-2.4V45.9h2.4V50c1.2-2.6,3.5-4.6,6.5-4.4v2.6h-0.2c-3.5,0-6.3,2.5-6.3,7.3V61.8z"/>
				<path class="st2" d="M505.4,60.1c2.2,0,3.7-0.9,5-2.2l1.5,1.3c-1.6,1.8-3.5,3-6.6,3c-4.4,0-7.9-3.4-7.9-8.3
					c0-4.6,3.2-8.3,7.6-8.3c4.7,0,7.4,3.8,7.4,8.4c0,0.2,0,0.5,0,0.7h-12.6C500.2,58.2,502.6,60.1,505.4,60.1z M510.1,53
					c-0.2-2.9-1.9-5.4-5.1-5.4c-2.8,0-4.9,2.3-5.2,5.4H510.1z"/>
				<path class="st2" d="M523.8,62.2c-4.6,0-8.2-3.8-8.2-8.3c0-4.5,3.5-8.3,8.2-8.3c3,0,4.9,1.3,6.4,2.8l-1.6,1.7
					c-1.3-1.3-2.7-2.4-4.8-2.4c-3.2,0-5.7,2.7-5.7,6.2c0,3.5,2.5,6.2,5.8,6.2c2,0,3.6-1,4.9-2.4l1.5,1.4
					C528.7,60.9,526.8,62.2,523.8,62.2z"/>
				<path class="st2" d="M534.3,42.4v-2.6h2.7v2.6H534.3z M534.4,61.8V45.9h2.4v15.9H534.4z"/>
				<path class="st2" d="M547.6,62.1c-2.3,0-4.8-0.9-6.6-2.3l1.2-1.7c1.7,1.3,3.6,2,5.5,2c1.9,0,3.3-1,3.3-2.5v-0.1
					c0-1.6-1.9-2.2-4-2.8c-2.5-0.7-5.3-1.6-5.3-4.5v-0.1c0-2.7,2.3-4.6,5.4-4.6c1.9,0,4.1,0.7,5.7,1.8l-1.1,1.8
					c-1.5-1-3.2-1.5-4.7-1.5c-1.9,0-3.1,1-3.1,2.3V50c0,1.5,2,2.1,4.1,2.7c2.5,0.7,5.1,1.7,5.1,4.6v0.1
					C553.2,60.4,550.7,62.1,547.6,62.1z"/>
				<path class="st2" d="M557.7,42.4v-2.6h2.7v2.6H557.7z M557.8,61.8V45.9h2.4v15.9H557.8z"/>
				<path class="st2" d="M573,62.2c-4.8,0-8.2-3.8-8.2-8.3c0-4.5,3.5-8.3,8.3-8.3c4.8,0,8.3,3.8,8.3,8.3
					C581.3,58.4,577.8,62.2,573,62.2z M573,47.6c-3.4,0-5.8,2.7-5.8,6.2c0,3.4,2.5,6.2,5.9,6.2c3.4,0,5.8-2.7,5.8-6.2
					C578.9,50.4,576.3,47.6,573,47.6z"/>
				<path class="st2" d="M588,61.8h-2.4V45.9h2.4v2.8c1-1.7,2.7-3.1,5.4-3.1c3.8,0,6.1,2.6,6.1,6.4v9.9h-2.4v-9.3
					c0-3-1.6-4.8-4.4-4.8c-2.7,0-4.8,2-4.8,5V61.8z"/>
				<path class="st2" d="M476.8,92.8h-0.1l-7.8-11.5v17.4h-2.4V77.2h2.5l7.8,11.8l7.8-11.8h2.5v21.5h-2.4V81.3L476.8,92.8z"/>
				<path class="st2" d="M499.8,97c2.2,0,3.7-0.9,5-2.2l1.5,1.3c-1.6,1.8-3.5,3-6.6,3c-4.4,0-7.9-3.4-7.9-8.3c0-4.6,3.2-8.3,7.6-8.3
					c4.7,0,7.4,3.8,7.4,8.4c0,0.2,0,0.5,0,0.7h-12.6C494.5,95.1,497,97,499.8,97z M504.4,89.9c-0.2-2.9-1.9-5.4-5.1-5.4
					c-2.8,0-4.9,2.3-5.2,5.4H504.4z"/>
				<path class="st2" d="M523.8,98.7v-3.2c-1.3,1.9-3.2,3.5-6.1,3.5c-3.8,0-7.6-3-7.6-8.3c0-5.2,3.8-8.3,7.6-8.3
					c3,0,4.9,1.6,6.1,3.4v-9.6h2.4v22.5H523.8z M518.1,84.6c-3.1,0-5.6,2.3-5.6,6.2c0,3.8,2.6,6.2,5.6,6.2c3,0,5.8-2.5,5.8-6.2
					C523.9,87.1,521.1,84.6,518.1,84.6z"/>
				<path class="st2" d="M531.5,79.4v-2.6h2.7v2.6H531.5z M531.6,98.7V82.8h2.4v15.9H531.6z"/>
				<path class="st2" d="M546.7,99.1c-4.6,0-8.2-3.8-8.2-8.3c0-4.5,3.5-8.3,8.2-8.3c3,0,4.9,1.3,6.4,2.8l-1.6,1.7
					c-1.3-1.3-2.7-2.4-4.8-2.4c-3.2,0-5.7,2.7-5.7,6.2c0,3.5,2.5,6.2,5.8,6.2c2,0,3.6-1,4.9-2.4l1.5,1.4
					C551.6,97.8,549.7,99.1,546.7,99.1z"/>
				<path class="st2" d="M557.2,79.4v-2.6h2.7v2.6H557.2z M557.3,98.7V82.8h2.4v15.9H557.3z"/>
				<path class="st2" d="M567.6,98.7h-2.4V82.8h2.4v2.8c1-1.7,2.7-3.1,5.4-3.1c3.8,0,6.1,2.6,6.1,6.4v9.9h-2.4v-9.3
					c0-3-1.6-4.8-4.4-4.8c-2.7,0-4.8,2-4.8,5V98.7z"/>
				<path class="st2" d="M591.2,97c2.2,0,3.7-0.9,5-2.2l1.5,1.3c-1.6,1.8-3.5,3-6.6,3c-4.4,0-7.9-3.4-7.9-8.3c0-4.6,3.2-8.3,7.6-8.3
					c4.7,0,7.4,3.8,7.4,8.4c0,0.2,0,0.5,0,0.7h-12.6C585.9,95.1,588.4,97,591.2,97z M595.8,89.9c-0.2-2.9-1.9-5.4-5.1-5.4
					c-2.8,0-4.9,2.3-5.2,5.4H595.8z"/>
				<path class="st2" d="M469.1,114.1v21.5h-2.4v-21.5H469.1z"/>
				<path class="st2" d="M477.4,135.7H475v-15.9h2.4v2.8c1-1.7,2.7-3.1,5.4-3.1c3.8,0,6.1,2.6,6.1,6.4v9.9h-2.4v-9.3
					c0-3-1.6-4.8-4.4-4.8c-2.7,0-4.8,2-4.8,5V135.7z"/>
				<path class="st2" d="M494,116.3v-2.6h2.7v2.6H494z M494.2,135.7v-15.9h2.4v15.9H494.2z"/>
				<path class="st2" d="M505.3,131.2c0,1.9,1.1,2.6,2.7,2.6c0.8,0,1.5-0.2,2.3-0.6v2c-0.8,0.4-1.7,0.7-2.9,0.7
					c-2.6,0-4.5-1.3-4.5-4.5v-9.6h-2.2v-2.1h2.2V115h2.4v4.8h5v2.1h-5V131.2z"/>
				<path class="st2" d="M514.6,116.3v-2.6h2.7v2.6H514.6z M514.7,135.7v-15.9h2.4v15.9H514.7z"/>
				<path class="st2" d="M523.5,122.8l-0.7-1.9c1.8-0.8,3.5-1.3,5.8-1.3c4.3,0,6.8,2.2,6.8,6.4v9.7h-2.3v-2.4
					c-1.1,1.4-3,2.7-5.8,2.7c-3,0-5.9-1.7-5.9-5c0-3.4,2.8-5.2,6.8-5.2c2,0,3.5,0.3,4.9,0.7V126c0-2.9-1.8-4.3-4.7-4.3
					C526.5,121.7,525,122.1,523.5,122.8z M523.8,130.9c0,2,1.8,3.2,4,3.2c2.9,0,5.3-1.8,5.3-4.3v-1.5c-1.2-0.3-2.7-0.7-4.7-0.7
					C525.5,127.6,523.8,128.9,523.8,130.9z"/>
				<path class="st2" d="M543.5,131.2c0,1.9,1.1,2.6,2.7,2.6c0.8,0,1.5-0.2,2.3-0.6v2c-0.8,0.4-1.7,0.7-2.9,0.7
					c-2.6,0-4.5-1.3-4.5-4.5v-9.6h-2.2v-2.1h2.2V115h2.4v4.8h5v2.1h-5V131.2z"/>
				<path class="st2" d="M552.8,116.3v-2.6h2.7v2.6H552.8z M552.9,135.7v-15.9h2.4v15.9H552.9z"/>
				<path class="st2" d="M572.6,119.8h2.6l-6.9,16h-2.1l-6.9-16h2.6l5.4,13.2L572.6,119.8z"/>
				<path class="st2" d="M585,134c2.2,0,3.7-0.9,5-2.2l1.5,1.3c-1.6,1.8-3.5,3-6.6,3c-4.4,0-7.9-3.4-7.9-8.3c0-4.6,3.2-8.3,7.6-8.3
					c4.7,0,7.4,3.8,7.4,8.4c0,0.2,0,0.5,0,0.7h-12.6C579.7,132.1,582.2,134,585,134z M589.6,126.9c-0.2-2.9-1.9-5.4-5.1-5.4
					c-2.8,0-4.9,2.3-5.2,5.4H589.6z"/>
			</g>
		</g>
	</g>
	<g>
		<path class="st1" d="M2.2,111.4H14c3.8,0,6.5,1,8.1,2.7c1.5,1.4,2.2,3.4,2.2,5.8v0.1c0,3.8-2,6.4-5.1,7.7l6,8.7h-8l-5-7.6h-0.1h-3
			v7.6H2.2V111.4z M13.7,123.4c2.4,0,3.7-1.1,3.7-3v-0.1c0-2-1.4-3-3.7-3H9.1v6H13.7z"/>
		<path class="st1" d="M29.5,111.4h20.1v5.9H36.4v3.8h12v5.5h-12v4h13.4v5.9H29.5V111.4z"/>
		<path class="st1" d="M53.8,132.6l3.9-4.6c2.5,2,5.2,3,8.1,3c1.9,0,2.9-0.6,2.9-1.7v-0.1c0-1-0.8-1.6-4.2-2.4
			c-5.3-1.2-9.4-2.7-9.4-7.9v-0.1c0-4.6,3.7-8,9.7-8c4.2,0,7.6,1.1,10.3,3.3l-3.5,4.9c-2.3-1.6-4.8-2.5-7-2.5
			c-1.7,0-2.5,0.7-2.5,1.6v0.1c0,1.1,0.9,1.6,4.3,2.4c5.7,1.2,9.3,3.1,9.3,7.8v0.1c0,5.1-4,8.1-10.1,8.1
			C61.1,136.8,56.9,135.4,53.8,132.6z"/>
		<path class="st1" d="M80.7,111.4h20.1v5.9H87.5v3.8h12v5.5h-12v4H101v5.9H80.7V111.4z"/>
		<path class="st1" d="M114.8,111.2h6.7l10.6,25.2h-7.4l-1.8-4.5h-9.6l-1.8,4.5h-7.3L114.8,111.2z M120.9,126.5l-2.8-7.1l-2.8,7.1
			H120.9z"/>
		<path class="st1" d="M135.5,111.4h11.8c3.8,0,6.5,1,8.1,2.7c1.5,1.4,2.2,3.4,2.2,5.8v0.1c0,3.8-2,6.4-5.1,7.7l6,8.7h-8l-5-7.6
			h-0.1h-3v7.6h-6.9V111.4z M147,123.4c2.4,0,3.7-1.1,3.7-3v-0.1c0-2-1.4-3-3.7-3h-4.5v6H147z"/>
		<path class="st1" d="M161.3,123.9L161.3,123.9c0-7.4,5.6-13.1,13.2-13.1c5.1,0,8.4,2.1,10.6,5.2l-5.2,4c-1.4-1.8-3.1-2.9-5.5-2.9
			c-3.5,0-6,3-6,6.6v0.1c0,3.7,2.5,6.7,6,6.7c2.6,0,4.1-1.2,5.6-3l5.2,3.7c-2.4,3.2-5.5,5.6-11.1,5.6
			C167,136.9,161.3,131.4,161.3,123.9z"/>
		<path class="st1" d="M189.1,111.4h6.9v9.3h8.9v-9.3h6.9v25h-6.9v-9.5H196v9.5h-6.9V111.4z"/>
		<path class="st1" d="M229.5,111.4h10.7c6.3,0,10.4,3.2,10.4,8.8v0.1c0,5.9-4.5,9-10.7,9h-3.4v7.1h-6.9V111.4z M239.7,123.8
			c2.5,0,4-1.3,4-3.2v-0.1c0-2.1-1.5-3.3-4-3.3h-3.2v6.6H239.7z"/>
		<path class="st1" d="M254.5,111.4h11.8c3.8,0,6.5,1,8.1,2.7c1.5,1.4,2.2,3.4,2.2,5.8v0.1c0,3.8-2,6.4-5.1,7.7l6,8.7h-8l-5-7.6
			h-0.1h-3v7.6h-6.9V111.4z M266,123.4c2.4,0,3.7-1.1,3.7-3v-0.1c0-2-1.4-3-3.7-3h-4.5v6H266z"/>
		<path class="st1" d="M279.2,123.9L279.2,123.9c0-7.2,5.8-13.1,13.5-13.1c7.7,0,13.4,5.7,13.4,12.9v0.1c0,7.2-5.8,13-13.5,13
			C285,136.9,279.2,131.1,279.2,123.9z M299.1,123.9L299.1,123.9c0-3.7-2.6-6.8-6.4-6.8c-3.8,0-6.3,3.1-6.3,6.7v0.1
			c0,3.6,2.6,6.7,6.4,6.7C296.6,130.6,299.1,127.5,299.1,123.9z"/>
		<path class="st1" d="M309.2,123.9L309.2,123.9c0-7.4,5.7-13.1,13.5-13.1c4.4,0,7.5,1.4,10.1,3.6l-4.1,4.9c-1.8-1.5-3.6-2.4-6-2.4
			c-3.6,0-6.4,3-6.4,6.9v0.1c0,4,2.8,6.9,6.8,6.9c1.7,0,3-0.4,4-1v-3h-4.9v-5.1h11.5V133c-2.6,2.2-6.3,3.9-10.8,3.9
			C315,136.9,309.2,131.5,309.2,123.9z"/>
		<path class="st1" d="M339.1,111.4h11.8c3.8,0,6.5,1,8.1,2.7c1.5,1.4,2.2,3.4,2.2,5.8v0.1c0,3.8-2,6.4-5.1,7.7l6,8.7h-8l-5-7.6H349
			h-3v7.6h-6.9V111.4z M350.6,123.4c2.4,0,3.7-1.1,3.7-3v-0.1c0-2-1.4-3-3.7-3h-4.5v6H350.6z"/>
		<path class="st1" d="M374.4,111.2h6.7l10.6,25.2h-7.4l-1.8-4.5h-9.6l-1.8,4.5h-7.3L374.4,111.2z M380.4,126.5l-2.8-7.1l-2.8,7.1
			H380.4z"/>
		<path class="st1" d="M394.1,111.4h7.3l6,9.7l6-9.7h7.3v25h-6.9V122l-6.4,9.8h-0.1l-6.4-9.7v14.3h-6.8V111.4z"/>
	</g>
</g>
</svg>
