<?xml version="1.0" encoding="utf-8"?>
<!-- Generator: Adobe Illustrator 21.0.2, SVG Export Plug-In . SVG Version: 6.00 Build 0)  -->
<svg version="1.1" id="Layer_1" xmlns="http://www.w3.org/2000/svg" xmlns:xlink="http://www.w3.org/1999/xlink" x="0px" y="0px"
	 viewBox="0 0 607 126" style="enable-background:new 0 0 607 126;" xml:space="preserve">
<style type="text/css">
	.st0{fill:#262262;}
	.st1{fill:#5EAEE0;}
	.st2{fill:#919295;}
	.st3{fill:none;stroke:#919295;stroke-miterlimit:10;}
</style>
<g>
	<g>
		<g>
			<path class="st0" d="M38.4,3.6h29.7l37.8,90.3H73.4l-4.7-12H37.3l-4.6,12h-32L38.4,3.6z M61.2,60.6L53,38.8l-8.2,21.8H61.2z"/>
			<path class="st0" d="M109.1,0.4h29.1v93.5h-29.1V0.4z"/>
			<path class="st0" d="M150.8,0.4h29.1v93.5h-29.1V0.4z"/>
			<path class="st0" d="M267.3,53.7V4.2h30.5v49.1c0,11.1,5.8,15.9,13.8,15.9c8.1,0,13.8-4.4,13.8-15.3V4.2h30.5V53
				c0,30.6-17.8,42.7-44.6,42.7C284.6,95.7,267.3,83.4,267.3,53.7z"/>
			<path class="st0" d="M359.7,85.5l9.9-16.5c8.5,5.3,17.9,7.8,25.9,7.8c2.8,0,4.2-0.6,4.2-2.3v-0.3c0-1.4-1.3-2.3-8.3-4.1
				c-17.7-4.4-28.6-9.1-28.6-23.6v-0.3c0-15.4,12.3-24,30.5-24c11.5,0,22.9,2.9,31.4,8.1l-9.2,17.3c-7.4-4.1-16.4-6.5-22.3-6.5
				c-2.8,0-4.1,0.8-4.1,2.2v0.3c0,1.4,1.5,2.3,8.6,4.1c17.7,4.4,28.3,9.2,28.3,23.6v0.3c0,15.3-11.4,24.1-30.4,24.1
				C382,95.6,369.7,92.1,359.7,85.5z"/>
		</g>
		<g>
			<path class="st1" d="M185.9,60.9c0-2.6,0.8-5.5,2.3-8.5s4-5.5,7.3-7.5s7.2-3,11.7-3c5.6,0,9.8,1.3,12.4,4s4,5.9,4,9.7
				c0,5.2-2,9.8-6.1,13.6s-9.2,5.8-15.6,5.8c-4.6,0-8.4-1.2-11.5-3.5C187.4,69.2,185.9,65.7,185.9,60.9z M196.9,64.7
				c0,2.2,0.4,3.9,1.3,5c0.8,1.1,2.1,1.7,3.8,1.7c3.1,0,5.6-2.3,7.6-7s3-8.6,3-11.9c0-2.5-0.5-4.2-1.4-5.3s-2-1.7-3.3-1.7
				c-3.3,0-6,2.5-7.9,7.4C197.9,57.7,196.9,61.7,196.9,64.7z"/>
			<path class="st1" d="M243.9,47.2L240.1,64c-2.2,9.7-5.1,17-8.7,21.8s-8.5,7.2-14.8,7.2c-3,0-5.1-0.6-6.5-1.7s-2-2.5-2-4.1
				c0-1.5,0.5-2.7,1.6-3.7s2.3-1.5,3.7-1.5c2.9,0,4.6,1.6,5,4.7c0.2,1.6,0.9,2.4,2.1,2.4s2.2-1.1,3.2-3.2s2.1-6.4,3.5-12.7l1.2-5.5
				c0.4-1.3,0.6-2.3,0.8-3.1l3.8-17.4h-4.9l1.3-4.2h4.5c2.4-8.6,5.1-14.3,8.2-17c3.1-2.8,6.9-4.2,11.3-4.2c2.9,0,5.3,0.6,7.1,1.7
				c1.8,1.1,2.8,2.6,2.8,4.5c0,1.3-0.4,2.4-1.3,3.3c-0.9,0.9-2,1.4-3.4,1.4c-2,0-3.7-1.4-5.1-4.2c-1.1-2.1-2.1-3.1-3.2-3.1
				c-1.3,0-2.2,1.7-2.9,5L244.9,43h5.6l-1.3,4.2H243.9L243.9,47.2z"/>
		</g>
	</g>
	<g>
		<path class="st0" d="M4.7,115.4H0.8v-3.2h11.5v3.2H8.4v9.9H4.8L4.7,115.4L4.7,115.4z"/>
		<path class="st0" d="M13.9,112.2h3.6v4.9h4.7v-4.9h3.6v13.1h-3.6v-5h-4.7v5h-3.6V112.2z"/>
		<path class="st0" d="M28.2,112.2h10.6v3.1h-7v2h6.3v2.9h-6.3v2.1h7v3.1H28.2V112.2z"/>
		<path class="st0" d="M45.9,112.2h10.5v3.2h-6.9v2.2h6.2v3h-6.2v4.7h-3.6V112.2z"/>
		<path class="st0" d="M57.9,119.6v-7.4h3.7v7.3c0,1.9,1,2.8,2.4,2.8c1.5,0,2.4-0.9,2.4-2.7v-7.4h3.7v7.3c0,4.2-2.4,6.1-6.1,6.1
			C60.2,125.6,57.9,123.7,57.9,119.6z"/>
		<path class="st0" d="M75.5,115.4h-3.9v-3.2h11.5v3.2h-3.9v9.9h-3.6L75.5,115.4L75.5,115.4z"/>
		<path class="st0" d="M84.5,119.6v-7.4h3.7v7.3c0,1.9,1,2.8,2.4,2.8c1.5,0,2.4-0.9,2.4-2.7v-7.4h3.7v7.3c0,4.2-2.4,6.1-6.1,6.1
			C86.8,125.6,84.5,123.7,84.5,119.6z"/>
		<path class="st0" d="M98.9,112.2h6.2c2,0,3.4,0.5,4.3,1.4c0.8,0.8,1.2,1.8,1.2,3.1l0,0c0,2-1.1,3.4-2.7,4l3.1,4.6h-4.2l-2.6-4
			h-1.6v4H99L98.9,112.2L98.9,112.2z M104.9,118.5c1.2,0,2-0.6,2-1.6l0,0c0-1.1-0.8-1.6-2-1.6h-2.4v3.2H104.9z"/>
		<path class="st0" d="M112.3,112.2h10.6v3.1h-7v2h6.3v2.9h-6.3v2.1h7v3.1h-10.6V112.2z"/>
		<path class="st0" d="M129.6,118.8L129.6,118.8c0-3.8,3-6.9,7.1-6.9c4,0,7,3,7,6.8l0,0c0,3.8-3,6.8-7.1,6.8
			C132.6,125.6,129.6,122.6,129.6,118.8z M140,118.8L140,118.8c0-2-1.4-3.6-3.4-3.6s-3.3,1.6-3.3,3.5l0,0c0,1.9,1.4,3.5,3.4,3.5
			C138.7,122.3,140,120.7,140,118.8z"/>
		<path class="st0" d="M145.6,112.2h10.5v3.2h-6.9v2.2h6.2v3h-6.2v4.7h-3.6V112.2z"/>
		<path class="st0" d="M163,112.2h3.6v4.9h4.7v-4.9h3.6v13.1h-3.6v-5h-4.7v5H163V112.2z"/>
		<path class="st0" d="M177.3,112.2h10.5v3.1h-7v2h6.3v2.9h-6.3v2.1h7v3.1h-10.6v-13.2H177.3z"/>
		<path class="st0" d="M194.3,112.1h3.5l5.6,13.2h-3.9l-0.9-2.4h-5.1l-0.9,2.4h-3.8L194.3,112.1z M197.5,120.1l-1.5-3.7l-1.5,3.7
			H197.5z"/>
		<path class="st0" d="M204.7,112.2h3.6v9.9h6.4v3.2h-10V112.2z"/>
		<path class="st0" d="M217.6,115.4h-3.9v-3.2h11.5v3.2h-3.9v9.9h-3.6v-9.9H217.6z"/>
		<path class="st0" d="M226.8,112.2h3.6v4.9h4.7v-4.9h3.6v13.1h-3.6v-5h-4.7v5h-3.6V112.2z"/>
		<path class="st0" d="M246.3,112.2h6.7c1.6,0,2.8,0.4,3.6,1.2c0.5,0.5,0.8,1.2,0.8,2.1l0,0c0,1.5-0.9,2.4-2,2.9
			c1.6,0.5,2.6,1.4,2.6,3.2l0,0c0,2.2-1.8,3.6-5,3.6h-6.8L246.3,112.2L246.3,112.2z M253.8,116.2c0-0.7-0.6-1.1-1.6-1.1h-2.4v2.3
			h2.3C253.2,117.4,253.8,117,253.8,116.2L253.8,116.2z M252.6,120h-2.8v2.4h2.8c1.1,0,1.7-0.4,1.7-1.2l0,0
			C254.3,120.4,253.8,120,252.6,120z"/>
		<path class="st0" d="M259.7,112.2h10.6v3.1h-7v2h6.3v2.9h-6.3v2.1h7v3.1h-10.6V112.2z"/>
		<path class="st0" d="M271.7,118.8L271.7,118.8c0-3.9,3-6.9,7-6.9c2.3,0,3.9,0.7,5.3,1.9l-2.1,2.6c-0.9-0.8-1.9-1.2-3.2-1.2
			c-1.9,0-3.4,1.6-3.4,3.6l0,0c0,2.1,1.5,3.7,3.6,3.7c0.9,0,1.6-0.2,2.1-0.5v-1.6h-2.6v-2.7h6v5.9c-1.4,1.2-3.3,2-5.7,2
			C274.7,125.6,271.7,122.8,271.7,118.8z"/>
		<path class="st0" d="M286.6,112.2h3.6v13.1h-3.6V112.2z"/>
		<path class="st0" d="M292.6,112.2h3.4l5.4,6.9v-6.9h3.6v13.1h-3.2l-5.6-7.2v7.2h-3.6L292.6,112.2L292.6,112.2z"/>
		<path class="st0" d="M306.4,123.4l2-2.4c1.3,1,2.7,1.6,4.3,1.6c1,0,1.5-0.3,1.5-0.9l0,0c0-0.6-0.4-0.8-2.2-1.3
			c-2.8-0.6-4.9-1.4-4.9-4.1l0,0c0-2.4,1.9-4.2,5.1-4.2c2.2,0,4,0.6,5.4,1.7l-1.8,2.6c-1.2-0.9-2.5-1.3-3.7-1.3
			c-0.9,0-1.3,0.4-1.3,0.8l0,0c0,0.6,0.4,0.9,2.3,1.3c3,0.7,4.9,1.6,4.9,4.1l0,0c0,2.7-2.1,4.3-5.3,4.3
			C310.2,125.5,308,124.8,306.4,123.4z"/>
		<path class="st0" d="M323.9,112.2h3.8l2.3,7.6l2.5-7.6h3.1l2.5,7.6l2.3-7.6h3.8l-4.4,13.2h-3.2l-2.6-7.6l-2.6,7.6h-3.2
			L323.9,112.2z"/>
		<path class="st0" d="M345.8,112.2h3.6v13.1h-3.6V112.2z"/>
		<path class="st0" d="M355.1,115.4h-3.9v-3.2h11.5v3.2h-3.9v9.9h-3.6v-9.9H355.1z"/>
		<path class="st0" d="M364.2,112.2h3.6v4.9h4.7v-4.9h3.6v13.1h-3.6v-5h-4.7v5h-3.6V112.2z"/>
		<path class="st1" d="M387.5,120.4l-5-8.2h4.1l2.7,4.8l2.7-4.8h4.1l-5,8.2v5h-3.6L387.5,120.4L387.5,120.4z"/>
		<path class="st1" d="M395.6,118.8L395.6,118.8c0-3.8,3-6.9,7.1-6.9c4,0,7,3,7,6.8l0,0c0,3.8-3,6.8-7.1,6.8
			C398.6,125.6,395.6,122.6,395.6,118.8z M406,118.8L406,118.8c0-2-1.3-3.6-3.4-3.6c-2,0-3.3,1.6-3.3,3.5l0,0c0,1.9,1.4,3.5,3.4,3.5
			C404.7,122.3,406,120.7,406,118.8z"/>
		<path class="st1" d="M411.5,119.6v-7.4h3.7v7.3c0,1.9,1,2.8,2.4,2.8c1.5,0,2.4-0.9,2.4-2.7v-7.4h3.7v7.3c0,4.2-2.4,6.1-6.1,6.1
			C413.8,125.6,411.5,123.7,411.5,119.6z"/>
	</g>
	<rect x="450.2" y="0.4" class="st2" width="1.7" height="123.3"/>
	<g>
		<path class="st2" d="M475,3.3h-6.7V1.2H484v2.1h-6.7v17.9H475V3.3z"/>
		<path class="st2" d="M487.4,0.4h2.2v8.7c1-1.6,2.5-2.9,5.1-2.9c3.6,0,5.7,2.4,5.7,5.9v9.2h-2.2v-8.6c0-2.7-1.5-4.5-4.1-4.5
			c-2.5,0-4.4,1.9-4.4,4.6v8.5h-2.2L487.4,0.4L487.4,0.4z"/>
		<path class="st2" d="M504.1,13.9L504.1,13.9c0-4.3,3-7.7,7.1-7.7c4.4,0,6.9,3.5,6.9,7.8c0,0.3,0,0.5,0,0.7h-11.7
			c0.3,3.2,2.6,5,5.2,5c2,0,3.5-0.8,4.7-2.1l1.4,1.2c-1.5,1.7-3.3,2.8-6.1,2.8C507.4,21.6,504.1,18.4,504.1,13.9z M515.8,13
			c-0.2-2.7-1.8-5-4.7-5c-2.6,0-4.5,2.1-4.8,5H515.8z"/>
	</g>
	<g>
		<path class="st2" d="M469.7,35.5h7.5c4.5,0,7.5,2.4,7.5,6.3v0.1c0,4.3-3.6,6.5-7.9,6.5h-4.9v7.1h-2.3L469.7,35.5
			C469.6,35.5,469.7,35.5,469.7,35.5z M476.9,46.4c3.3,0,5.5-1.8,5.5-4.4v-0.1c0-2.9-2.1-4.3-5.4-4.3h-5.1v8.8H476.9z"/>
		<path class="st2" d="M488.4,40.7h2.2v3.9c1.1-2.5,3.2-4.2,6-4.1v2.4h-0.2c-3.2,0-5.9,2.3-5.9,6.8v5.9h-2.2V40.7H488.4z"/>
		<path class="st2" d="M498.4,48.1L498.4,48.1c0-4.3,3-7.7,7.1-7.7c4.4,0,6.9,3.5,6.9,7.8c0,0.3,0,0.5,0,0.7h-11.7
			c0.3,3.2,2.6,5,5.2,5c2,0,3.5-0.8,4.7-2.1L512,53c-1.5,1.7-3.3,2.8-6.1,2.8C501.7,55.8,498.4,52.7,498.4,48.1z M510.2,47.3
			c-0.2-2.7-1.8-5-4.7-5c-2.6,0-4.5,2.1-4.8,5H510.2z"/>
		<path class="st2" d="M515.3,48.2L515.3,48.2c0-4.2,3.3-7.8,7.6-7.8c2.8,0,4.5,1.2,5.9,2.6l-1.5,1.5c-1.2-1.2-2.5-2.2-4.5-2.2
			c-3,0-5.3,2.5-5.3,5.7v0.1c0,3.2,2.3,5.7,5.4,5.7c1.9,0,3.3-0.9,4.5-2.2l1.4,1.3c-1.5,1.7-3.3,2.9-6,2.9
			C518.6,55.8,515.3,52.3,515.3,48.2z"/>
		<path class="st2" d="M532.6,35.1h2.5v2.4h-2.5V35.1z M532.8,40.7h2.2v14.8h-2.2V40.7z"/>
		<path class="st2" d="M538.8,53.6l1.1-1.6c1.6,1.2,3.4,1.9,5.1,1.9c1.8,0,3.1-0.9,3.1-2.3v-0.1c0-1.5-1.7-2.1-3.7-2.6
			c-2.3-0.7-4.9-1.5-4.9-4.2v-0.1c0-2.5,2.1-4.2,5-4.2c1.8,0,3.8,0.6,5.3,1.6l-1,1.7c-1.4-0.9-2.9-1.4-4.4-1.4
			c-1.7,0-2.9,0.9-2.9,2.1v0.1c0,1.4,1.8,1.9,3.8,2.5c2.3,0.7,4.7,1.6,4.7,4.2v0.1c0,2.8-2.3,4.4-5.3,4.4
			C542.8,55.8,540.5,54.9,538.8,53.6z"/>
		<path class="st2" d="M554.3,35.1h2.5v2.4h-2.5V35.1z M554.5,40.7h2.2v14.8h-2.2V40.7z"/>
		<path class="st2" d="M560.9,48.2L560.9,48.2c0-4.2,3.3-7.8,7.7-7.8s7.7,3.5,7.7,7.7v0.1c0,4.2-3.3,7.7-7.7,7.7
			C564.1,55.8,560.9,52.3,560.9,48.2z M574,48.2L574,48.2c0-3.2-2.4-5.8-5.5-5.8c-3.2,0-5.4,2.6-5.4,5.7v0.1c0,3.2,2.3,5.7,5.5,5.7
			S574,51.3,574,48.2z"/>
		<path class="st2" d="M580.2,40.7h2.2v2.6c1-1.6,2.5-2.9,5.1-2.9c3.6,0,5.7,2.4,5.7,5.9v9.2H591v-8.6c0-2.7-1.5-4.5-4.1-4.5
			c-2.5,0-4.4,1.9-4.4,4.6v8.5h-2.2L580.2,40.7L580.2,40.7z"/>
	</g>
	<g>
		<path class="st2" d="M469.7,69.8h2.3l7.3,10.9l7.3-10.9h2.3v20h-2.3V73.6l-7.3,10.7h-0.1l-7.3-10.7v16.2h-2.2L469.7,69.8
			L469.7,69.8z"/>
		<path class="st2" d="M493.2,82.4L493.2,82.4c0-4.3,3-7.7,7.1-7.7c4.4,0,6.9,3.5,6.9,7.8c0,0.3,0,0.5,0,0.7h-11.7
			c0.3,3.2,2.6,5,5.2,5c2,0,3.5-0.8,4.7-2.1l1.4,1.2c-1.5,1.7-3.3,2.8-6.1,2.8C496.5,90.1,493.2,87,493.2,82.4z M504.9,81.6
			c-0.2-2.7-1.8-5-4.7-5c-2.6,0-4.5,2.1-4.8,5H504.9z"/>
		<path class="st2" d="M510.2,82.4L510.2,82.4c0-4.9,3.5-7.7,7.1-7.7c2.7,0,4.5,1.5,5.7,3.1v-8.9h2.2v20.9H523v-3
			c-1.2,1.8-2.9,3.3-5.7,3.3C513.7,90.1,510.2,87.3,510.2,82.4z M523,82.4L523,82.4c0-3.5-2.6-5.7-5.3-5.7c-2.9,0-5.2,2.1-5.2,5.7
			v0.1c0,3.5,2.4,5.7,5.2,5.7C520.4,88.1,523,85.8,523,82.4z"/>
		<path class="st2" d="M530,69.3h2.5v2.4H530V69.3z M530.2,75h2.2v14.8h-2.2V75z"/>
		<path class="st2" d="M536.6,82.4L536.6,82.4c0-4.2,3.3-7.8,7.6-7.8c2.8,0,4.5,1.2,5.9,2.6l-1.5,1.5c-1.2-1.2-2.5-2.2-4.5-2.2
			c-3,0-5.3,2.5-5.3,5.7v0.1c0,3.2,2.3,5.7,5.4,5.7c1.9,0,3.3-0.9,4.5-2.2l1.4,1.3c-1.5,1.7-3.3,2.9-6,2.9
			C539.8,90.1,536.6,86.6,536.6,82.4z"/>
		<path class="st2" d="M553.9,69.3h2.5v2.4h-2.5V69.3z M554,75h2.2v14.8H554V75z"/>
		<path class="st2" d="M561.3,75h2.2v2.6c1-1.6,2.5-2.9,5.1-2.9c3.6,0,5.7,2.4,5.7,5.9v9.2h-2.2v-8.6c0-2.7-1.5-4.5-4.1-4.5
			c-2.5,0-4.4,1.9-4.4,4.6v8.5h-2.2L561.3,75L561.3,75z"/>
		<path class="st2" d="M578,82.4L578,82.4c0-4.3,3-7.7,7.1-7.7c4.4,0,6.9,3.5,6.9,7.8c0,0.3,0,0.5,0,0.7h-11.7c0.3,3.2,2.6,5,5.2,5
			c2,0,3.5-0.8,4.7-2.1l1.4,1.2c-1.5,1.7-3.3,2.8-6.1,2.8C581.3,90.1,578,87,578,82.4z M589.7,81.6c-0.2-2.7-1.8-5-4.7-5
			c-2.6,0-4.5,2.1-4.8,5H589.7z"/>
	</g>
	<path class="st2" d="M469.9,104h2.3v20h-2.3V104z"/>
	<path class="st2" d="M477.6,109.3h2.2v2.6c1-1.6,2.5-2.9,5.1-2.9c3.6,0,5.7,2.4,5.7,5.9v9.2h-2.2v-8.6c0-2.7-1.5-4.5-4.1-4.5
		c-2.5,0-4.4,1.9-4.4,4.6v8.5h-2.2L477.6,109.3L477.6,109.3z"/>
	<path class="st2" d="M495.3,103.6h2.5v2.4h-2.5V103.6z M495.4,109.3h2.2V124h-2.2V109.3z"/>
	<path class="st2" d="M503.5,120.1v-8.9h-2.1v-1.9h2.1v-4.5h2.2v4.5h4.7v1.9h-4.7v8.6c0,1.8,1,2.5,2.5,2.5c0.7,0,1.4-0.1,2.1-0.5
		v1.9c-0.8,0.4-1.6,0.6-2.7,0.6C505.3,124.3,503.5,123.1,503.5,120.1z"/>
	<path class="st2" d="M514.3,103.6h2.5v2.4h-2.5V103.6z M514.5,109.3h2.2V124h-2.2V109.3z"/>
	<path class="st2" d="M520.7,119.7L520.7,119.7c0-3.2,2.6-4.8,6.3-4.8c1.9,0,3.2,0.3,4.5,0.6V115c0-2.7-1.6-4-4.4-4
		c-1.7,0-3.1,0.5-4.5,1.1l-0.7-1.8c1.6-0.7,3.2-1.2,5.4-1.2c2.1,0,3.7,0.5,4.8,1.6c1,1,1.5,2.4,1.5,4.3v9h-2.1v-2.2
		c-1,1.3-2.7,2.5-5.3,2.5C523.4,124.3,520.7,122.8,520.7,119.7z M531.6,118.6v-1.4c-1.1-0.3-2.5-0.6-4.3-0.6c-2.8,0-4.3,1.2-4.3,3.1
		v0.1c0,1.9,1.7,2.9,3.7,2.9C529.3,122.6,531.6,120.9,531.6,118.6z"/>
	<path class="st2" d="M539,120.1v-8.9h-2.1v-1.9h2.1v-4.5h2.2v4.5h4.7v1.9h-4.7v8.6c0,1.8,1,2.5,2.5,2.5c0.7,0,1.4-0.1,2.1-0.5v1.9
		c-0.8,0.4-1.6,0.6-2.7,0.6C540.7,124.3,539,123.1,539,120.1z"/>
	<path class="st2" d="M549.8,103.6h2.5v2.4h-2.5V103.6z M549.9,109.3h2.2V124h-2.2V109.3z"/>
	<path class="st2" d="M555.8,109.3h2.4l5,12.3l5-12.3h2.4l-6.4,14.9h-1.9L555.8,109.3z"/>
	<path class="st2" d="M572.2,116.7L572.2,116.7c0-4.3,3-7.7,7.1-7.7c4.4,0,6.9,3.5,6.9,7.8c0,0.3,0,0.5,0,0.7h-11.7
		c0.3,3.2,2.6,5,5.2,5c2,0,3.5-0.8,4.7-2.1l1.4,1.2c-1.5,1.7-3.3,2.8-6.1,2.8C575.5,124.4,572.2,121.2,572.2,116.7z M584,115.8
		c-0.2-2.7-1.8-5-4.7-5c-2.6,0-4.5,2.1-4.8,5H584z"/>
	<g>
		<circle class="st3" cx="594.8" cy="109.4" r="6"/>
		<g>
			<path class="st2" d="M593.2,107.1h2.2c0.6,0,1.1,0.2,1.5,0.5c0.2,0.3,0.4,0.6,0.4,1l0,0c0,0.9-0.6,1.4-1.4,1.5l1.6,2.1h-0.7
				l-1.5-2h-1.5v2h-0.6V107.1z M595.3,109.7c0.8,0,1.3-0.4,1.3-1.1l0,0c0-0.6-0.5-1-1.3-1h-1.5v2.1H595.3z"/>
		</g>
	</g>
</g>
</svg>
