<?xml version="1.0" encoding="utf-8"?>
<!-- Generator: Adobe Illustrator 23.0.4, SVG Export Plug-In . SVG Version: 6.00 Build 0)  -->
<svg version="1.1" id="Layer_1" xmlns="http://www.w3.org/2000/svg" xmlns:xlink="http://www.w3.org/1999/xlink" x="0px" y="0px"
	 viewBox="0 0 309 140" style="enable-background:new 0 0 309 140;" xml:space="preserve">
<style type="text/css">
	.st0{enable-background:new    ;}
	.st1{fill:#262262;}
	.st2{fill:#216FB4;}
	.st3{filter:url(#Adobe_OpacityMaskFilter);}
	.st4{fill-rule:evenodd;clip-rule:evenodd;fill:#FFFFFF;}
	.st5{mask:url(#mask-2_1_);fill-rule:evenodd;clip-rule:evenodd;fill:#262262;}
	.st6{fill-rule:evenodd;clip-rule:evenodd;fill:#262262;fill-opacity:0.1;}
	.st7{filter:url(#Adobe_OpacityMaskFilter_1_);}
	.st8{mask:url(#mask-4_1_);fill-rule:evenodd;clip-rule:evenodd;fill:#FFFFFF;}
	.st9{filter:url(#Adobe_OpacityMaskFilter_2_);}
	.st10{mask:url(#mask-4_2_);fill-rule:evenodd;clip-rule:evenodd;fill:#262262;}
	.st11{filter:url(#Adobe_OpacityMaskFilter_3_);}
	.st12{mask:url(#mask-6_1_);fill-rule:evenodd;clip-rule:evenodd;fill:#FFFFFF;}
	.st13{filter:url(#Adobe_OpacityMaskFilter_4_);}
	.st14{mask:url(#mask-6_2_);fill-rule:evenodd;clip-rule:evenodd;fill:#262262;}
	.st15{filter:url(#Adobe_OpacityMaskFilter_5_);}
	.st16{mask:url(#mask-8_1_);fill-rule:evenodd;clip-rule:evenodd;fill:#FFFFFF;}
	.st17{filter:url(#Adobe_OpacityMaskFilter_6_);}
	.st18{mask:url(#mask-8_2_);fill-rule:evenodd;clip-rule:evenodd;fill:#262262;}
</style>
<title>Group 8</title>
<desc>Created with Sketch.</desc>
<g id="DATA-TAB">
	<g id="DATA-TAB-v3" transform="translate(-91.000000, -260.000000)">
		<g id="Group-8" transform="translate(91.000000, 255.000000)">
			<g class="st0">
				<path class="st1" d="M44.3,123.2h-3.9l-0.7,1.8h-2l3.7-8.4h1.9L47,125h-2L44.3,123.2z M43.6,121.7l-1.3-3.2l-1.3,3.2H43.6z"/>
				<path class="st1" d="M47.8,116.1h1.9v8.9h-1.9V116.1z"/>
				<path class="st1" d="M51.4,116.1h1.9v8.9h-1.9V116.1z"/>
				<path class="st1" d="M57.9,121.8c0-1.9,1.5-3.3,3.5-3.3c2.1,0,3.5,1.4,3.5,3.3c0,1.9-1.5,3.3-3.5,3.3
					C59.4,125.1,57.9,123.7,57.9,121.8z M63.1,121.8c0-1.1-0.7-1.8-1.6-1.8c-0.9,0-1.7,0.7-1.7,1.8s0.7,1.8,1.7,1.8
					C62.4,123.6,63.1,122.9,63.1,121.8z"/>
				<path class="st1" d="M68.3,118.7H70v1.4h-1.6v4.9h-1.9v-4.9h-1v-1.4h1v-0.3c0-1.5,0.9-2.4,2.5-2.4c0.5,0,1.1,0.1,1.4,0.3
					l-0.5,1.4c-0.2-0.1-0.5-0.2-0.8-0.2c-0.6,0-0.9,0.3-0.9,0.9V118.7z"/>
				<path class="st1" d="M74.4,121.3v-4.7h1.9v4.6c0,1.6,0.7,2.3,1.9,2.3c1.2,0,1.9-0.7,1.9-2.3v-4.6H82v4.7c0,2.5-1.4,3.8-3.8,3.8
					S74.4,123.8,74.4,121.3z"/>
				<path class="st1" d="M83.1,124.4l0.6-1.3c0.6,0.4,1.5,0.6,2.2,0.6c0.9,0,1.2-0.2,1.2-0.6c0-1.1-3.9,0-3.9-2.6
					c0-1.2,1.1-2.1,3-2.1c0.9,0,1.9,0.2,2.5,0.6l-0.6,1.3c-0.6-0.4-1.3-0.5-1.9-0.5c-0.8,0-1.2,0.3-1.2,0.6c0,1.1,3.9,0,3.9,2.6
					c0,1.2-1.1,2.1-3,2.1C84.8,125.1,83.7,124.8,83.1,124.4z"/>
			</g>
			<g class="st0">
				<path class="st1" d="M33.5,136.2c0,1.9-1.4,3-3.6,3h-1.7v2.3h-1.9v-8.4h3.6C32.1,133.1,33.5,134.3,33.5,136.2z M31.6,136.2
					c0-0.9-0.6-1.5-1.8-1.5h-1.6v2.9h1.6C31,137.6,31.6,137.1,31.6,136.2z"/>
				<path class="st1" d="M40.4,137.8v3.7h-1.8v-0.8c-0.3,0.6-1,0.9-2,0.9c-1.5,0-2.4-0.8-2.4-2c0-1.1,0.8-1.9,2.8-1.9h1.5
					c0-0.8-0.5-1.3-1.5-1.3c-0.7,0-1.4,0.2-1.9,0.6l-0.7-1.3c0.7-0.5,1.8-0.8,2.8-0.8C39.3,135,40.4,135.9,40.4,137.8z M38.6,139.5
					v-0.7h-1.3c-0.9,0-1.2,0.3-1.2,0.8c0,0.5,0.4,0.8,1.1,0.8C37.8,140.3,38.4,140,38.6,139.5z"/>
				<path class="st1" d="M46.1,135v1.7c-0.2,0-0.3,0-0.4,0c-1,0-1.7,0.6-1.7,1.8v3h-1.9V135h1.8v0.9C44.4,135.3,45.1,135,46.1,135z"
					/>
				<path class="st1" d="M51.7,141.2c-0.4,0.3-0.9,0.4-1.5,0.4c-1.5,0-2.4-0.8-2.4-2.3v-2.7h-1v-1.4h1v-1.6h1.9v1.6h1.6v1.4h-1.6
					v2.6c0,0.6,0.3,0.9,0.8,0.9c0.3,0,0.6-0.1,0.8-0.2L51.7,141.2z"/>
				<path class="st1" d="M52.5,133.1c0-0.6,0.5-1,1.2-1c0.7,0,1.2,0.4,1.2,1c0,0.6-0.5,1.1-1.2,1.1C53,134.1,52.5,133.7,52.5,133.1z
					 M52.7,135h1.9v6.5h-1.9V135z"/>
				<path class="st1" d="M55.8,138.3c0-1.9,1.5-3.3,3.6-3.3c1.4,0,2.4,0.6,2.9,1.6l-1.5,0.8c-0.3-0.6-0.9-0.9-1.5-0.9
					c-0.9,0-1.7,0.7-1.7,1.8c0,1.1,0.7,1.8,1.7,1.8c0.6,0,1.1-0.3,1.5-0.9l1.5,0.8c-0.5,1-1.5,1.6-2.9,1.6
					C57.3,141.6,55.8,140.2,55.8,138.3z"/>
				<path class="st1" d="M63.2,133.1c0-0.6,0.5-1,1.2-1c0.7,0,1.2,0.4,1.2,1c0,0.6-0.5,1.1-1.2,1.1
					C63.7,134.1,63.2,133.7,63.2,133.1z M63.4,135h1.9v6.5h-1.9V135z"/>
				<path class="st1" d="M74.1,138.3c0,2-1.4,3.3-3.2,3.3c-0.8,0-1.5-0.3-1.9-0.8v3H67V135h1.8v0.7c0.5-0.6,1.2-0.8,2-0.8
					C72.7,135,74.1,136.2,74.1,138.3z M72.2,138.3c0-1.1-0.7-1.8-1.6-1.8s-1.6,0.7-1.6,1.8s0.7,1.8,1.6,1.8S72.2,139.4,72.2,138.3z"
					/>
				<path class="st1" d="M80.9,137.8v3.7h-1.8v-0.8c-0.3,0.6-1,0.9-2,0.9c-1.5,0-2.4-0.8-2.4-2c0-1.1,0.8-1.9,2.8-1.9H79
					c0-0.8-0.5-1.3-1.5-1.3c-0.7,0-1.4,0.2-1.9,0.6l-0.7-1.3c0.7-0.5,1.8-0.8,2.8-0.8C79.8,135,80.9,135.9,80.9,137.8z M79,139.5
					v-0.7h-1.3c-0.9,0-1.2,0.3-1.2,0.8c0,0.5,0.4,0.8,1.1,0.8C78.3,140.3,78.8,140,79,139.5z"/>
				<path class="st1" d="M89.2,137.8v3.7h-1.9v-3.4c0-1-0.5-1.5-1.3-1.5c-0.9,0-1.5,0.6-1.5,1.7v3.2h-1.9V135h1.8v0.8
					c0.5-0.6,1.3-0.9,2.1-0.9C88,135,89.2,135.8,89.2,137.8z"/>
				<path class="st1" d="M95.1,141.2c-0.4,0.3-0.9,0.4-1.5,0.4c-1.5,0-2.4-0.8-2.4-2.3v-2.7h-1v-1.4h1v-1.6H93v1.6h1.6v1.4H93v2.6
					c0,0.6,0.3,0.9,0.8,0.9c0.3,0,0.6-0.1,0.8-0.2L95.1,141.2z"/>
				<path class="st1" d="M95.5,140.9l0.6-1.3c0.6,0.4,1.5,0.6,2.2,0.6c0.9,0,1.2-0.2,1.2-0.6c0-1.1-3.9,0-3.9-2.6
					c0-1.2,1.1-2.1,3-2.1c0.9,0,1.9,0.2,2.5,0.6l-0.6,1.3c-0.6-0.4-1.3-0.5-1.9-0.5c-0.8,0-1.2,0.3-1.2,0.6c0,1.1,3.9,0,3.9,2.6
					c0,1.2-1.1,2.1-3,2.1C97.2,141.6,96.1,141.3,95.5,140.9z"/>
			</g>
			<g class="st0">
				<path class="st1" d="M219,127v3h-1.9v-3l-3.3-5.4h2.1l2.2,3.7l2.2-3.7h1.9L219,127z"/>
				<path class="st1" d="M221.8,126.8c0-1.9,1.5-3.3,3.5-3.3s3.5,1.4,3.5,3.3c0,1.9-1.5,3.3-3.5,3.3S221.8,128.7,221.8,126.8z
					 M227,126.8c0-1.1-0.7-1.8-1.6-1.8s-1.7,0.7-1.7,1.8s0.7,1.8,1.7,1.8S227,127.9,227,126.8z"/>
				<path class="st1" d="M236.6,123.5v6.5h-1.8v-0.8c-0.5,0.6-1.2,0.9-2,0.9c-1.6,0-2.8-0.9-2.8-2.9v-3.6h1.9v3.4
					c0,1.1,0.5,1.6,1.3,1.6c0.9,0,1.5-0.6,1.5-1.7v-3.2H236.6z"/>
				<path class="st1" d="M242.4,123.5v1.7c-0.2,0-0.3,0-0.4,0c-1,0-1.7,0.6-1.7,1.8v3h-1.9v-6.5h1.8v0.9
					C240.6,123.8,241.4,123.5,242.4,123.5z"/>
				<path class="st1" d="M246.5,125.8c0-2.5,1.9-4.3,4.6-4.3c1.5,0,2.7,0.5,3.5,1.5l-1.2,1.2c-0.6-0.6-1.3-1-2.1-1
					c-1.6,0-2.7,1.1-2.7,2.7c0,1.6,1.1,2.7,2.7,2.7c0.8,0,1.5-0.3,2.1-1l1.2,1.2c-0.8,1-2,1.5-3.5,1.5
					C248.5,130.1,246.5,128.3,246.5,125.8z"/>
				<path class="st1" d="M255,126.8c0-1.9,1.5-3.3,3.5-3.3c2.1,0,3.5,1.4,3.5,3.3c0,1.9-1.5,3.3-3.5,3.3
					C256.5,130.1,255,128.7,255,126.8z M260.2,126.8c0-1.1-0.7-1.8-1.6-1.8c-0.9,0-1.7,0.7-1.7,1.8s0.7,1.8,1.7,1.8
					C259.5,128.6,260.2,127.9,260.2,126.8z"/>
				<path class="st1" d="M270,126.3v3.7h-1.9v-3.4c0-1-0.5-1.5-1.3-1.5c-0.9,0-1.5,0.6-1.5,1.7v3.2h-1.9v-8.9h1.9v3.1
					c0.5-0.5,1.2-0.8,2.1-0.8C268.8,123.5,270,124.3,270,126.3z"/>
				<path class="st1" d="M271.2,126.8c0-1.9,1.5-3.3,3.5-3.3s3.5,1.4,3.5,3.3c0,1.9-1.5,3.3-3.5,3.3S271.2,128.7,271.2,126.8z
					 M276.4,126.8c0-1.1-0.7-1.8-1.6-1.8s-1.7,0.7-1.7,1.8s0.7,1.8,1.7,1.8S276.4,127.9,276.4,126.8z"/>
				<path class="st1" d="M283.6,123.5v1.7c-0.2,0-0.3,0-0.4,0c-1,0-1.7,0.6-1.7,1.8v3h-1.9v-6.5h1.8v0.9
					C281.8,123.8,282.6,123.5,283.6,123.5z"/>
				<path class="st1" d="M289.1,129.7c-0.4,0.3-0.9,0.4-1.5,0.4c-1.5,0-2.4-0.8-2.4-2.3v-2.7h-1v-1.4h1v-1.6h1.9v1.6h1.6v1.4H287
					v2.6c0,0.6,0.3,0.9,0.8,0.9c0.3,0,0.6-0.1,0.8-0.2L289.1,129.7z"/>
			</g>
			<g class="st0">
				<path class="st2" d="M162.2,54l8.2,8.2c0.2,0.2,0.2,0.5,0,0.7l-8.2,8.2c-0.2,0.2-0.5,0.2-0.7,0l-0.8-0.8c-0.2-0.2-0.2-0.5,0-0.7
					l6.1-6.1h-13.3c-0.3,0-0.5-0.2-0.5-0.5V62c0-0.3,0.2-0.5,0.5-0.5h13.3l-6.1-6.1c-0.2-0.2-0.2-0.5,0-0.7l0.8-0.8
					C161.7,53.8,162,53.8,162.2,54z"/>
			</g>
			<g id="Group-3" transform="translate(0.000000, 20.000000)">
				<g id="Clip-2">
				</g>
				<defs>
					<filter id="Adobe_OpacityMaskFilter" filterUnits="userSpaceOnUse" x="0" y="0" width="126.1" height="89.1">
						<feColorMatrix  type="matrix" values="1 0 0 0 0  0 1 0 0 0  0 0 1 0 0  0 0 0 1 0"/>
					</filter>
				</defs>
				<mask maskUnits="userSpaceOnUse" x="0" y="0" width="126.1" height="89.1" id="mask-2_1_">
					<g class="st3">
						<polygon id="path-1_1_" class="st4" points="0,0 126.1,0 126.1,89.1 0,89.1 						"/>
					</g>
				</mask>
				<path id="Fill-1" class="st5" d="M76.7,1.9c1.5,0,2.7,1.2,2.7,2.7s-1.2,2.7-2.7,2.7c-1.5,0-2.7-1.2-2.7-2.7S75.2,1.9,76.7,1.9
					L76.7,1.9z M74,7.4h1.6c0.3,0.1,0.7,0.2,1.1,0.2c0.4,0,0.7-0.1,1.1-0.2h1.6c0.5,0,1.1,0.1,1.5,0.4c-0.3,0.6-0.5,1.2-0.5,1.9
					c0,0.9,0.3,1.8,0.8,2.4c-1.6,0-3,0.8-3.9,2c-0.9-0.9-2.2-1.5-3.6-1.6c0.5-0.7,0.9-1.6,0.9-2.5c0-1-0.3-1.9-0.9-2.6
					C73.8,7.4,73.9,7.4,74,7.4L74,7.4z M61.5,0c1.5,0,2.7,1.2,2.7,2.7S63,5.4,61.5,5.4c-1.5,0-2.7-1.2-2.7-2.7S60,0,61.5,0L61.5,0z
					 M58.8,5.5h1.6c0.3,0.1,0.7,0.2,1.1,0.2c0.4,0,0.7-0.1,1.1-0.2h1.6c1.3,0,2.4,0.7,3,1.8c-0.6,0.7-1,1.7-1,2.7
					c0,1,0.3,1.8,0.9,2.5c-1.7,0-3.3,0.9-4.2,2.2c-0.9-1-2.1-1.6-3.5-1.6c0.5-0.6,0.8-1.5,0.8-2.3c0-2.1-1.7-3.8-3.8-3.8
					c-0.1,0-0.2,0-0.3,0C56.6,6.1,57.6,5.5,58.8,5.5L58.8,5.5z M44.2,3.6c1.5,0,2.7,1.2,2.7,2.7c0,1.5-1.2,2.7-2.7,2.7
					c-1.5,0-2.7-1.2-2.7-2.7C41.5,4.8,42.7,3.6,44.2,3.6L44.2,3.6z M41.6,9h1.6c0.3,0.1,0.7,0.2,1.1,0.2c0.4,0,0.7-0.1,1.1-0.2h1.6
					c1.9,0,3.5,1.6,3.5,3.5V14c-0.1,0.1-0.3,0.2-0.4,0.4c-0.3-2.1-2.1-3.7-4.3-3.7c-2.4,0-4.4,1.9-4.4,4.4c0,1,0.3,1.9,0.9,2.6
					c-0.6,0-1.1,0.1-1.7,0.3v-0.8c0-1.8-1-3.4-2.4-4.2v-0.4C38.1,10.6,39.6,9,41.6,9L41.6,9z M56.3,7.8c1.7,0,3.1,1.4,3.1,3.1
					s-1.4,3.1-3.1,3.1c-1.7,0-3.1-1.4-3.1-3.1S54.6,7.8,56.3,7.8L56.3,7.8z M53.3,13.9h1.8c0.4,0.1,0.8,0.2,1.2,0.2
					c0.4,0,0.8-0.1,1.2-0.2h1.8c2.1,0,3.9,1.8,3.9,3.9v1.5c-0.1-0.1-0.2-0.2-0.3-0.3l0,0c-0.1-0.1-0.1-0.1-0.2-0.2l0,0
					c-0.1-0.1-0.2-0.1-0.2-0.2l0,0c0,0-0.1,0-0.1-0.1c-0.1-0.1-0.2-0.2-0.4-0.2l0,0l-0.1,0l0,0l-0.1,0l0,0l0,0l-0.1,0l0,0l0,0
					l-0.1,0l0,0l0,0l0,0l-0.1,0l0,0l0,0c0,0,0,0-0.1,0l0,0c0,0-0.1,0-0.1,0l0,0c0,0-0.1,0-0.1,0l0,0c0,0-0.1,0-0.1,0l0,0
					c0,0-0.1,0-0.1,0l0,0h0l0,0c0,0-0.1,0-0.1,0l0,0c0,0-0.1,0-0.1,0l0,0c0,0-0.1,0-0.1,0l0,0c0,0-0.1,0-0.1,0l0,0c0,0-0.1,0-0.1,0
					l0,0h0h0l-0.1,0l0,0c0,0-0.1,0-0.1,0l0,0c0,0-0.1,0-0.1,0h0c0,0-0.1,0-0.1,0h0c0,0-0.1,0-0.1,0c-2.6,0-4.7,2.1-4.7,4.7
					c0,1.1,0.4,2,1,2.8c0,0-0.1,0-0.1,0c0,0-0.1,0-0.1,0h0h0c0,0-0.1,0-0.1,0l0,0c0,0-0.1,0-0.1,0l0,0c0,0-0.1,0-0.1,0l0,0
					c0,0-0.1,0-0.1,0l0,0c0,0-0.1,0-0.1,0l0,0l0,0l-0.1,0c0,0-0.1,0-0.1,0l-0.1,0l-0.1,0l0,0l0,0l0,0c0,0-0.1,0-0.1,0l0,0l0,0V23
					c0-2.8-2.2-5.2-5-5.3c0-0.2,0-0.3,0-0.4c0.2-0.4,0.4-0.9,0.5-1.4C50.6,14.7,51.9,13.9,53.3,13.9L53.3,13.9z M84.4,6.4
					c-1.8,0-3.2,1.4-3.2,3.2s1.4,3.2,3.2,3.2c1.8,0,3.2-1.4,3.2-3.2S86.2,6.4,84.4,6.4L84.4,6.4z M87.6,12.9h-1.9
					c-0.4,0.1-0.8,0.2-1.3,0.2c-0.4,0-0.9-0.1-1.3-0.2h-1.9c-1.4,0-2.7,0.7-3.4,1.8c0.6,0.8,0.9,1.8,0.9,2.9v5.1
					c1.1,1,1.7,2.4,1.7,3.9v3.5c0.7-0.3,1.4-0.4,2.1-0.4c-0.6-0.8-1-1.8-1-2.8c0-2.6,2.1-4.7,4.7-4.7c0.3,0,0.7,0,1,0.1
					c0.8-0.6,1.8-0.9,2.9-0.9c-0.6-0.7-0.9-1.6-0.9-2.6c0-1.5,0.7-2.7,1.8-3.5C90.6,13.8,89.2,12.9,87.6,12.9L87.6,12.9z M70.4,6.6
					c1.8,0,3.3,1.5,3.3,3.3c0,1.8-1.5,3.3-3.3,3.3c-1.8,0-3.3-1.5-3.3-3.3C67,8.1,68.5,6.6,70.4,6.6L70.4,6.6z M67.1,13.4h2
					c0.4,0.2,0.9,0.2,1.3,0.2s0.9-0.1,1.3-0.2h2c2.3,0,4.3,1.9,4.3,4.3v4.5c-0.8-0.5-1.7-0.7-2.7-0.8c0.6-0.7,0.9-1.6,0.9-2.6
					c0-2.4-1.9-4.4-4.4-4.4c-2.4,0-4.4,1.9-4.4,4.4c0,1,0.3,1.9,0.9,2.6c-1.7,0-3.2,0.8-4.2,2.1c0.1-0.3,0.1-0.7,0.1-1.1
					c0-0.6-0.1-1.2-0.3-1.8v-2.8c0-0.8-0.2-1.6-0.6-2.3C64.1,14.2,65.5,13.4,67.1,13.4L67.1,13.4z M32.4,6.6c1.8,0,3.2,1.4,3.2,3.2
					c0,1.8-1.4,3.2-3.2,3.2c-1.8,0-3.2-1.4-3.2-3.2C29.3,8.1,30.7,6.6,32.4,6.6L32.4,6.6z M29.3,13.1h1.9c0.4,0.1,0.8,0.2,1.3,0.2
					c0.4,0,0.9-0.1,1.3-0.2h1.9c2.2,0,4.1,1.8,4.1,4.1v1.1c-0.6,0.3-1.2,0.8-1.6,1.4c-0.1-2.5-2.2-4.4-4.7-4.4
					c-2.6,0-4.7,2.1-4.7,4.7c0,0.4,0,0.8,0.1,1.1c-0.8-0.5-1.7-0.8-2.8-0.8c0.6-0.7,0.9-1.6,0.9-2.6c0-1.1-0.4-2-1-2.8
					C26.7,13.8,27.9,13.1,29.3,13.1L29.3,13.1z M45.6,11.6c-1.9,0-3.5,1.5-3.5,3.4c0,1.9,1.5,3.4,3.5,3.4c1.9,0,3.5-1.5,3.5-3.4
					C49.1,13.1,47.6,11.6,45.6,11.6L45.6,11.6z M49.1,18.5h-2c-0.4,0.2-0.9,0.3-1.4,0.3s-0.9-0.1-1.4-0.3h-2.1
					c-2.4,0-4.4,1.9-4.4,4.3c1.3,0.2,2.5,0.8,3.4,1.8c0.9-1.4,2.5-2.3,4.3-2.3c2.8,0,5.1,2.3,5.1,5.1c0,1.2-0.4,2.2-1,3.1
					c0.2,0,0.5,0,0.7,0c0.2-2.1,1.4-3.9,3.2-4.7V23C53.5,20.5,51.5,18.5,49.1,18.5L49.1,18.5z M22.6,14.2c1.9,0,3.5,1.5,3.5,3.5
					c0,1.9-1.5,3.4-3.5,3.4c-1.9,0-3.4-1.5-3.4-3.4C19.1,15.7,20.7,14.2,22.6,14.2L22.6,14.2z M24.8,39.5c0.5,0.9,1.3,1.6,2.2,2.2
					l0,0.7c-0.9-0.6-1.9-1-3-1C24.4,40.8,24.6,40.2,24.8,39.5L24.8,39.5z M19.2,21.2h2.1c0.4,0.2,0.9,0.3,1.4,0.3
					c0.5,0,0.9-0.1,1.4-0.3H26c1.4,0,2.6,0.6,3.4,1.6c-3,0.1-5.5,2.7-5.5,5.7V36c-0.6-0.9-1.5-1.5-2.6-1.8v-3.3c0-2.7-2.1-5-4.8-5.2
					c0.4-0.7,0.7-1.5,0.7-2.3c0-0.6-0.1-1.1-0.3-1.6C17.6,21.4,18.4,21.2,19.2,21.2L19.2,21.2z M33.4,16.2c2.1,0,3.7,1.7,3.7,3.7
					s-1.7,3.7-3.7,3.7c-2.1,0-3.7-1.7-3.7-3.7S31.3,16.2,33.4,16.2L33.4,16.2z M29.7,23.8h2.2c0.5,0.2,0.9,0.3,1.5,0.3
					s1-0.1,1.5-0.3H37c1.5,0,2.8,0.7,3.7,1.8c-0.2,0.6-0.4,1.2-0.4,1.9c0,1.2,0.4,2.2,1,3.1c-3.1,0-5.7,2.4-6.1,5.4
					c-0.6-0.2-1.2-0.4-1.9-0.4c-2.7,0-4.9,2.2-4.9,4.9c0,1.1,0.4,2.1,1,2.9c-0.5,0-0.9,0.1-1.3,0.2L28,43.3L27.9,41
					c-1.7-0.7-3-2.4-3-4.4v-8.1C24.9,25.9,27.1,23.8,29.7,23.8L29.7,23.8z M45.5,23.3c2.2,0,4,1.8,4,4c0,2.2-1.8,4-4,4
					c-2.2,0-4-1.8-4-4C41.4,25.1,43.2,23.3,45.5,23.3L45.5,23.3z M41.5,31.5h2.4c0.5,0.2,1,0.3,1.6,0.3c0.6,0,1.1-0.1,1.6-0.3h2.4
					c0.3,0,0.5,0,0.8,0.1v5.3c-0.8-0.4-1.7-0.7-2.6-0.7c-2.9,0-5.2,2.3-5.2,5.2c0,1.2,0.4,2.4,1.2,3.3h-0.1c-0.7,0-1.3,0.1-1.9,0.3
					L41,44.6c-1-0.8-2.3-1.3-3.7-1.3c0.6-0.8,1-1.8,1-2.9c0-1.6-0.8-3.1-2-4C36.5,33.7,38.7,31.5,41.5,31.5L41.5,31.5z M93.8,15.3
					c-1.9,0-3.5,1.5-3.5,3.5c0,1.9,1.5,3.4,3.5,3.4s3.4-1.5,3.4-3.4C97.3,16.8,95.7,15.3,93.8,15.3L93.8,15.3z M97.6,40.5
					c0,1-0.4,2-1,2.8c0.5,0,0.9,0.1,1.3,0.2l0.3-0.3c0.1-0.1,0.2-0.2,0.2-0.2C98.1,42.2,97.8,41.4,97.6,40.5L97.6,40.5z M97.2,22.3
					h-2.1c-0.4,0.2-0.9,0.3-1.4,0.3c-0.5,0-0.9-0.1-1.4-0.3h-2.1c-0.7,0-1.3,0.1-1.9,0.4c1.5,0.8,2.6,2.4,2.6,4.2c0,1.1-0.4,2-1,2.8
					c3.1,0,5.7,2.6,5.7,5.7v1.1c0.9,0.8,1.6,1.9,1.8,3.1v-7.6c0-2.5,1.7-4.7,4.1-5.4v0C101.7,24.3,99.7,22.3,97.2,22.3L97.2,22.3z
					 M71.8,15.3c-1.9,0-3.4,1.5-3.4,3.5c0,1.9,1.5,3.4,3.4,3.4c1.9,0,3.5-1.5,3.5-3.4C75.3,16.8,73.7,15.3,71.8,15.3L71.8,15.3z
					 M77,36.1c0,0.1-0.1,0.1-0.1,0.2c0,0,0.1,0,0.1,0V36.1z M75.2,22.3h-2.1c-0.4,0.2-0.9,0.3-1.4,0.3c-0.5,0-0.9-0.1-1.4-0.3h-2.1
					c-1.9,0-3.6,1.3-4.2,3c2.4,0.4,4.3,2.3,4.7,4.6c0.9-1.1,2.3-1.8,3.9-1.8c2.6,0,4.7,1.9,5,4.4c0.4-0.7,1.1-1.4,1.8-1.8v-3.9
					C79.6,24.3,77.6,22.3,75.2,22.3L75.2,22.3z M86.4,23.2c-2.1,0-3.7,1.7-3.7,3.7c0,2.1,1.7,3.7,3.7,3.7c2.1,0,3.7-1.7,3.7-3.7
					C90.1,24.8,88.5,23.2,86.4,23.2L86.4,23.2z M90.1,30.7h-2.2c-0.5,0.2-0.9,0.3-1.5,0.3c-0.5,0-1-0.1-1.5-0.3h-2.2
					c-2.6,0-4.8,2.1-4.8,4.8v0.8c0.2,0,0.4,0,0.5,0c2.9,0,5.2,2.3,5.2,5.2c0,1-0.3,1.9-0.7,2.7v0.6c0.6,0,1.1,0.1,1.6,0.3l0.5-0.4
					c1-0.8,2.3-1.3,3.7-1.3c-0.6-0.8-1-1.8-1-2.9c0-2.7,2.2-4.9,4.9-4.9c0.8,0,1.5,0.2,2.1,0.5v-0.4C94.9,32.8,92.7,30.7,90.1,30.7
					L90.1,30.7z M59.6,18.7c-2.1,0-3.7,1.7-3.7,3.7c0,2.1,1.7,3.7,3.7,3.7c2.1,0,3.7-1.7,3.7-3.7C63.3,20.3,61.7,18.7,59.6,18.7
					L59.6,18.7z M63.3,26.2h-2.2c-0.5,0.2-0.9,0.3-1.5,0.3c-0.5,0-1-0.1-1.5-0.3h-2.2c-2.6,0-4.8,2.1-4.8,4.8v6.6
					c0.4,0.3,0.7,0.7,0.9,1.1c0.5-0.1,1-0.2,1.6-0.2c-0.7-0.9-1.1-2.1-1.1-3.3c0-3,2.5-5.5,5.5-5.5c3,0,5.5,2.5,5.5,5.5
					c0,1-0.3,2-0.8,2.8c0.1,0,0.2,0,0.3,0c0.4,0,0.9,0.1,1.3,0.2c1-1,2.2-1.6,3.6-1.8V35c-0.2-0.6-0.3-1.1-0.3-1.8
					c0-0.6,0.1-1.2,0.3-1.8V31C68.1,28.3,65.9,26.2,63.3,26.2L63.3,26.2z M72.8,29.2c-2.2,0-4,1.8-4,4c0,2.2,1.8,4,4,4
					c2.2,0,4-1.8,4-4C76.9,31,75.1,29.2,72.8,29.2L72.8,29.2z M70.6,73.5c0.3,0.1,0.6,0.1,0.9,0.1h0.2l-0.2-4.1
					c-0.2,0.2-0.5,0.3-0.7,0.4L70.6,73.5z M75.3,37.3h-0.9c-0.5,0.2-1,0.3-1.6,0.3c-0.6,0-1.1-0.1-1.6-0.3h-2.4
					c-1.3,0-2.4,0.5-3.3,1.2c1.7,0.8,2.9,2.4,3.1,4.4c0.3,0.7,0.4,1.5,0.4,2.3v2.1l0.1,0l0.4-0.5c1.2-1.4,3-2.2,4.8-2.2h0.1
					c-0.7-0.9-1.2-2-1.2-3.3C73.3,39.8,74.1,38.3,75.3,37.3L75.3,37.3z M58.1,30.9c2.4,0,4.3,1.9,4.3,4.3c0,1.2-0.5,2.4-1.4,3.2
					c-0.6,0.2-1.1,0.6-1.6,1c-0.4,0.2-0.9,0.2-1.4,0.2c-2.4,0-4.3-1.9-4.3-4.3C53.7,32.8,55.7,30.9,58.1,30.9L58.1,30.9z M55.9,78.7
					c-0.6-0.1-1.2-0.4-1.7-0.8l0.4-8.5c0.3,0.2,0.5,0.4,0.8,0.5L55.9,78.7z M67.9,46.4v0.8c-0.1,0-0.2,0-0.3,0h-0.2
					C67.6,46.9,67.8,46.6,67.9,46.4L67.9,46.4z M53.8,39.7h2.6c0.5,0.2,1.1,0.3,1.7,0.3c0.3,0,0.6,0,0.8-0.1c-0.8,1-1.4,2.2-1.4,3.6
					c0,1.4,0.5,2.6,1.3,3.6h-0.2c-0.6,0-1.1,0.1-1.6,0.2l-0.4-0.4c-1.2-1.4-3-2.2-4.8-2.2h-0.1c0.7-0.9,1.2-2,1.2-3.3
					c0-0.6-0.1-1.1-0.3-1.6C53,39.7,53.4,39.7,53.8,39.7L53.8,39.7z M13,20.2c1.8,0,3.3,1.5,3.3,3.3c0,1.8-1.5,3.3-3.3,3.3
					c-1.8,0-3.3-1.5-3.3-3.3C9.7,21.6,11.2,20.2,13,20.2L13,20.2z M9.8,26.8h1.9c0.4,0.2,0.8,0.2,1.3,0.2c0.5,0,0.9-0.1,1.3-0.2h1.9
					c2.3,0,4.2,1.9,4.2,4.2v3.1c-0.1,0-0.1,0-0.2,0c-2.6,0-4.6,2.1-4.6,4.6c0,1,0.3,1.9,0.8,2.7c-0.5,0-0.9,0.1-1.4,0.2l-0.2-0.2
					c-0.9-1.1-2.2-1.7-3.6-1.8c0.5-0.7,0.7-1.5,0.7-2.4c0-2.4-2-4.4-4.4-4.4c-0.7,0-1.4,0.2-2,0.5v-2.4C5.6,28.6,7.5,26.8,9.8,26.8
					L9.8,26.8z M106.7,20.4c2,0,3.5,1.6,3.5,3.5c0,2-1.6,3.5-3.5,3.5c-2,0-3.5-1.6-3.5-3.5C103.1,22,104.7,20.4,106.7,20.4
					L106.7,20.4z M103.2,27.6h2.1c0.4,0.2,0.9,0.3,1.4,0.3s1-0.1,1.4-0.3h2.1c2.5,0,4.5,2,4.5,4.5v3.1c-0.3,0.6-0.5,1.3-0.5,2
					c0,0.7,0.2,1.4,0.5,2v0.4c-1.3,0.1-2.5,0.8-3.4,1.8l-0.2,0.2c-0.4-0.1-0.9-0.2-1.4-0.2c0.5-0.8,0.8-1.7,0.8-2.7
					c0-2.6-2.1-4.6-4.6-4.6c-2.6,0-4.6,2.1-4.6,4.6c0,1,0.3,1.9,0.8,2.7c-1,0-2,0.3-2.8,0.9c-0.5-0.7-0.7-1.5-0.7-2.4v-7.7
					C98.6,29.6,100.7,27.6,103.2,27.6L103.2,27.6z M63.1,39c2.5,0,4.5,2,4.5,4.5c0,2.5-2,4.5-4.5,4.5c-2.5,0-4.5-2-4.5-4.5
					C58.6,41,60.6,39,63.1,39L63.1,39z M58.6,48.2h2.7c0.6,0.2,1.2,0.3,1.8,0.3s1.2-0.1,1.8-0.3h2.7c3.2,0,5.8,2.6,5.8,5.8v9.9
					c0,2.4-1.5,4.5-3.6,5.4L69,84.4c-0.1,2.5-2,4.7-4.4,4.7h-1V71.8c0-0.3-0.2-0.5-0.5-0.5c-0.3,0-0.5,0.2-0.5,0.5v17.3h-1
					c-2.4,0-4.3-2.2-4.4-4.7l-0.8-15.1c-2.1-0.9-3.6-3-3.6-5.4V54C52.8,50.8,55.4,48.2,58.6,48.2L58.6,48.2z M78.5,37.2
					c-2.3,0-4.2,1.9-4.2,4.2c0,2.3,1.9,4.2,4.2,4.2c2.3,0,4.2-1.9,4.2-4.2C82.7,39.1,80.9,37.2,78.5,37.2L78.5,37.2z M82.7,45.7
					h-2.5c-0.5,0.2-1.1,0.3-1.7,0.3c-0.6,0-1.1-0.1-1.7-0.3h-2.5c-1.6,0-3,0.7-4,1.8c2.5,1.1,4.3,3.6,4.3,6.4v9.9
					c0,1.9-0.8,3.7-2.1,5l0.5,10.5c0.1,2.3,1.8,4.3,4.1,4.3h0.9v-16c0-0.2,0.2-0.4,0.4-0.4c0.2,0,0.4,0.2,0.4,0.4v16h0.9
					c2.3,0,4-2,4.1-4.3l0.7-14c2-0.8,3.4-2.7,3.4-5v-9.2C88.1,48.2,85.7,45.7,82.7,45.7L82.7,45.7z M92.7,36.5
					c-2.1,0-3.9,1.7-3.9,3.9c0,2.1,1.7,3.9,3.9,3.9c2.1,0,3.9-1.7,3.9-3.9C96.6,38.2,94.9,36.5,92.7,36.5L92.7,36.5z M96.6,44.3
					h-2.3c-0.5,0.2-1,0.3-1.5,0.3c-0.5,0-1.1-0.1-1.5-0.3h-2.3c-1.2,0-2.3,0.4-3.1,1.1c2,1.1,3.4,3.3,3.4,5.7v9.2
					c0,1.8-0.8,3.5-2,4.7l0.5,10.2c0.1,2.1,1.7,4,3.8,4h0.9V64.5c0-0.2,0.2-0.4,0.4-0.4s0.4,0.2,0.4,0.4v14.8H94
					c2.1,0,3.7-1.9,3.8-4l0.7-12.9c1.8-0.7,3.1-2.5,3.1-4.6v-8.5C101.5,46.5,99.3,44.3,96.6,44.3L96.6,44.3z M106,35.1
					c-2,0-3.6,1.6-3.6,3.6c0,2,1.6,3.6,3.6,3.6c2,0,3.6-1.6,3.6-3.6C109.6,36.7,107.9,35.1,106,35.1L106,35.1z M109.5,42.4h-2.1
					c-0.4,0.2-0.9,0.3-1.4,0.3c-0.5,0-1-0.1-1.4-0.3h-2.1c-1.3,0-2.5,0.6-3.3,1.4c2.1,0.9,3.5,3,3.5,5.5v8.5c0,1.6-0.7,3.1-1.8,4.2
					l0.5,9.2c0.1,2,1.6,3.7,3.5,3.7h0.8V61.2c0-0.2,0.2-0.4,0.4-0.4c0.2,0,0.4,0.2,0.4,0.4v13.7h0.8c1.9,0,3.4-1.7,3.5-3.7l0.6-12
					c1.7-0.7,2.9-2.3,2.9-4.3V47C114.1,44.5,112.1,42.4,109.5,42.4L109.5,42.4z M118.6,33.9c-1.8,0-3.3,1.5-3.3,3.3
					c0,1.8,1.5,3.3,3.3,3.3c1.8,0,3.3-1.5,3.3-3.3C121.9,35.4,120.4,33.9,118.6,33.9L118.6,33.9z M121.9,40.6h-2
					c-0.4,0.2-0.8,0.2-1.3,0.2c-0.5,0-0.9-0.1-1.3-0.2h-2c-1.3,0-2.4,0.6-3.2,1.5c1.8,0.9,3,2.8,3,4.9v7.9c0,1.3-0.5,2.6-1.3,3.5
					l0.5,8.8c0.1,1.8,1.4,3.4,3.2,3.4h0.7V57.9c0-0.2,0.2-0.4,0.4-0.4c0.2,0,0.4,0.2,0.4,0.4v12.7l0.7,0c1.8,0,3.1-1.6,3.2-3.4
					l0.6-11.1c1.6-0.6,2.7-2.2,2.7-4v-7.3C126.1,42.5,124.2,40.6,121.9,40.6L121.9,40.6z M47.6,37.2c2.3,0,4.2,1.9,4.2,4.2
					c0,2.3-1.9,4.2-4.2,4.2c-2.3,0-4.2-1.9-4.2-4.2C43.4,39.1,45.3,37.2,47.6,37.2L47.6,37.2z M43.4,45.7h2.5
					c0.5,0.2,1.1,0.3,1.7,0.3c0.6,0,1.1-0.1,1.7-0.3h2.5c1.6,0,3.1,0.7,4.1,1.9c-2.5,1.1-4.2,3.6-4.2,6.4v9.9c0,1.9,0.7,3.6,2,4.9
					l-0.5,10.6c-0.1,2.3-1.8,4.3-4.1,4.3h-0.9v-16c0-0.2-0.2-0.4-0.4-0.4c-0.2,0-0.4,0.2-0.4,0.4v16h-0.9c-2.3,0-4-2-4.1-4.3
					l-0.7-14c-2-0.8-3.4-2.7-3.4-5v-9.2C38,48.2,40.5,45.7,43.4,45.7L43.4,45.7z M33.4,36.5c2.1,0,3.9,1.7,3.9,3.9
					c0,2.1-1.7,3.9-3.9,3.9s-3.9-1.7-3.9-3.9C29.5,38.2,31.3,36.5,33.4,36.5L33.4,36.5z M29.6,44.3h2.3c0.5,0.2,1,0.3,1.5,0.3
					s1.1-0.1,1.5-0.3h2.3c1.2,0,2.3,0.4,3.1,1.1c-2,1.1-3.4,3.3-3.4,5.7v9.2c0,1.8,0.8,3.5,2,4.7l-0.5,10.2c-0.1,2.1-1.7,4-3.8,4
					h-0.9V64.5c0-0.2-0.2-0.4-0.4-0.4c-0.2,0-0.4,0.2-0.4,0.4v14.8h-0.9c-2.1,0-3.7-1.9-3.8-4l-0.7-12.9c-1.8-0.7-3.1-2.5-3.1-4.6
					v-8.5C24.6,46.5,26.8,44.3,29.6,44.3L29.6,44.3z M20.2,35.1c2,0,3.6,1.6,3.6,3.6c0,2-1.6,3.6-3.6,3.6c-2,0-3.6-1.6-3.6-3.6
					C16.6,36.7,18.2,35.1,20.2,35.1L20.2,35.1z M16.6,42.4h2.1c0.4,0.2,0.9,0.3,1.4,0.3c0.5,0,1-0.1,1.4-0.3h2.1
					c1.3,0,2.5,0.6,3.3,1.4c-2.1,0.9-3.5,3-3.5,5.5v8.5c0,1.6,0.7,3.1,1.8,4.2l-0.5,9.2c-0.1,2-1.6,3.7-3.5,3.7h-0.8V61.2
					c0-0.2-0.2-0.4-0.4-0.4c-0.2,0-0.4,0.2-0.4,0.4v13.7H19c-1.9,0-3.4-1.7-3.5-3.7l-0.6-12c-1.7-0.7-2.9-2.3-2.9-4.3V47
					C12,44.5,14.1,42.4,16.6,42.4L16.6,42.4z M7.6,33.9c1.8,0,3.3,1.5,3.3,3.3c0,1.8-1.5,3.3-3.3,3.3S4.2,39,4.2,37.2
					C4.2,35.4,5.7,33.9,7.6,33.9L7.6,33.9z M4.3,40.6h2c0.4,0.2,0.8,0.2,1.3,0.2c0.5,0,0.9-0.1,1.3-0.2h2c1.3,0,2.4,0.6,3.2,1.5
					c-1.8,0.9-3,2.8-3,4.9v7.9c0,1.3,0.5,2.6,1.3,3.5l-0.5,8.8c-0.1,1.8-1.4,3.4-3.2,3.4H7.9V57.9c0-0.2-0.2-0.4-0.4-0.4
					c-0.2,0-0.4,0.2-0.4,0.4v12.7l-0.7,0c-1.8,0-3.1-1.6-3.2-3.4L2.7,56.1c-1.6-0.6-2.7-2.2-2.7-4v-7.3C0,42.5,1.9,40.6,4.3,40.6
					L4.3,40.6z"/>
			</g>
			<g id="Group-19" transform="translate(199.000000, 0.000000)">
				<path id="Rectangle" class="st6" d="M105.2,37.8H4.8C2.1,37.8,0,35.7,0,33V16.5c0-2.6,2.1-4.8,4.8-4.8h100.5
					c2.6,0,4.8,2.1,4.8,4.8V33C110,35.7,107.9,37.8,105.2,37.8z"/>
				<g class="st0">
					<path class="st1" d="M31.8,23.9c0,1.5-1.1,2.4-2.9,2.4h-1.3v1.8H26v-6.7h2.9C30.6,21.4,31.8,22.4,31.8,23.9z M30.2,23.9
						c0-0.7-0.5-1.2-1.4-1.2h-1.3V25h1.3C29.7,25,30.2,24.6,30.2,23.9z"/>
					<path class="st1" d="M37.2,25.2v2.9h-1.4v-0.6c-0.3,0.5-0.8,0.7-1.6,0.7c-1.2,0-1.9-0.7-1.9-1.5c0-0.9,0.6-1.5,2.2-1.5h1.2
						c0-0.6-0.4-1-1.2-1c-0.5,0-1.1,0.2-1.5,0.5l-0.5-1c0.6-0.4,1.4-0.6,2.2-0.6C36.3,22.9,37.2,23.6,37.2,25.2z M35.7,26.5V26h-1
						c-0.7,0-0.9,0.3-0.9,0.6c0,0.4,0.3,0.6,0.8,0.6C35.1,27.2,35.6,26.9,35.7,26.5z"/>
					<path class="st1" d="M41.7,22.9v1.4c-0.1,0-0.2,0-0.3,0c-0.8,0-1.4,0.4-1.4,1.4v2.4h-1.5V23H40v0.7
						C40.3,23.2,40.9,22.9,41.7,22.9z"/>
					<path class="st1" d="M46.1,27.9c-0.3,0.2-0.8,0.3-1.2,0.3c-1.2,0-1.9-0.6-1.9-1.8v-2.1h-0.8v-1.1H43v-1.2h1.5v1.2h1.3v1.1h-1.3
						v2.1c0,0.4,0.2,0.7,0.6,0.7c0.2,0,0.4-0.1,0.6-0.2L46.1,27.9z"/>
					<path class="st1" d="M46.8,21.4c0-0.5,0.4-0.8,0.9-0.8c0.6,0,0.9,0.3,0.9,0.8c0,0.5-0.4,0.9-0.9,0.9
						C47.1,22.3,46.8,21.9,46.8,21.4z M46.9,23h1.5v5.1h-1.5V23z"/>
					<path class="st1" d="M49.4,25.5c0-1.5,1.2-2.6,2.9-2.6c1.1,0,1.9,0.5,2.3,1.3l-1.2,0.6c-0.3-0.5-0.7-0.7-1.2-0.7
						c-0.8,0-1.3,0.5-1.3,1.4s0.6,1.4,1.3,1.4c0.5,0,0.9-0.2,1.2-0.7l1.2,0.6c-0.4,0.8-1.2,1.3-2.3,1.3
						C50.6,28.2,49.4,27.1,49.4,25.5z"/>
					<path class="st1" d="M55.2,21.4c0-0.5,0.4-0.8,0.9-0.8s0.9,0.3,0.9,0.8c0,0.5-0.4,0.9-0.9,0.9S55.2,21.9,55.2,21.4z M55.4,23
						h1.5v5.1h-1.5V23z"/>
					<path class="st1" d="M63.8,25.5c0,1.6-1.1,2.6-2.5,2.6c-0.6,0-1.2-0.2-1.5-0.6v2.4h-1.5v-7h1.4v0.6c0.4-0.4,0.9-0.7,1.6-0.7
						C62.7,22.9,63.8,23.9,63.8,25.5z M62.3,25.5c0-0.9-0.6-1.4-1.3-1.4s-1.3,0.5-1.3,1.4c0,0.9,0.6,1.4,1.3,1.4
						S62.3,26.4,62.3,25.5z"/>
					<path class="st1" d="M69.3,25.2v2.9h-1.4v-0.6c-0.3,0.5-0.8,0.7-1.6,0.7c-1.2,0-1.9-0.7-1.9-1.5c0-0.9,0.6-1.5,2.2-1.5h1.2
						c0-0.6-0.4-1-1.2-1c-0.5,0-1.1,0.2-1.5,0.5l-0.5-1c0.6-0.4,1.4-0.6,2.2-0.6C68.4,22.9,69.3,23.6,69.3,25.2z M67.8,26.5V26h-1
						c-0.7,0-0.9,0.3-0.9,0.6c0,0.4,0.3,0.6,0.8,0.6C67.2,27.2,67.6,26.9,67.8,26.5z"/>
					<path class="st1" d="M75.8,25.2v2.9h-1.5v-2.7c0-0.8-0.4-1.2-1-1.2c-0.7,0-1.2,0.4-1.2,1.4v2.5h-1.5V23H72v0.6
						c0.4-0.4,1-0.7,1.7-0.7C74.9,22.9,75.8,23.6,75.8,25.2z"/>
					<path class="st1" d="M80.5,27.9c-0.3,0.2-0.8,0.3-1.2,0.3c-1.2,0-1.9-0.6-1.9-1.8v-2.1h-0.8v-1.1h0.8v-1.2h1.5v1.2h1.3v1.1
						h-1.3v2.1c0,0.4,0.2,0.7,0.6,0.7c0.2,0,0.4-0.1,0.6-0.2L80.5,27.9z"/>
					<path class="st1" d="M84.1,21.4h1.5v6.7h-1.5V21.4z"/>
					<path class="st1" d="M87.2,21.4h3c2.2,0,3.7,1.3,3.7,3.3s-1.5,3.3-3.7,3.3h-3V21.4z M90.2,26.8c1.3,0,2.2-0.8,2.2-2.1
						s-0.9-2.1-2.2-2.1h-1.4v4.1H90.2z"/>
					<path class="st1" d="M99.9,21.4v6.7h-1.5v-5.4H97v-1.2H99.9z"/>
				</g>
				<g transform="translate(3.600000, 0.000000)">
					<defs>
						<filter id="Adobe_OpacityMaskFilter_1_" filterUnits="userSpaceOnUse" x="1.8" y="5.4" width="14.4" height="34.2">
							<feColorMatrix  type="matrix" values="1 0 0 0 0  0 1 0 0 0  0 0 1 0 0  0 0 0 1 0"/>
						</filter>
					</defs>
					<mask maskUnits="userSpaceOnUse" x="1.8" y="5.4" width="14.4" height="34.2" id="mask-4_1_">
						<g class="st7">
							<polygon id="path-3_1_" class="st4" points="0,0 17.7,0 17.7,42.9 0,42.9 							"/>
						</g>
					</mask>
					<path class="st8" d="M9,5.4c1.8,0,3.2,1.4,3.2,3.1c0,1.7-1.4,3.1-3.2,3.1s-3.2-1.4-3.2-3.1C5.8,6.8,7.2,5.4,9,5.4 M5.9,11.7
						h1.9c0.4,0.1,0.8,0.2,1.3,0.2s0.9-0.1,1.3-0.2h1.9c2.2,0,4.1,1.8,4.1,4v6.8c0,1.7-1.1,3.1-2.5,3.7l-0.5,10.3
						c-0.1,1.7-1.4,3.2-3.1,3.2H9.3V27.8c0-0.2-0.2-0.3-0.3-0.3s-0.3,0.1-0.3,0.3v11.8l-0.7,0c-1.7,0-3-1.5-3.1-3.2L4.3,26.1
						c-1.5-0.6-2.5-2-2.5-3.7v-6.8C1.8,13.5,3.6,11.7,5.9,11.7"/>
					<defs>
						<filter id="Adobe_OpacityMaskFilter_2_" filterUnits="userSpaceOnUse" x="1.8" y="5.4" width="14.4" height="34.2">
							<feColorMatrix  type="matrix" values="1 0 0 0 0  0 1 0 0 0  0 0 1 0 0  0 0 0 1 0"/>
						</filter>
					</defs>
					<mask maskUnits="userSpaceOnUse" x="1.8" y="5.4" width="14.4" height="34.2" id="mask-4_2_">
						<g class="st9">
							<polygon id="path-3_2_" class="st4" points="0,0 17.7,0 17.7,42.9 0,42.9 							"/>
						</g>
					</mask>
					<path class="st10" d="M9,5.4c1.8,0,3.2,1.4,3.2,3.1c0,1.7-1.4,3.1-3.2,3.1s-3.2-1.4-3.2-3.1C5.8,6.8,7.2,5.4,9,5.4 M5.9,11.7
						h1.9c0.4,0.1,0.8,0.2,1.3,0.2s0.9-0.1,1.3-0.2h1.9c2.2,0,4.1,1.8,4.1,4v6.8c0,1.7-1.1,3.1-2.5,3.7l-0.5,10.3
						c-0.1,1.7-1.4,3.2-3.1,3.2H9.3V27.8c0-0.2-0.2-0.3-0.3-0.3s-0.3,0.1-0.3,0.3v11.8l-0.7,0c-1.7,0-3-1.5-3.1-3.2L4.3,26.1
						c-1.5-0.6-2.5-2-2.5-3.7v-6.8C1.8,13.5,3.6,11.7,5.9,11.7"/>
				</g>
			</g>
			<g transform="translate(199.000000, 37.000000)">
				<path class="st6" d="M105.2,37.8H4.8C2.1,37.8,0,35.7,0,33V16.5c0-2.6,2.1-4.8,4.8-4.8h100.5c2.6,0,4.8,2.1,4.8,4.8V33
					C110,35.7,107.9,37.8,105.2,37.8z"/>
				<g class="st0">
					<path class="st1" d="M31.8,23.9c0,1.5-1.1,2.4-2.9,2.4h-1.3v1.8H26v-6.7h2.9C30.6,21.4,31.8,22.4,31.8,23.9z M30.2,23.9
						c0-0.7-0.5-1.2-1.4-1.2h-1.3V25h1.3C29.7,25,30.2,24.6,30.2,23.9z"/>
					<path class="st1" d="M37.2,25.2v2.9h-1.4v-0.6c-0.3,0.5-0.8,0.7-1.6,0.7c-1.2,0-1.9-0.7-1.9-1.5c0-0.9,0.6-1.5,2.2-1.5h1.2
						c0-0.6-0.4-1-1.2-1c-0.5,0-1.1,0.2-1.5,0.5l-0.5-1c0.6-0.4,1.4-0.6,2.2-0.6C36.3,22.9,37.2,23.6,37.2,25.2z M35.7,26.5V26h-1
						c-0.7,0-0.9,0.3-0.9,0.6c0,0.4,0.3,0.6,0.8,0.6C35.1,27.2,35.6,26.9,35.7,26.5z"/>
					<path class="st1" d="M41.7,22.9v1.4c-0.1,0-0.2,0-0.3,0c-0.8,0-1.4,0.4-1.4,1.4v2.4h-1.5V23H40v0.7
						C40.3,23.2,40.9,22.9,41.7,22.9z"/>
					<path class="st1" d="M46.1,27.9c-0.3,0.2-0.8,0.3-1.2,0.3c-1.2,0-1.9-0.6-1.9-1.8v-2.1h-0.8v-1.1H43v-1.2h1.5v1.2h1.3v1.1h-1.3
						v2.1c0,0.4,0.2,0.7,0.6,0.7c0.2,0,0.4-0.1,0.6-0.2L46.1,27.9z"/>
					<path class="st1" d="M46.8,21.4c0-0.5,0.4-0.8,0.9-0.8c0.6,0,0.9,0.3,0.9,0.8c0,0.5-0.4,0.9-0.9,0.9
						C47.1,22.3,46.8,21.9,46.8,21.4z M46.9,23h1.5v5.1h-1.5V23z"/>
					<path class="st1" d="M49.4,25.5c0-1.5,1.2-2.6,2.9-2.6c1.1,0,1.9,0.5,2.3,1.3l-1.2,0.6c-0.3-0.5-0.7-0.7-1.2-0.7
						c-0.8,0-1.3,0.5-1.3,1.4s0.6,1.4,1.3,1.4c0.5,0,0.9-0.2,1.2-0.7l1.2,0.6c-0.4,0.8-1.2,1.3-2.3,1.3
						C50.6,28.2,49.4,27.1,49.4,25.5z"/>
					<path class="st1" d="M55.2,21.4c0-0.5,0.4-0.8,0.9-0.8s0.9,0.3,0.9,0.8c0,0.5-0.4,0.9-0.9,0.9S55.2,21.9,55.2,21.4z M55.4,23
						h1.5v5.1h-1.5V23z"/>
					<path class="st1" d="M63.8,25.5c0,1.6-1.1,2.6-2.5,2.6c-0.6,0-1.2-0.2-1.5-0.6v2.4h-1.5v-7h1.4v0.6c0.4-0.4,0.9-0.7,1.6-0.7
						C62.7,22.9,63.8,23.9,63.8,25.5z M62.3,25.5c0-0.9-0.6-1.4-1.3-1.4s-1.3,0.5-1.3,1.4c0,0.9,0.6,1.4,1.3,1.4
						S62.3,26.4,62.3,25.5z"/>
					<path class="st1" d="M69.3,25.2v2.9h-1.4v-0.6c-0.3,0.5-0.8,0.7-1.6,0.7c-1.2,0-1.9-0.7-1.9-1.5c0-0.9,0.6-1.5,2.2-1.5h1.2
						c0-0.6-0.4-1-1.2-1c-0.5,0-1.1,0.2-1.5,0.5l-0.5-1c0.6-0.4,1.4-0.6,2.2-0.6C68.4,22.9,69.3,23.6,69.3,25.2z M67.8,26.5V26h-1
						c-0.7,0-0.9,0.3-0.9,0.6c0,0.4,0.3,0.6,0.8,0.6C67.2,27.2,67.6,26.9,67.8,26.5z"/>
					<path class="st1" d="M75.8,25.2v2.9h-1.5v-2.7c0-0.8-0.4-1.2-1-1.2c-0.7,0-1.2,0.4-1.2,1.4v2.5h-1.5V23H72v0.6
						c0.4-0.4,1-0.7,1.7-0.7C74.9,22.9,75.8,23.6,75.8,25.2z"/>
					<path class="st1" d="M80.5,27.9c-0.3,0.2-0.8,0.3-1.2,0.3c-1.2,0-1.9-0.6-1.9-1.8v-2.1h-0.8v-1.1h0.8v-1.2h1.5v1.2h1.3v1.1
						h-1.3v2.1c0,0.4,0.2,0.7,0.6,0.7c0.2,0,0.4-0.1,0.6-0.2L80.5,27.9z"/>
					<path class="st1" d="M84.1,21.4h1.5v6.7h-1.5V21.4z"/>
					<path class="st1" d="M87.2,21.4h3c2.2,0,3.7,1.3,3.7,3.3s-1.5,3.3-3.7,3.3h-3V21.4z M90.2,26.8c1.3,0,2.2-0.8,2.2-2.1
						s-0.9-2.1-2.2-2.1h-1.4v4.1H90.2z"/>
					<path class="st1" d="M102.3,26.8v1.3h-5v-1l2.6-2.4c0.6-0.6,0.7-0.9,0.7-1.2c0-0.5-0.4-0.8-1.1-0.8c-0.6,0-1.1,0.2-1.4,0.7
						L97,22.6c0.5-0.8,1.4-1.2,2.6-1.2c1.5,0,2.5,0.8,2.5,2c0,0.6-0.2,1.2-1.1,2.1l-1.5,1.4H102.3z"/>
				</g>
				<g transform="translate(3.600000, 0.000000)">
					<defs>
						<filter id="Adobe_OpacityMaskFilter_3_" filterUnits="userSpaceOnUse" x="1.8" y="5.4" width="14.4" height="34.2">
							<feColorMatrix  type="matrix" values="1 0 0 0 0  0 1 0 0 0  0 0 1 0 0  0 0 0 1 0"/>
						</filter>
					</defs>
					<mask maskUnits="userSpaceOnUse" x="1.8" y="5.4" width="14.4" height="34.2" id="mask-6_1_">
						<g class="st11">
							<polygon id="path-5_1_" class="st4" points="0,0 17.7,0 17.7,42.9 0,42.9 							"/>
						</g>
					</mask>
					<path class="st12" d="M9,5.4c1.8,0,3.2,1.4,3.2,3.1c0,1.7-1.4,3.1-3.2,3.1s-3.2-1.4-3.2-3.1C5.8,6.8,7.2,5.4,9,5.4 M5.9,11.7
						h1.9c0.4,0.1,0.8,0.2,1.3,0.2s0.9-0.1,1.3-0.2h1.9c2.2,0,4.1,1.8,4.1,4v6.8c0,1.7-1.1,3.1-2.5,3.7l-0.5,10.3
						c-0.1,1.7-1.4,3.2-3.1,3.2H9.3V27.8c0-0.2-0.2-0.3-0.3-0.3s-0.3,0.1-0.3,0.3v11.8l-0.7,0c-1.7,0-3-1.5-3.1-3.2L4.3,26.1
						c-1.5-0.6-2.5-2-2.5-3.7v-6.8C1.8,13.5,3.6,11.7,5.9,11.7"/>
					<defs>
						<filter id="Adobe_OpacityMaskFilter_4_" filterUnits="userSpaceOnUse" x="1.8" y="5.4" width="14.4" height="34.2">
							<feColorMatrix  type="matrix" values="1 0 0 0 0  0 1 0 0 0  0 0 1 0 0  0 0 0 1 0"/>
						</filter>
					</defs>
					<mask maskUnits="userSpaceOnUse" x="1.8" y="5.4" width="14.4" height="34.2" id="mask-6_2_">
						<g class="st13">
							<polygon id="path-5_2_" class="st4" points="0,0 17.7,0 17.7,42.9 0,42.9 							"/>
						</g>
					</mask>
					<path class="st14" d="M9,5.4c1.8,0,3.2,1.4,3.2,3.1c0,1.7-1.4,3.1-3.2,3.1s-3.2-1.4-3.2-3.1C5.8,6.8,7.2,5.4,9,5.4 M5.9,11.7
						h1.9c0.4,0.1,0.8,0.2,1.3,0.2s0.9-0.1,1.3-0.2h1.9c2.2,0,4.1,1.8,4.1,4v6.8c0,1.7-1.1,3.1-2.5,3.7l-0.5,10.3
						c-0.1,1.7-1.4,3.2-3.1,3.2H9.3V27.8c0-0.2-0.2-0.3-0.3-0.3s-0.3,0.1-0.3,0.3v11.8l-0.7,0c-1.7,0-3-1.5-3.1-3.2L4.3,26.1
						c-1.5-0.6-2.5-2-2.5-3.7v-6.8C1.8,13.5,3.6,11.7,5.9,11.7"/>
				</g>
			</g>
			<g transform="translate(199.000000, 73.000000)">
				<path class="st6" d="M105.2,37.8H4.8C2.1,37.8,0,35.7,0,33V16.5c0-2.6,2.1-4.8,4.8-4.8h100.5c2.6,0,4.8,2.1,4.8,4.8V33
					C110,35.7,107.9,37.8,105.2,37.8z"/>
				<g class="st0">
					<path class="st1" d="M31.8,23.9c0,1.5-1.1,2.4-2.9,2.4h-1.3v1.8H26v-6.7h2.9C30.6,21.4,31.8,22.4,31.8,23.9z M30.2,23.9
						c0-0.7-0.5-1.2-1.4-1.2h-1.3V25h1.3C29.7,25,30.2,24.6,30.2,23.9z"/>
					<path class="st1" d="M37.2,25.2v2.9h-1.4v-0.6c-0.3,0.5-0.8,0.7-1.6,0.7c-1.2,0-1.9-0.7-1.9-1.5c0-0.9,0.6-1.5,2.2-1.5h1.2
						c0-0.6-0.4-1-1.2-1c-0.5,0-1.1,0.2-1.5,0.5l-0.5-1c0.6-0.4,1.4-0.6,2.2-0.6C36.3,22.9,37.2,23.6,37.2,25.2z M35.7,26.5V26h-1
						c-0.7,0-0.9,0.3-0.9,0.6c0,0.4,0.3,0.6,0.8,0.6C35.1,27.2,35.6,26.9,35.7,26.5z"/>
					<path class="st1" d="M41.7,22.9v1.4c-0.1,0-0.2,0-0.3,0c-0.8,0-1.4,0.4-1.4,1.4v2.4h-1.5V23H40v0.7
						C40.3,23.2,40.9,22.9,41.7,22.9z"/>
					<path class="st1" d="M46.1,27.9c-0.3,0.2-0.8,0.3-1.2,0.3c-1.2,0-1.9-0.6-1.9-1.8v-2.1h-0.8v-1.1H43v-1.2h1.5v1.2h1.3v1.1h-1.3
						v2.1c0,0.4,0.2,0.7,0.6,0.7c0.2,0,0.4-0.1,0.6-0.2L46.1,27.9z"/>
					<path class="st1" d="M46.8,21.4c0-0.5,0.4-0.8,0.9-0.8c0.6,0,0.9,0.3,0.9,0.8c0,0.5-0.4,0.9-0.9,0.9
						C47.1,22.3,46.8,21.9,46.8,21.4z M46.9,23h1.5v5.1h-1.5V23z"/>
					<path class="st1" d="M49.4,25.5c0-1.5,1.2-2.6,2.9-2.6c1.1,0,1.9,0.5,2.3,1.3l-1.2,0.6c-0.3-0.5-0.7-0.7-1.2-0.7
						c-0.8,0-1.3,0.5-1.3,1.4s0.6,1.4,1.3,1.4c0.5,0,0.9-0.2,1.2-0.7l1.2,0.6c-0.4,0.8-1.2,1.3-2.3,1.3
						C50.6,28.2,49.4,27.1,49.4,25.5z"/>
					<path class="st1" d="M55.2,21.4c0-0.5,0.4-0.8,0.9-0.8s0.9,0.3,0.9,0.8c0,0.5-0.4,0.9-0.9,0.9S55.2,21.9,55.2,21.4z M55.4,23
						h1.5v5.1h-1.5V23z"/>
					<path class="st1" d="M63.8,25.5c0,1.6-1.1,2.6-2.5,2.6c-0.6,0-1.2-0.2-1.5-0.6v2.4h-1.5v-7h1.4v0.6c0.4-0.4,0.9-0.7,1.6-0.7
						C62.7,22.9,63.8,23.9,63.8,25.5z M62.3,25.5c0-0.9-0.6-1.4-1.3-1.4s-1.3,0.5-1.3,1.4c0,0.9,0.6,1.4,1.3,1.4
						S62.3,26.4,62.3,25.5z"/>
					<path class="st1" d="M69.3,25.2v2.9h-1.4v-0.6c-0.3,0.5-0.8,0.7-1.6,0.7c-1.2,0-1.9-0.7-1.9-1.5c0-0.9,0.6-1.5,2.2-1.5h1.2
						c0-0.6-0.4-1-1.2-1c-0.5,0-1.1,0.2-1.5,0.5l-0.5-1c0.6-0.4,1.4-0.6,2.2-0.6C68.4,22.9,69.3,23.6,69.3,25.2z M67.8,26.5V26h-1
						c-0.7,0-0.9,0.3-0.9,0.6c0,0.4,0.3,0.6,0.8,0.6C67.2,27.2,67.6,26.9,67.8,26.5z"/>
					<path class="st1" d="M75.8,25.2v2.9h-1.5v-2.7c0-0.8-0.4-1.2-1-1.2c-0.7,0-1.2,0.4-1.2,1.4v2.5h-1.5V23H72v0.6
						c0.4-0.4,1-0.7,1.7-0.7C74.9,22.9,75.8,23.6,75.8,25.2z"/>
					<path class="st1" d="M80.5,27.9c-0.3,0.2-0.8,0.3-1.2,0.3c-1.2,0-1.9-0.6-1.9-1.8v-2.1h-0.8v-1.1h0.8v-1.2h1.5v1.2h1.3v1.1
						h-1.3v2.1c0,0.4,0.2,0.7,0.6,0.7c0.2,0,0.4-0.1,0.6-0.2L80.5,27.9z"/>
					<path class="st1" d="M84.1,21.4h1.5v6.7h-1.5V21.4z"/>
					<path class="st1" d="M87.2,21.4h3c2.2,0,3.7,1.3,3.7,3.3s-1.5,3.3-3.7,3.3h-3V21.4z M90.2,26.8c1.3,0,2.2-0.8,2.2-2.1
						s-0.9-2.1-2.2-2.1h-1.4v4.1H90.2z"/>
					<path class="st1" d="M102.3,26.1c0,1.1-0.9,2.1-2.8,2.1c-0.9,0-1.9-0.3-2.5-0.7l0.6-1.2c0.5,0.4,1.2,0.6,1.9,0.6
						c0.8,0,1.2-0.3,1.2-0.9c0-0.5-0.4-0.8-1.2-0.8h-0.7v-1l1.4-1.5h-2.8v-1.2h4.7v1l-1.5,1.7C101.7,24.3,102.3,25.1,102.3,26.1z"/>
				</g>
				<g transform="translate(3.600000, 0.000000)">
					<defs>
						<filter id="Adobe_OpacityMaskFilter_5_" filterUnits="userSpaceOnUse" x="1.8" y="5.4" width="14.4" height="34.2">
							<feColorMatrix  type="matrix" values="1 0 0 0 0  0 1 0 0 0  0 0 1 0 0  0 0 0 1 0"/>
						</filter>
					</defs>
					<mask maskUnits="userSpaceOnUse" x="1.8" y="5.4" width="14.4" height="34.2" id="mask-8_1_">
						<g class="st15">
							<polygon id="path-7_1_" class="st4" points="0,0 17.7,0 17.7,42.9 0,42.9 							"/>
						</g>
					</mask>
					<path class="st16" d="M9,5.4c1.8,0,3.2,1.4,3.2,3.1c0,1.7-1.4,3.1-3.2,3.1s-3.2-1.4-3.2-3.1C5.8,6.8,7.2,5.4,9,5.4 M5.9,11.7
						h1.9c0.4,0.1,0.8,0.2,1.3,0.2s0.9-0.1,1.3-0.2h1.9c2.2,0,4.1,1.8,4.1,4v6.8c0,1.7-1.1,3.1-2.5,3.7l-0.5,10.3
						c-0.1,1.7-1.4,3.2-3.1,3.2H9.3V27.8c0-0.2-0.2-0.3-0.3-0.3s-0.3,0.1-0.3,0.3v11.8l-0.7,0c-1.7,0-3-1.5-3.1-3.2L4.3,26.1
						c-1.5-0.6-2.5-2-2.5-3.7v-6.8C1.8,13.5,3.6,11.7,5.9,11.7"/>
					<defs>
						<filter id="Adobe_OpacityMaskFilter_6_" filterUnits="userSpaceOnUse" x="1.8" y="5.4" width="14.4" height="34.2">
							<feColorMatrix  type="matrix" values="1 0 0 0 0  0 1 0 0 0  0 0 1 0 0  0 0 0 1 0"/>
						</filter>
					</defs>
					<mask maskUnits="userSpaceOnUse" x="1.8" y="5.4" width="14.4" height="34.2" id="mask-8_2_">
						<g class="st17">
							<polygon id="path-7_2_" class="st4" points="0,0 17.7,0 17.7,42.9 0,42.9 							"/>
						</g>
					</mask>
					<path class="st18" d="M9,5.4c1.8,0,3.2,1.4,3.2,3.1c0,1.7-1.4,3.1-3.2,3.1s-3.2-1.4-3.2-3.1C5.8,6.8,7.2,5.4,9,5.4 M5.9,11.7
						h1.9c0.4,0.1,0.8,0.2,1.3,0.2s0.9-0.1,1.3-0.2h1.9c2.2,0,4.1,1.8,4.1,4v6.8c0,1.7-1.1,3.1-2.5,3.7l-0.5,10.3
						c-0.1,1.7-1.4,3.2-3.1,3.2H9.3V27.8c0-0.2-0.2-0.3-0.3-0.3s-0.3,0.1-0.3,0.3v11.8l-0.7,0c-1.7,0-3-1.5-3.1-3.2L4.3,26.1
						c-1.5-0.6-2.5-2-2.5-3.7v-6.8C1.8,13.5,3.6,11.7,5.9,11.7"/>
				</g>
			</g>
		</g>
	</g>
</g>
</svg>
