<?xml version="1.0" encoding="utf-8"?>
<!-- Generator: Adobe Illustrator 23.0.6, SVG Export Plug-In . SVG Version: 6.00 Build 0)  -->
<svg version="1.1" id="Layer_1" xmlns="http://www.w3.org/2000/svg" xmlns:xlink="http://www.w3.org/1999/xlink" x="0px" y="0px"
	 viewBox="0 0 54 54" style="enable-background:new 0 0 54 54;" xml:space="preserve">
<style type="text/css">
	.st0{fill:url(#Oval-Copy-3_1_);}
	.st1{fill:none;}
	.st2{fill:none;stroke:#262262;stroke-width:0.5496;stroke-linecap:round;stroke-linejoin:round;}
	.st3{fill:none;stroke:#979797;stroke-width:0.5;}
	.st4{fill:none;stroke:#262262;stroke-width:0.5512;stroke-linecap:round;stroke-linejoin:round;}
</style>
<title>Group 4</title>
<desc>Created with Sketch.</desc>
<g id="HOMEPAGE">
	<g id="Homepage-v4" transform="translate(-476.000000, -106.000000)">
		<g id="Group-4" transform="translate(476.000000, 106.000000)">
			
				<linearGradient id="Oval-Copy-3_1_" gradientUnits="userSpaceOnUse" x1="-164.4427" y1="175.2407" x2="-172.4003" y2="175.2407" gradientTransform="matrix(53.25 0 0 -54 8987 9490)">
				<stop  offset="0" style="stop-color:#73BCE2"/>
				<stop  offset="0.5847" style="stop-color:#75C6A2"/>
				<stop  offset="1" style="stop-color:#FDD883"/>
			</linearGradient>
			<ellipse id="Oval-Copy-3" class="st0" cx="26.6" cy="27" rx="26.6" ry="27"/>
			<g id="Group-2" transform="translate(0.750000, 0.000000)">
				<g id="Oval-Copy-7">
				</g>
				<g transform="translate(10.875000, 10.267606)">
					<path id="Path" class="st1" d="M14.9,3.8c0,1.3-0.7,2.4-1.7,3.1s-2.4,0.6-3.5,0S7.9,5.1,7.9,3.8c0-1.9,1.6-3.5,3.5-3.5
						S14.9,1.9,14.9,3.8"/>
					<path class="st2" d="M14.9,3.8c0,1.3-0.7,2.4-1.7,3.1s-2.4,0.6-3.5,0S7.9,5.1,7.9,3.8c0-1.9,1.6-3.5,3.5-3.5S14.9,1.9,14.9,3.8
						L14.9,3.8z"/>
					<path class="st1" d="M23.7,3.8c0,1.9-1.6,3.5-3.5,3.5s-3.5-1.6-3.5-3.5c0-1.9,1.6-3.5,3.5-3.5S23.7,1.9,23.7,3.8"/>
					<path id="Path-Copy" class="st3" d="M23.7,3.8c0,1.9-1.6,3.5-3.5,3.5s-3.5-1.6-3.5-3.5c0-1.9,1.6-3.5,3.5-3.5
						S23.7,1.9,23.7,3.8"/>
					<path id="Shape" class="st2" d="M23.7,3.8c0,1.9-1.6,3.5-3.5,3.5s-3.5-1.6-3.5-3.5c0-1.9,1.6-3.5,3.5-3.5S23.7,1.9,23.7,3.8
						L23.7,3.8z M9.5,18.1l1.8,4c0.1,0.2,0.2,0.5,0.2,0.8v0.7l0.8-1.8c0.2-0.3,0.4-0.6,0.7-0.8c0.2-0.1,0.5-0.2,0.8-0.2h4.1
						c0.7,0,1.2,0.4,1.5,1l0.8,1.8v-0.7c0-0.3,0.1-0.5,0.2-0.8l1.8-4c0.2-0.3,0.4-0.6,0.7-0.8c0.2-0.1,0.5-0.2,0.8-0.2h2.1v-1.9
						c0-0.1,0-0.1,0-0.2c-1.9,0-3.5-1.6-3.5-3.5c0-0.7,0.2-1.3,0.5-1.9c-0.2-0.1-0.4-0.1-0.6-0.1h-4.1c-0.3,0-0.6,0.1-0.8,0.2
						c-0.3,0.2-0.6,0.4-0.7,0.8l-0.5,1c1.9,0.2,3.3,1.8,3.1,3.7s-1.7,3.4-3.6,3.3c-1.9-0.1-3.4-1.6-3.4-3.5c0-1.8,1.4-3.3,3.1-3.5
						l-0.5-1c-0.3-0.6-0.9-1-1.5-1H9.4c-0.2,0-0.4,0-0.6,0.1c0.3,0.5,0.5,1.2,0.5,1.9c0,1.9-1.5,3.5-3.5,3.5c0,0.1,0,0.1,0,0.2v1.9
						h2.1C8.6,17.1,9.2,17.5,9.5,18.1L9.5,18.1z"/>
					<path class="st3" d="M19.3,15c0,1.9-1.6,3.5-3.5,3.5s-3.5-1.6-3.5-3.5s1.6-3.5,3.5-3.5S19.3,13,19.3,15"/>
					<path class="st2" d="M19.3,15c0,1.9-1.6,3.5-3.5,3.5s-3.5-1.6-3.5-3.5s1.6-3.5,3.5-3.5S19.3,13,19.3,15L19.3,15z M21.2,25.7
						l-1.8-4c-0.3-0.6-0.9-1-1.5-1h-4.1c-0.3,0-0.6,0.1-0.8,0.2c-0.3,0.2-0.6,0.4-0.7,0.8l-1.8,4c-0.1,0.2-0.2,0.5-0.2,0.8v3.5
						c0,0.6,0.2,1.1,0.6,1.5s0.9,0.6,1.5,0.6h6.9c0.4,0,0.8-0.1,1.1-0.3c0.6-0.4,1-1.1,1-1.8v-3.5C21.4,26.2,21.3,25.9,21.2,25.7
						L21.2,25.7z"/>
					<path class="st1" d="M8.8,9.6C8.2,8.6,7,7.9,5.9,7.9c-1.9,0-3.4,1.6-3.4,3.5S3.9,15,5.9,15l0,0c1.9,0,3.5-1.6,3.5-3.5
						C9.3,10.8,9.1,10.1,8.8,9.6"/>
					<path class="st2" d="M8.8,9.6C8.2,8.6,7,7.9,5.9,7.9c-1.9,0-3.4,1.6-3.4,3.5S3.9,15,5.9,15l0,0c1.9,0,3.5-1.6,3.5-3.5
						C9.3,10.8,9.1,10.1,8.8,9.6L8.8,9.6z"/>
					<path class="st1" d="M11.2,22l-1.8-4c-0.3-0.6-0.9-1-1.5-1H3.8c-0.3,0-0.6,0.1-0.8,0.2c-0.3,0.2-0.6,0.4-0.7,0.8l-1.8,4
						c-0.1,0.2-0.2,0.5-0.2,0.8v3.5c0,1.2,0.9,2.1,2.1,2.1h6.9c0.3,0,0.6-0.1,0.9-0.2v-1.7c0-0.3,0.1-0.5,0.2-0.8l0.8-1.9l0.1-0.3
						v-0.7C11.4,22.5,11.4,22.3,11.2,22"/>
					<path class="st2" d="M11.2,22l-1.8-4c-0.3-0.6-0.9-1-1.5-1H3.8c-0.3,0-0.6,0.1-0.8,0.2c-0.3,0.2-0.6,0.4-0.7,0.8l-1.8,4
						c-0.1,0.2-0.2,0.5-0.2,0.8v3.5c0,1.2,0.9,2.1,2.1,2.1h6.9c0.3,0,0.6-0.1,0.9-0.2v-1.7c0-0.3,0.1-0.5,0.2-0.8l0.8-1.9l0.1-0.3
						v-0.7C11.4,22.5,11.4,22.3,11.2,22L11.2,22z"/>
					<path class="st3" d="M22.9,9.6c-0.4,0.6-0.5,1.2-0.5,1.9c0,1.9,1.5,3.5,3.5,3.5l0,0c1.9,0,3.5-1.6,3.5-3.5s-1.6-3.5-3.5-3.5
						C24.6,7.9,23.5,8.5,22.9,9.6z"/>
					<path class="st4" d="M22.9,9.6c-0.4,0.6-0.5,1.2-0.5,1.9c0,1.9,1.5,3.5,3.5,3.5l0,0c1.9,0,3.5-1.6,3.5-3.5s-1.6-3.5-3.5-3.5
						C24.6,7.9,23.5,8.5,22.9,9.6z"/>
					<path class="st1" d="M31.2,22l-1.8-4c-0.3-0.6-0.9-1-1.5-1h-4.1c-0.3,0-0.6,0.1-0.8,0.2c-0.3,0.2-0.6,0.4-0.7,0.8l-1.8,4
						c-0.1,0.2-0.2,0.5-0.2,0.8v0.7l0.1,0.3l0.8,1.9c0.1,0.2,0.2,0.5,0.2,0.8v1.7c0.3,0.1,0.6,0.2,0.9,0.2h6.9
						c0.4,0,0.8-0.1,1.1-0.3c0.6-0.4,1-1.1,1-1.8v-3.5C31.4,22.5,31.3,22.3,31.2,22"/>
					<path class="st2" d="M31.2,22l-1.8-4c-0.3-0.6-0.9-1-1.5-1h-4.1c-0.3,0-0.6,0.1-0.8,0.2c-0.3,0.2-0.6,0.4-0.7,0.8l-1.8,4
						c-0.1,0.2-0.2,0.5-0.2,0.8v0.7l0.1,0.3l0.8,1.9c0.1,0.2,0.2,0.5,0.2,0.8v1.7c0.3,0.1,0.6,0.2,0.9,0.2h6.9
						c0.4,0,0.8-0.1,1.1-0.3c0.6-0.4,1-1.1,1-1.8v-3.5C31.4,22.5,31.3,22.3,31.2,22L31.2,22z"/>
				</g>
			</g>
		</g>
	</g>
</g>
</svg>
