<svg xmlns="http://www.w3.org/2000/svg" xmlns:xlink="http://www.w3.org/1999/xlink" viewBox="0 0 1146 153.3">
	<style>
		.st0{fill:#5eaee0}.st1{fill:#282560}.st2{fill:#909294}
	</style>
	<path d="M193 69.3c0-2.6.8-5.4 2.3-8.3 1.5-3 3.9-5.4 7.1-7.4 3.2-2 7.1-3 11.6-3 5.5 0 9.6 1.3 12.2 4 2.6 2.6 3.9 5.8 3.9 9.6 0 5.2-2 9.6-6 13.4-4 3.8-9.1 5.7-15.3 5.7-4.5 0-8.3-1.1-11.3-3.4-3-2.4-4.5-5.9-4.5-10.6m10.8 3.8c0 2.2.4 3.8 1.2 4.9.8 1.1 2.1 1.6 3.7 1.6 3.1 0 5.5-2.3 7.5-6.9 1.9-4.6 2.9-8.5 2.9-11.7 0-2.4-.5-4.2-1.4-5.2-.9-1.1-2-1.6-3.2-1.6-3.3 0-5.9 2.4-7.8 7.2-1.9 4.9-2.9 8.7-2.9 11.7" class="st0"/>
	<path d="M249.7 55.9L246 72.5c-2.1 9.6-5 16.7-8.6 21.4-3.6 4.7-8.4 7.1-14.5 7.1-2.9 0-5-.6-6.4-1.7-1.3-1.1-2-2.5-2-4 0-1.4.5-2.6 1.6-3.6 1-1 2.3-1.5 3.6-1.5 2.9 0 4.5 1.5 5 4.6.2 1.6.9 2.3 2 2.3 1.2 0 2.2-1 3.2-3.1.9-2.1 2.1-6.2 3.5-12.5l1.1-5.4c.3-1.3.6-2.3.7-3l3.7-17.2h-4.8l1.3-4.1h4.4c2.3-8.4 5-14 8.1-16.8 3.1-2.7 6.8-4.1 11.1-4.1 2.9 0 5.2.6 7 1.7 1.8 1.1 2.7 2.6 2.7 4.4 0 1.2-.4 2.3-1.3 3.2-.9.9-2 1.4-3.3 1.4-1.9 0-3.6-1.4-5-4.1-1-2-2.1-3.1-3.1-3.1-1.2 0-2.2 1.6-2.8 4.9l-2.4 12.4h5.5l-1.3 4.1h-5.3z" class="st0"/>
	<path d="M47.1 13.4h29l36.9 88.2H81.2l-4.6-11.8H46l-4.5 11.8H10.2l36.9-88.2zM69.4 69l-8-21.3-8 21.3h16zM116.7 10.2h28.4v91.3h-28.4zM157.9 10.2h28.4v91.3h-28.4z" class="st1"/>
	<g>
		<path d="M273.8 62.3V14h29.8v47.9c0 10.9 5.6 15.5 13.5 15.5s13.5-4.3 13.5-14.9V14h29.8v47.6c0 29.9-17.4 41.6-43.5 41.6-26.2.1-43.1-11.9-43.1-40.9M364 93.3l9.6-16.1c8.3 5.1 17.5 7.6 25.3 7.6 2.8 0 4.1-.6 4.1-2.3v-.2c0-1.4-1.2-2.3-8.1-4-17.3-4.3-27.9-8.9-27.9-23V55c0-15 12-23.4 29.8-23.4 11.3 0 22.4 2.9 30.6 7.9l-9 16.9c-7.3-4-16-6.4-21.8-6.4-2.8 0-4 .8-4 2.1v.3c0 1.4 1.5 2.3 8.4 4 17.3 4.3 27.6 9 27.6 23v.3c0 14.9-11.1 23.5-29.6 23.5-13.3-.1-25.3-3.4-35-9.9" class="st1"/>
	</g>
	<path d="M453 10.9h1.5v133.3H453z" class="st2"/>
	<g>
		<path d="M482.6 32.9h-2.5V13.6h-7.2v-2.2h16.9v2.2h-7.2v19.3zM495.9 32.9h-2.4V10.4h2.4v9.3c1-1.7 2.7-3.1 5.4-3.1 3.8 0 6.1 2.6 6.1 6.4v9.9H505v-9.3c0-3-1.6-4.8-4.4-4.8-2.7 0-4.8 2-4.8 5v9.1zM519.5 31.2c2.2 0 3.7-.9 5-2.2l1.5 1.3c-1.6 1.8-3.5 3-6.6 3-4.4 0-7.9-3.4-7.9-8.3 0-4.6 3.2-8.3 7.6-8.3 4.7 0 7.4 3.8 7.4 8.4v.7h-12.6c.4 3.4 2.8 5.4 5.6 5.4zm4.7-7.2c-.2-2.9-1.9-5.4-5.1-5.4-2.8 0-4.9 2.3-5.2 5.4h10.3zM482.1 62.2h-5.2v7.6h-2.4V48.3h8.1c4.9 0 8.1 2.6 8.1 6.9-.1 4.6-4 7-8.6 7zm.2-11.7h-5.4V60h5.3c3.6 0 5.9-1.9 5.9-4.8 0-3.1-2.3-4.7-5.8-4.7zM497 69.8h-2.4V53.9h2.4V58c1.2-2.6 3.5-4.6 6.5-4.4v2.6h-.2c-3.5 0-6.3 2.5-6.3 7.3v6.3zM513.4 68.1c2.2 0 3.7-.9 5-2.2l1.5 1.3c-1.6 1.8-3.5 3-6.6 3-4.4 0-7.9-3.4-7.9-8.3 0-4.6 3.2-8.3 7.6-8.3 4.7 0 7.4 3.8 7.4 8.4v.7h-12.6c.4 3.5 2.8 5.4 5.6 5.4zm4.7-7.1c-.2-2.9-1.9-5.4-5.1-5.4-2.8 0-4.9 2.3-5.2 5.4h10.3zM531.8 70.2c-4.6 0-8.2-3.8-8.2-8.3 0-4.5 3.5-8.3 8.2-8.3 3 0 4.9 1.3 6.4 2.8l-1.6 1.7c-1.3-1.3-2.7-2.4-4.8-2.4-3.2 0-5.7 2.7-5.7 6.2s2.5 6.2 5.8 6.2c2 0 3.6-1 4.9-2.4l1.5 1.4c-1.6 1.8-3.5 3.1-6.5 3.1zM542.3 50.4v-2.6h2.7v2.6h-2.7zm.1 19.4V53.9h2.4v15.9h-2.4zM555.6 70.1c-2.3 0-4.8-.9-6.6-2.3l1.2-1.7c1.7 1.3 3.6 2 5.5 2s3.3-1 3.3-2.5v-.1c0-1.6-1.9-2.2-4-2.8-2.5-.7-5.3-1.6-5.3-4.5v-.1c0-2.7 2.3-4.6 5.4-4.6 1.9 0 4.1.7 5.7 1.8l-1.1 1.8c-1.5-1-3.2-1.5-4.7-1.5-1.9 0-3.1 1-3.1 2.3v.1c0 1.5 2 2.1 4.1 2.7 2.5.7 5.1 1.7 5.1 4.6v.1c.1 3-2.4 4.7-5.5 4.7zM565.7 50.4v-2.6h2.7v2.6h-2.7zm.1 19.4V53.9h2.4v15.9h-2.4zM581 70.2c-4.8 0-8.2-3.8-8.2-8.3 0-4.5 3.5-8.3 8.3-8.3 4.8 0 8.3 3.8 8.3 8.3-.1 4.5-3.6 8.3-8.4 8.3zm0-14.6c-3.4 0-5.8 2.7-5.8 6.2 0 3.4 2.5 6.2 5.9 6.2 3.4 0 5.8-2.7 5.8-6.2 0-3.4-2.6-6.2-5.9-6.2zM596 69.8h-2.4V53.9h2.4v2.8c1-1.7 2.7-3.1 5.4-3.1 3.8 0 6.1 2.6 6.1 6.4v9.9h-2.4v-9.3c0-3-1.6-4.8-4.4-4.8-2.7 0-4.8 2-4.8 5v9zM484.8 100.8h-.1l-7.8-11.5v17.4h-2.4V85.2h2.5l7.8 11.8 7.8-11.8h2.5v21.5h-2.4V89.3l-7.9 11.5zM507.8 105c2.2 0 3.7-.9 5-2.2l1.5 1.3c-1.6 1.8-3.5 3-6.6 3-4.4 0-7.9-3.4-7.9-8.3 0-4.6 3.2-8.3 7.6-8.3 4.7 0 7.4 3.8 7.4 8.4v.7h-12.6c.3 3.5 2.8 5.4 5.6 5.4zm4.6-7.1c-.2-2.9-1.9-5.4-5.1-5.4-2.8 0-4.9 2.3-5.2 5.4h10.3zM531.8 106.7v-3.2c-1.3 1.9-3.2 3.5-6.1 3.5-3.8 0-7.6-3-7.6-8.3 0-5.2 3.8-8.3 7.6-8.3 3 0 4.9 1.6 6.1 3.4v-9.6h2.4v22.5h-2.4zm-5.7-14.1c-3.1 0-5.6 2.3-5.6 6.2 0 3.8 2.6 6.2 5.6 6.2 3 0 5.8-2.5 5.8-6.2s-2.8-6.2-5.8-6.2zM539.5 87.4v-2.6h2.7v2.6h-2.7zm.1 19.3V90.8h2.4v15.9h-2.4zM554.7 107.1c-4.6 0-8.2-3.8-8.2-8.3 0-4.5 3.5-8.3 8.2-8.3 3 0 4.9 1.3 6.4 2.8l-1.6 1.7c-1.3-1.3-2.7-2.4-4.8-2.4-3.2 0-5.7 2.7-5.7 6.2s2.5 6.2 5.8 6.2c2 0 3.6-1 4.9-2.4l1.5 1.4c-1.6 1.8-3.5 3.1-6.5 3.1zM565.2 87.4v-2.6h2.7v2.6h-2.7zm.1 19.3V90.8h2.4v15.9h-2.4zM575.6 106.7h-2.4V90.8h2.4v2.8c1-1.7 2.7-3.1 5.4-3.1 3.8 0 6.1 2.6 6.1 6.4v9.9h-2.4v-9.3c0-3-1.6-4.8-4.4-4.8-2.7 0-4.8 2-4.8 5v9zM599.2 105c2.2 0 3.7-.9 5-2.2l1.5 1.3c-1.6 1.8-3.5 3-6.6 3-4.4 0-7.9-3.4-7.9-8.3 0-4.6 3.2-8.3 7.6-8.3 4.7 0 7.4 3.8 7.4 8.4v.7h-12.6c.3 3.5 2.8 5.4 5.6 5.4zm4.6-7.1c-.2-2.9-1.9-5.4-5.1-5.4-2.8 0-4.9 2.3-5.2 5.4h10.3zM477.1 122.1v21.5h-2.4v-21.5h2.4zM485.4 143.7H483v-15.9h2.4v2.8c1-1.7 2.7-3.1 5.4-3.1 3.8 0 6.1 2.6 6.1 6.4v9.9h-2.4v-9.3c0-3-1.6-4.8-4.4-4.8-2.7 0-4.8 2-4.8 5v9zM502 124.3v-2.6h2.7v2.6H502zm.2 19.4v-15.9h2.4v15.9h-2.4zM513.3 139.2c0 1.9 1.1 2.6 2.7 2.6.8 0 1.5-.2 2.3-.6v2c-.8.4-1.7.7-2.9.7-2.6 0-4.5-1.3-4.5-4.5v-9.6h-2.2v-2.1h2.2V123h2.4v4.8h5v2.1h-5v9.3zM522.6 124.3v-2.6h2.7v2.6h-2.7zm.1 19.4v-15.9h2.4v15.9h-2.4zM531.5 130.8l-.7-1.9c1.8-.8 3.5-1.3 5.8-1.3 4.3 0 6.8 2.2 6.8 6.4v9.7h-2.3v-2.4c-1.1 1.4-3 2.7-5.8 2.7-3 0-5.9-1.7-5.9-5 0-3.4 2.8-5.2 6.8-5.2 2 0 3.5.3 4.9.7v-.5c0-2.9-1.8-4.3-4.7-4.3-1.9 0-3.4.4-4.9 1.1zm.3 8.1c0 2 1.8 3.2 4 3.2 2.9 0 5.3-1.8 5.3-4.3v-1.5c-1.2-.3-2.7-.7-4.7-.7-2.9 0-4.6 1.3-4.6 3.3zM551.5 139.2c0 1.9 1.1 2.6 2.7 2.6.8 0 1.5-.2 2.3-.6v2c-.8.4-1.7.7-2.9.7-2.6 0-4.5-1.3-4.5-4.5v-9.6h-2.2v-2.1h2.2V123h2.4v4.8h5v2.1h-5v9.3zM560.8 124.3v-2.6h2.7v2.6h-2.7zm.1 19.4v-15.9h2.4v15.9h-2.4zM580.6 127.8h2.6l-6.9 16h-2.1l-6.9-16h2.6l5.4 13.2 5.3-13.2zM593 142c2.2 0 3.7-.9 5-2.2l1.5 1.3c-1.6 1.8-3.5 3-6.6 3-4.4 0-7.9-3.4-7.9-8.3 0-4.6 3.2-8.3 7.6-8.3 4.7 0 7.4 3.8 7.4 8.4v.7h-12.6c.3 3.5 2.8 5.4 5.6 5.4zm4.6-7.1c-.2-2.9-1.9-5.4-5.1-5.4-2.8 0-4.9 2.3-5.2 5.4h10.3z" class="st2"/>
	</g>
	<g>
		<path d="M10.2 119.4H22c3.8 0 6.5 1 8.1 2.7 1.5 1.4 2.2 3.4 2.2 5.8v.1c0 3.8-2 6.4-5.1 7.7l6 8.7h-8l-5-7.6h-3.1v7.6h-6.9v-25zm11.5 12c2.4 0 3.7-1.1 3.7-3v-.1c0-2-1.4-3-3.7-3h-4.5v6h4.5zM37.5 119.4h20.1v5.9H44.4v3.8h12v5.5h-12v4h13.4v5.9H37.5v-25.1zM61.8 140.6l3.9-4.6c2.5 2 5.2 3 8.1 3 1.9 0 2.9-.6 2.9-1.7v-.1c0-1-.8-1.6-4.2-2.4-5.3-1.2-9.4-2.7-9.4-7.9v-.1c0-4.6 3.7-8 9.7-8 4.2 0 7.6 1.1 10.3 3.3l-3.5 4.9c-2.3-1.6-4.8-2.5-7-2.5-1.7 0-2.5.7-2.5 1.6v.1c0 1.1.9 1.6 4.3 2.4 5.7 1.2 9.3 3.1 9.3 7.8v.1c0 5.1-4 8.1-10.1 8.1-4.5.2-8.7-1.2-11.8-4zM88.7 119.4h20.1v5.9H95.5v3.8h12v5.5h-12v4H109v5.9H88.7v-25.1zM122.8 119.2h6.7l10.6 25.2h-7.4l-1.8-4.5h-9.6l-1.8 4.5h-7.3l10.6-25.2zm6.1 15.3l-2.8-7.1-2.8 7.1h5.6zM143.5 119.4h11.8c3.8 0 6.5 1 8.1 2.7 1.5 1.4 2.2 3.4 2.2 5.8v.1c0 3.8-2 6.4-5.1 7.7l6 8.7h-8l-5-7.6h-3.1v7.6h-6.9v-25zm11.5 12c2.4 0 3.7-1.1 3.7-3v-.1c0-2-1.4-3-3.7-3h-4.5v6h4.5zM169.3 131.9c0-7.4 5.6-13.1 13.2-13.1 5.1 0 8.4 2.1 10.6 5.2l-5.2 4c-1.4-1.8-3.1-2.9-5.5-2.9-3.5 0-6 3-6 6.6v.1c0 3.7 2.5 6.7 6 6.7 2.6 0 4.1-1.2 5.6-3l5.2 3.7c-2.4 3.2-5.5 5.6-11.1 5.6-7.1.1-12.8-5.4-12.8-12.9zM197.1 119.4h6.9v9.4h8.9v-9.4h6.9v25h-6.9v-9.5H204v9.5h-6.9v-25zM237.5 119.4h10.7c6.3 0 10.4 3.2 10.4 8.8v.1c0 5.9-4.5 9-10.7 9h-3.4v7.1h-6.9v-25zm10.2 12.4c2.5 0 4-1.3 4-3.2v-.1c0-2.1-1.5-3.3-4-3.3h-3.2v6.6h3.2zM262.5 119.4h11.8c3.8 0 6.5 1 8.1 2.7 1.5 1.4 2.2 3.4 2.2 5.8v.1c0 3.8-2 6.4-5.1 7.7l6 8.7h-8l-5-7.6h-3.1v7.6h-6.9v-25zm11.5 12c2.4 0 3.7-1.1 3.7-3v-.1c0-2-1.4-3-3.7-3h-4.5v6h4.5zM287.2 131.9c0-7.2 5.8-13.1 13.5-13.1s13.4 5.7 13.4 12.9v.1c0 7.2-5.8 13-13.5 13-7.6.1-13.4-5.7-13.4-12.9zm19.9 0c0-3.7-2.6-6.8-6.4-6.8-3.8 0-6.3 3.1-6.3 6.7v.1c0 3.6 2.6 6.7 6.4 6.7 3.8 0 6.3-3.1 6.3-6.7zM317.2 131.9c0-7.4 5.7-13.1 13.5-13.1 4.4 0 7.5 1.4 10.1 3.6l-4.1 4.9c-1.8-1.5-3.6-2.4-6-2.4-3.6 0-6.4 3-6.4 6.9v.1c0 4 2.8 6.9 6.8 6.9 1.7 0 3-.4 4-1v-3h-4.9v-5.1h11.5V141c-2.6 2.2-6.3 3.9-10.8 3.9-7.9 0-13.7-5.4-13.7-13zM347.1 119.4h11.8c3.8 0 6.5 1 8.1 2.7 1.5 1.4 2.2 3.4 2.2 5.8v.1c0 3.8-2 6.4-5.1 7.7l6 8.7h-8l-5-7.6H354v7.6h-6.9v-25zm11.5 12c2.4 0 3.7-1.1 3.7-3v-.1c0-2-1.4-3-3.7-3h-4.5v6h4.5zM382.4 119.2h6.7l10.6 25.2h-7.4l-1.8-4.5h-9.6l-1.8 4.5h-7.3l10.6-25.2zm6 15.3l-2.8-7.1-2.8 7.1h5.6zM402.1 119.4h7.3l6 9.7 6-9.7h7.3v25h-6.9V130l-6.4 9.8h-.1l-6.4-9.7v14.3h-6.8v-25z" class="st1"/>
	</g>
	<g>
		<defs>
			<path id="SVGID_1_" d="M1117.1 105.4h-18.9V122h-7V82.5h7v16.4h18.9V82.5h7V122h-7v-16.6zm-33.1 10.3c-4.1 4.3-8.6 7-16.1 7-11.5 0-20.1-9-20.1-20.4 0-11.3 8.4-20.5 20.4-20.5 7.3 0 11.7 2.5 15.5 6.2l-4.5 5.1c-3.2-2.9-6.6-4.9-11.1-4.9-7.6 0-13.1 6.2-13.1 14s5.5 14.1 13.1 14.1c4.9 0 8-2 11.4-5.1l4.5 4.5zm-51.5-5.9V82.5h6.8V122h-5.8l-21.8-28.1V122h-6.8V82.5h6.4l21.2 27.3zm-36.2-27.3v6.2H974V99h19.8v6.2H974v10.6h22.7v6.2H967V82.5h29.3zm-51.7 33.4c4.7 0 7.6-1.9 7.6-5.5 0-3.4-2.7-5.4-8.1-5.4h-11v10.9h11.5zm-2.1-16.7c4.5 0 7.5-1.8 7.5-5.4 0-3.2-2.5-5.1-7-5.1h-10v10.5h9.5zm1.5-16.7c8 0 13 3.9 13 10.1 0 4.9-2.7 7.3-5.7 8.9 4.6 1.6 7.9 4.2 7.9 9.7 0 7.1-5.8 10.9-14.6 10.9h-18.3V82.5H944zm-40.9 17l17.2 22.6h-8.4l-13.5-17.8-6.2 6.3V122h-7V82.5h7v19.9L911 82.5h8.5l-16.4 17zm-33.5-4.1c0-4.4-3.1-6.6-8.2-6.6h-10.1v13.3h10.2c5 0 8.1-2.6 8.1-6.7zm8.3 26.6h-8.2l-9.7-13.8h-8.7V122h-7V82.5H862c9.1 0 14.7 4.8 14.7 12.5 0 6.6-3.9 10.5-9.4 12l10.6 15zm-49.2-19.7c0-7.7-5.6-14.1-13.5-14.1s-13.3 6.3-13.3 14 5.6 14.1 13.5 14.1c7.8 0 13.3-6.2 13.3-14zm7.2-.1c0 11.2-8.6 20.5-20.7 20.5-12.2 0-20.6-9.2-20.6-20.4s8.6-20.5 20.7-20.5c12.2 0 20.6 9.2 20.6 20.4zm-88.7 9.6l9.7-29.4h5.9l9.7 29.4 9.4-29.3h7.3l-13.8 39.8h-6l-9.7-28.4-9.7 28.4h-6l-13.8-39.8h7.5l9.5 29.3z"/>
		</defs>
		<clipPath id="SVGID_2_">
			<use overflow="visible" xlink:href="#SVGID_1_"/>
		</clipPath>
		<g clip-path="url(#SVGID_2_)">
			<defs>
				<path id="SVGID_3_" d="M437-58h800v800H437z"/>
			</defs>
			<clipPath id="SVGID_4_">
				<use overflow="visible" xlink:href="#SVGID_3_"/>
			</clipPath>
			<path fill="#292562" d="M718.9 70.5h416.4V134H718.9z" clip-path="url(#SVGID_4_)"/>
		</g>
	</g>
	<g>
		<defs>
			<path id="SVGID_5_" d="M1117.7 45.9v-.1c0-3.7-2.6-5.7-6.8-5.7h-8.6v11.4h8.8c4.2 0 6.6-2.3 6.6-5.6zm10 26h-10.2l-8.5-12.7h-6.8v12.7h-8.7V32.3h18.1c9.3 0 14.9 4.9 14.9 13.1v.1c0 6.4-3.4 10.4-8.5 12.3l9.7 14.1zm-41.9 0h-30.1V32.3h29.8V40h-21.2v8h18.7v7.7h-18.7V64h21.5v7.9zm-39.7 0h-8.7V56h-16.1v15.9h-8.7V32.3h8.7V48h16.1V32.3h8.7v39.6zm-40.4-6.4c-4.1 4.4-8.6 7.1-16.2 7.1a20 20 0 0 1-20.3-20.3v-.1c0-11.2 8.5-20.5 20.6-20.5 7.5 0 11.9 2.5 15.6 6.1l-5.5 6.4c-3.1-2.8-6.2-4.5-10.1-4.5-6.7 0-11.5 5.5-11.5 12.3v.1c0 6.8 4.7 12.4 11.5 12.4 4.5 0 7.3-1.8 10.4-4.6l5.5 5.6zm-51.4-19.6v-.1c0-3.7-2.6-5.7-6.8-5.7h-8.6v11.4h8.8c4.2 0 6.6-2.3 6.6-5.6zm10 26h-10.2l-8.5-12.7h-6.8v12.7h-8.7V32.3h18.1c9.3 0 14.9 4.9 14.9 13.1v.1c0 6.4-3.4 10.4-8.5 12.3l9.7 14.1zm-56.1-16.6l-5.3-12.8-5.3 12.8h10.6zM924 71.9h-9.1l-3.6-8.9h-16.7l-3.6 8.9h-8.9L899 32h8l17 39.9zm-46.3 0h-30.1V32.3h29.8V40h-21.2v8h18.7v7.7h-18.7V64h21.5v7.9zM840 60.2c0 7.9-6 12.3-14.5 12.3-6 0-12-2.1-16.8-6.3l5.1-6.2c3.6 2.9 7.3 4.8 11.8 4.8 3.6 0 5.7-1.4 5.7-3.7V61c0-2.2-1.4-3.3-8-5-8-2-13.1-4.2-13.1-12.1v-.1c0-7.2 5.8-11.9 13.8-11.9 5.8 0 10.7 1.8 14.7 5l-4.5 6.6c-3.5-2.4-7-3.9-10.3-3.9-3.3 0-5.1 1.5-5.1 3.4 0 2.6 1.7 3.4 8.5 5.2 8 2.1 12.5 5 12.5 11.9v.1zm-36.3 11.7h-30.1V32.3h29.8V40h-21.2v8h18.7v7.7h-18.7V64h21.5v7.9zm-46.8-26v-.1c0-3.7-2.6-5.7-6.8-5.7h-8.6v11.4h8.8c4.1 0 6.6-2.3 6.6-5.6zm10 26h-10.2l-8.5-12.7h-6.8v12.7h-8.7V32.3h18.1c9.3 0 14.9 4.9 14.9 13.1v.1c0 6.4-3.4 10.4-8.5 12.3l9.7 14.1z"/>
		</defs>
		<clipPath id="SVGID_6_">
			<use overflow="visible" xlink:href="#SVGID_5_"/>
		</clipPath>
		<g clip-path="url(#SVGID_6_)">
			<defs>
				<path id="SVGID_7_" d="M437-58h800v800H437z"/>
			</defs>
			<clipPath id="SVGID_8_">
				<use overflow="visible" xlink:href="#SVGID_7_"/>
			</clipPath>
			<path fill="#6fabdd" d="M721.4 20.3H1139v63.5H721.4z" clip-path="url(#SVGID_8_)"/>
		</g>
	</g>
</svg>
