<svg xmlns="http://www.w3.org/2000/svg" viewBox="0 0 174.5 41.8">
	<style>
		.st0{fill:#5eaee0}.st1{fill:#282560}
	</style>
	<path d="M2 1.4h8c2.2 0 3.9.6 5.1 1.8 1 1 1.5 2.3 1.5 4 0 2.8-1.5 4.6-3.7 5.4l4.3 6.2h-4.5L9 13.2H6v5.6H2V1.4zm7.8 8.5c1.9 0 2.9-1 2.9-2.5 0-1.6-1.1-2.5-3-2.5H5.9v5h3.9zM19.7 1.4h13.2v3.4h-9.4v3.5h8.2v3.4h-8.2v3.7H33v3.4H19.7V1.4zM34.9 16.4l2.3-2.7c1.6 1.3 3.2 2.1 5.2 2.1 1.6 0 2.5-.6 2.5-1.6s-.6-1.5-3.5-2.2c-3.5-.9-5.8-1.9-5.8-5.3v-.2c0-3.2 2.5-5.3 6.1-5.3 2.5 0 4.7.8 6.5 2.2l-2 2.9c-1.5-1.1-3.1-1.7-4.5-1.7s-2.2.7-2.2 1.5c0 1.1.7 1.5 3.8 2.3 3.5.9 5.5 2.2 5.5 5.2 0 3.5-2.6 5.4-6.4 5.4-2.7.2-5.4-.7-7.5-2.6zM51.7 1.4h13.2v3.4h-9.4v3.5h8.2v3.4h-8.2v3.7H65v3.4H51.7V1.4zM74.1 1.3h3.5l7.5 17.6h-4L79.5 15h-7.4l-1.6 3.9h-3.9l7.5-17.6zm4 10.3l-2.3-5.7-2.3 5.7h4.6zM87.5 1.4h8c2.2 0 3.9.6 5.1 1.8 1 1 1.5 2.3 1.5 4 0 2.8-1.5 4.6-3.7 5.4l4.3 6.2h-4.5l-3.7-5.6h-3v5.6h-3.8V1.4zm7.7 8.5c1.9 0 2.9-1 2.9-2.5 0-1.6-1.1-2.5-3-2.5h-3.8v5h3.9zM104.4 10.2c0-5 3.7-9.1 9.1-9.1 3.3 0 5.3 1.1 6.9 2.7L118 6.7c-1.3-1.2-2.7-2-4.5-2-2.9 0-5.1 2.4-5.1 5.4 0 3 2.1 5.5 5.1 5.5 2 0 3.2-.8 4.6-2l2.4 2.5a9.02 9.02 0 0 1-7.2 3.1c-5.1 0-8.9-3.9-8.9-9zM123.2 1.4h3.8v6.9h7.1V1.4h3.8v17.5h-3.8v-7H127v7h-3.8V1.4zM141.9 1.4h13.2v3.4h-9.4v3.5h8.2v3.4h-8.2v3.7h9.5v3.4h-13.3V1.4zM158.2 1.4h8c2.2 0 3.9.6 5.1 1.8 1 1 1.5 2.3 1.5 4 0 2.8-1.5 4.6-3.7 5.4l4.3 6.2h-4.5l-3.7-5.6h-3v5.6h-3.8V1.4zm7.8 8.5c1.9 0 2.9-1 2.9-2.5 0-1.6-1.1-2.5-3-2.5h-3.8v5h3.9z" class="st0"/>
	<path d="M1 23.4h2.1l5 14.6L13 23.4h1.6L19.4 38l5-14.6h2.1L20.3 41h-1.7l-4.8-14.2-4.9 14.3H7.3L1 23.4zM28.4 32.2c0-4.9 3.6-9.1 8.9-9.1s8.9 4.2 8.9 9-3.6 9-8.9 9c-5.3.1-8.9-4-8.9-8.9zm15.8 0c0-4-2.9-7.3-6.9-7.3s-6.8 3.2-6.8 7.2 2.9 7.2 6.9 7.2 6.8-3.1 6.8-7.1zM50.4 23.4h7.5c2.1 0 3.9.6 5 1.7.9.8 1.3 2.1 1.3 3.4 0 2.9-2 4.6-4.7 5.1l5.4 7.1h-2.4l-5.1-6.8h-5v6.8h-2V23.4zm7.4 9c2.6 0 4.5-1.3 4.5-3.6v-.1c0-2.1-1.6-3.4-4.5-3.4h-5.4v7.1h5.4zM68.5 23.4h2v10.4l10-10.4H83L75.5 31l7.8 9.8h-2.5l-6.7-8.5-3.7 3.8v4.7h-2V23.4zM86.5 23.4h7.4c2 0 3.6.6 4.6 1.5.7.8 1.1 1.7 1.1 2.8v.1c0 2.3-1.4 3.4-2.8 4 2.1.6 3.7 1.8 3.7 4.2 0 3-2.5 4.8-6.3 4.8h-7.8V23.4zm11.1 4.7c0-1.7-1.4-2.8-3.9-2.8h-5.3v6h5.2c2.4-.1 4-1.1 4-3.2zM93.9 33h-5.5v6.2h5.9c2.6 0 4.3-1.2 4.3-3.1 0-2-1.6-3.1-4.7-3.1zM104.5 23.4h12.6v1.8h-10.7v6h9.5V33h-9.5v6.1h10.8v1.8h-12.8V23.4zM121.3 23.4h1.8l11 14v-14h1.9v17.5h-1.6l-11.3-14.3v14.3h-1.9V23.4zM140.2 32.2c0-5 3.7-9.1 8.8-9.1 3.2 0 5.1 1.1 6.8 2.8l-1.3 1.4c-1.5-1.4-3.1-2.4-5.5-2.4-3.9 0-6.8 3.1-6.8 7.2 0 4 2.9 7.2 6.8 7.2 2.4 0 4-.9 5.6-2.5l1.3 1.3c-1.8 1.8-3.8 3.1-7 3.1-4.9 0-8.7-3.9-8.7-9zM159.5 23.4h2v7.8h10.1v-7.8h2v17.5h-2V33h-10.1v7.9h-2V23.4z" class="st1"/>
</svg>
