<svg xmlns="http://www.w3.org/2000/svg" xmlns:xlink="http://www.w3.org/1999/xlink" viewBox="0 0 221 132">
    <defs>
        <radialGradient id="c" cx="48.65%" cy="50.3%" r="93.37%" fx="48.65%" fy="50.3%" gradientTransform="matrix(0 -1 .67985 0 .14 .99)">
            <stop offset="0%" stop-color="#5754F8"/>
            <stop offset="100%" stop-color="#31280D"/>
        </radialGradient>
        <path id="b" d="M2.81 0A2.82 2.82 0 0 0 0 2.81v119.97a2.82 2.82 0 0 0 2.81 2.81h210.65a2.82 2.82 0 0 0 2.8-2.81V2.8a2.82 2.82 0 0 0-2.8-2.81H2.8z"/>
        <filter id="a" width="103.7%" height="108%" x="-1.8%" y="-3.2%" filterUnits="objectBoundingBox">
            <feOffset dy="2" in="SourceAlpha" result="shadowOffsetOuter1"/>
            <feGaussianBlur in="shadowOffsetOuter1" result="shadowBlurOuter1" stdDeviation="1"/>
            <feColorMatrix in="shadowBlurOuter1" result="shadowMatrixOuter1" values="0 0 0 0 0 0 0 0 0 0 0 0 0 0 0 0 0 0 0.12 0"/>
            <feOffset in="SourceAlpha" result="shadowOffsetOuter2"/>
            <feGaussianBlur in="shadowOffsetOuter2" result="shadowBlurOuter2" stdDeviation="1"/>
            <feColorMatrix in="shadowBlurOuter2" result="shadowMatrixOuter2" values="0 0 0 0 0 0 0 0 0 0 0 0 0 0 0 0 0 0 0.12 0"/>
            <feMerge>
                <feMergeNode in="shadowMatrixOuter1"/>
                <feMergeNode in="shadowMatrixOuter2"/>
            </feMerge>
        </filter>
        <path id="d" d="M0 0h132v126H0z"/>
    </defs>
    <g fill="none" fill-rule="evenodd">
        <g transform="translate(2 2)">
            <use fill="#000" filter="url(#a)" xlink:href="#b"/>
            <use fill="url(#c)" xlink:href="#b"/>
        </g>
        <g transform="translate(86 2)">
            <mask id="e" fill="#fff">
                <use xlink:href="#d"/>
            </mask>
            <path fill="#FFF" d="M29.82 10.5h3.1L27.12 28h-3.45l-4.32-12.95L14.95 28h-3.47l-5.8-17.5h3.37l4.35 13.3 4.53-13.3h3l4.42 13.38 4.47-13.38zm11.83 17.68c-4.1 0-7.1-2.86-7.1-6.86s3-6.82 7.1-6.82c4.15 0 7.13 2.82 7.13 6.82s-2.98 6.86-7.13 6.86zm0-2.68c2.27 0 3.98-1.63 3.98-4.18s-1.7-4.17-3.98-4.17c-2.25 0-3.95 1.63-3.95 4.18s1.7 4.17 3.95 4.17zm13.1-8.9c.9-1.4 2.52-2.1 4.75-2.1v2.98c-.27-.05-.5-.08-.73-.08-2.37 0-3.87 1.4-3.87 4.13V28h-3.13V14.65h2.98v1.95zM72.35 28l-4.63-5.73-2.32 2.2V28h-3.13V9.45h3.13v11.2l6.47-6h3.75l-5.57 5.6 6.1 7.75h-3.8zm9.95.18c-2.22 0-4.45-.66-5.65-1.5l1.2-2.38a8.98 8.98 0 0 0 4.65 1.32c1.97 0 2.8-.55 2.8-1.47 0-2.55-8.25-.15-8.25-5.47 0-2.53 2.28-4.18 5.88-4.18 1.77 0 3.8.43 5 1.15l-1.2 2.37a7.3 7.3 0 0 0-3.83-1c-1.9 0-2.8.63-2.8 1.5 0 2.7 8.25.3 8.25 5.53 0 2.5-2.3 4.13-6.05 4.13zM98.45 14.5c3.9 0 6.77 2.7 6.77 6.82 0 4.16-2.87 6.86-6.77 6.86-1.7 0-3.2-.58-4.28-1.8v6.47h-3.12v-18.2h2.98v1.75a5.5 5.5 0 0 1 4.42-1.9zm-.35 11c2.25 0 3.95-1.63 3.95-4.18s-1.7-4.17-3.95-4.17-3.97 1.63-3.97 4.18 1.72 4.17 3.97 4.17zm15.2-11c3.85 0 6.08 1.82 6.08 5.68V28h-2.95v-1.63c-.76 1.15-2.2 1.8-4.2 1.8-3.06 0-4.98-1.67-4.98-4 0-2.22 1.5-3.97 5.55-3.97h3.45V20c0-1.82-1.1-2.9-3.33-2.9-1.5 0-3.05.5-4.05 1.32l-1.22-2.27c1.42-1.1 3.5-1.65 5.65-1.65zm-.42 11.4c1.52 0 2.84-.7 3.37-2.07v-1.55h-3.22c-2.13 0-2.7.8-2.7 1.77 0 1.13.95 1.85 2.55 1.85zm16.62 2.28c-4.22 0-7.22-2.86-7.22-6.86s3-6.82 7.22-6.82c2.6 0 4.68 1.07 5.7 3.1l-2.4 1.4c-.8-1.27-2-1.85-3.33-1.85-2.3 0-4.05 1.6-4.05 4.18 0 2.6 1.75 4.17 4.05 4.17 1.33 0 2.53-.57 3.33-1.85l2.4 1.4c-1.02 2-3.1 3.13-5.7 3.13zm20.95-6.78c0 .25-.02.63-.05.93h-10.47c.37 1.95 2 3.2 4.32 3.2 1.5 0 2.68-.48 3.63-1.46l1.67 1.93c-1.2 1.43-3.08 2.18-5.38 2.18-4.47 0-7.37-2.88-7.37-6.86 0-3.97 2.92-6.82 6.9-6.82 3.9 0 6.75 2.73 6.75 6.9zM143.7 17c-2.02 0-3.5 1.3-3.8 3.25h7.57A3.63 3.63 0 0 0 143.7 17zm13.88 11.18c-2.23 0-4.46-.66-5.66-1.5l1.2-2.38a8.98 8.98 0 0 0 4.66 1.32c1.97 0 2.8-.55 2.8-1.47 0-2.55-8.26-.15-8.26-5.47 0-2.53 2.28-4.18 5.88-4.18 1.78 0 3.8.43 5 1.15l-1.2 2.37a7.3 7.3 0 0 0-3.82-1c-1.9 0-2.8.63-2.8 1.5 0 2.7 8.25.3 8.25 5.53 0 2.5-2.3 4.13-6.06 4.13zM19.67 40.5h3.22V58h-2.67l-9.66-11.85V58H7.35V40.5h2.68l9.65 11.85V40.5zM33.3 58.17c-4.1 0-7.1-2.84-7.1-6.84s3-6.83 7.1-6.83c4.15 0 7.13 2.83 7.13 6.83s-2.98 6.84-7.13 6.84zm0-2.67c2.28 0 3.98-1.63 3.98-4.17 0-2.55-1.7-4.18-3.98-4.18-2.25 0-3.95 1.63-3.95 4.18s1.7 4.17 3.95 4.17zm17.28-.45l.87 2.23c-.75.6-1.88.9-3 .9-2.93 0-4.6-1.55-4.6-4.5v-6.43h-2.2v-2.5h2.2V41.7h3.13v3.05h3.57v2.5h-3.57v6.35c0 1.3.65 2 1.85 2 .65 0 1.27-.18 1.75-.55zm16-3.65c0 .25-.03.63-.05.93H56.05c.38 1.95 2 3.2 4.33 3.2 1.5 0 2.67-.48 3.62-1.45L65.67 56c-1.2 1.42-3.07 2.17-5.37 2.17-4.47 0-7.38-2.87-7.38-6.84 0-3.98 2.93-6.83 6.9-6.83 3.9 0 6.76 2.73 6.76 6.9zM59.83 47c-2.03 0-3.5 1.3-3.8 3.25h7.57A3.63 3.63 0 0 0 59.83 47zm17.14-2.5c3.9 0 6.78 2.67 6.78 6.83 0 4.15-2.88 6.84-6.78 6.84a5.5 5.5 0 0 1-4.42-1.9V58h-2.97V39.45h3.12v6.82a5.55 5.55 0 0 1 4.27-1.77zm-.34 11c2.25 0 3.95-1.63 3.95-4.17 0-2.55-1.7-4.18-3.95-4.18s-3.98 1.63-3.98 4.18 1.72 4.17 3.97 4.17zm16.1 2.67c-4.1 0-7.1-2.84-7.1-6.84s3-6.83 7.1-6.83c4.14 0 7.12 2.83 7.12 6.83s-2.97 6.84-7.13 6.84zm0-2.67c2.27 0 3.97-1.63 3.97-4.17 0-2.55-1.7-4.18-3.98-4.18-2.25 0-3.94 1.63-3.94 4.18s1.7 4.17 3.94 4.17zm16.12 2.67c-4.1 0-7.1-2.84-7.1-6.84s3-6.83 7.1-6.83c4.15 0 7.13 2.83 7.13 6.83s-2.98 6.84-7.13 6.84zm0-2.67c2.28 0 3.98-1.63 3.98-4.17 0-2.55-1.7-4.18-3.98-4.18-2.25 0-3.95 1.63-3.95 4.18s1.7 4.17 3.95 4.17zm20.2 2.5l-4.63-5.73-2.32 2.2V58h-3.13V39.45h3.13v11.2l6.47-6h3.75l-5.57 5.6 6.1 7.75h-3.8zm9.95.17c-2.22 0-4.45-.65-5.65-1.5l1.2-2.37a8.98 8.98 0 0 0 4.65 1.33c1.98 0 2.8-.55 2.8-1.48 0-2.55-8.25-.15-8.25-5.48 0-2.52 2.28-4.17 5.88-4.17 1.77 0 3.8.42 5 1.15l-1.2 2.38a7.3 7.3 0 0 0-3.83-1c-1.9 0-2.8.62-2.8 1.5 0 2.7 8.25.3 8.25 5.52 0 2.5-2.3 4.13-6.05 4.13zM15.45 88.25c-5.35 0-9.35-3.78-9.35-9 0-5.22 4-9 9.38-9 2.84 0 5.3 1.03 6.92 2.92l-2.1 1.98a6.15 6.15 0 0 0-4.68-2.05c-3.62 0-6.24 2.55-6.24 6.15 0 3.6 2.62 6.15 6.24 6.15 1.83 0 3.4-.68 4.68-2.08l2.1 2c-1.63 1.9-4.07 2.93-6.95 2.93zm15.78-.08c-4.1 0-7.1-2.84-7.1-6.84s3-6.83 7.1-6.83c4.14 0 7.12 2.83 7.12 6.83s-2.98 6.84-7.13 6.84zm0-2.67c2.27 0 3.97-1.63 3.97-4.17 0-2.55-1.7-4.18-3.98-4.18-2.24 0-3.95 1.63-3.95 4.17 0 2.56 1.7 4.18 3.96 4.18zm17.7-11c3.2 0 5.57 1.83 5.57 5.85V88h-3.13v-7.25c0-2.38-1.17-3.53-3.17-3.53-2.23 0-3.73 1.36-3.73 4.03V88h-3.12V69.45h3.13v6.75a5.95 5.95 0 0 1 4.45-1.7zm15.54 13.67c-4.1 0-7.1-2.84-7.1-6.84s3-6.83 7.1-6.83c4.16 0 7.13 2.83 7.13 6.83s-2.97 6.84-7.13 6.84zm0-2.67c2.28 0 3.98-1.63 3.98-4.17 0-2.55-1.7-4.18-3.98-4.18-2.24 0-3.95 1.63-3.95 4.17 0 2.56 1.7 4.18 3.95 4.18zm13.1-8.9c.9-1.4 2.53-2.1 4.76-2.1v2.97c-.28-.05-.5-.07-.73-.07-2.38 0-3.88 1.4-3.88 4.13V88H74.6V74.65h2.98v1.95zm14.68 8.45l.88 2.23c-.75.6-1.88.9-3 .9-2.93 0-4.6-1.56-4.6-4.5v-6.43h-2.2v-2.5h2.2V71.7h3.12v3.05h3.57v2.5h-3.57v6.35c0 1.3.65 2 1.85 2 .65 0 1.28-.17 1.75-.55zm7.58 3.13c-2.23 0-4.45-.66-5.66-1.5l1.2-2.38a8.98 8.98 0 0 0 4.66 1.33c1.97 0 2.8-.55 2.8-1.48 0-2.55-8.25-.15-8.25-5.48 0-2.52 2.27-4.17 5.87-4.17 1.77 0 3.8.42 5 1.15l-1.2 2.38a7.3 7.3 0 0 0-3.83-1c-1.9 0-2.8.62-2.8 1.5 0 2.7 8.25.3 8.25 5.52 0 2.5-2.3 4.13-6.05 4.13zm-84.38 30.07c-5.35 0-9.35-3.78-9.35-9 0-5.22 4-9 9.38-9 2.84 0 5.3 1.03 6.92 2.92l-2.1 1.98a6.15 6.15 0 0 0-4.68-2.05c-3.62 0-6.24 2.55-6.24 6.15 0 3.6 2.62 6.15 6.24 6.15 1.83 0 3.4-.68 4.68-2.08l2.1 2c-1.63 1.9-4.07 2.93-6.95 2.93zm15.78-.08c-4.1 0-7.1-2.84-7.1-6.84s3-6.83 7.1-6.83c4.14 0 7.12 2.83 7.12 6.83s-2.98 6.84-7.13 6.84zm0-2.67c2.27 0 3.97-1.63 3.97-4.17 0-2.55-1.7-4.18-3.98-4.18-2.24 0-3.95 1.63-3.95 4.17 0 2.56 1.7 4.18 3.96 4.18zm17.7-11c3.2 0 5.57 1.83 5.57 5.85V118h-3.13v-7.25c0-2.38-1.17-3.53-3.17-3.53-2.23 0-3.73 1.36-3.73 4.03V118h-3.12v-13.35h2.98v1.72c1.02-1.22 2.65-1.87 4.6-1.87zm15.67 13.67c-4.22 0-7.22-2.84-7.22-6.84s3-6.83 7.22-6.83c2.6 0 4.68 1.08 5.7 3.1l-2.4 1.4c-.8-1.28-2-1.85-3.33-1.85-2.3 0-4.04 1.6-4.04 4.17 0 2.6 1.74 4.18 4.05 4.18 1.32 0 2.52-.58 3.32-1.85l2.4 1.4c-1.02 2-3.1 3.13-5.7 3.13zm20.95-6.77c0 .25-.02.63-.05.92H75.03c.37 1.96 2 3.2 4.32 3.2 1.5 0 2.68-.47 3.63-1.44l1.67 1.92c-1.2 1.42-3.08 2.17-5.38 2.17-4.47 0-7.37-2.87-7.37-6.84 0-3.98 2.92-6.83 6.9-6.83 3.9 0 6.75 2.72 6.75 6.9zM78.8 107c-2.02 0-3.5 1.3-3.8 3.25h7.58A3.63 3.63 0 0 0 78.8 107zm17.15-2.5c3.9 0 6.77 2.7 6.77 6.83 0 4.14-2.87 6.84-6.77 6.84-1.7 0-3.2-.57-4.28-1.8v6.48h-3.12v-18.2h2.98v1.75a5.5 5.5 0 0 1 4.42-1.9zm-.35 11c2.25 0 3.95-1.63 3.95-4.17 0-2.55-1.7-4.18-3.95-4.18s-3.97 1.63-3.97 4.17c0 2.56 1.72 4.18 3.97 4.18zm17.25-.45l.88 2.23c-.76.6-1.88.9-3 .9-2.93 0-4.6-1.56-4.6-4.5v-6.43h-2.2v-2.5h2.2v-3.05h3.12v3.05h3.58v2.5h-3.58v6.35c0 1.3.65 2 1.85 2 .65 0 1.28-.17 1.75-.55zm7.58 3.13c-2.23 0-4.46-.66-5.66-1.5l1.2-2.38a8.98 8.98 0 0 0 4.66 1.33c1.97 0 2.8-.55 2.8-1.48 0-2.55-8.26-.15-8.26-5.48 0-2.52 2.28-4.17 5.88-4.17 1.78 0 3.8.42 5 1.15l-1.2 2.38a7.3 7.3 0 0 0-3.82-1c-1.9 0-2.8.62-2.8 1.5 0 2.7 8.24.3 8.24 5.52 0 2.5-2.3 4.13-6.05 4.13z" mask="url(#e)" opacity=".25"/>
        </g>
        <path fill="#000" d="M4.82 2A2.82 2.82 0 0 0 2 4.81v119.97a2.82 2.82 0 0 0 2.81 2.81h63.6L122.51 2H4.82z" opacity=".44"/>
        <path fill="#FFF" d="M23.07 53.63h1.25l-2.35 7.1h-1.4l-1.75-5.25-1.79 5.25h-1.4l-2.36-7.1h1.37l1.77 5.4 1.83-5.4h1.22l1.8 5.43 1.8-5.43zm4.8 7.17c-1.67 0-2.89-1.15-2.89-2.78 0-1.62 1.22-2.76 2.88-2.76 1.68 0 2.9 1.14 2.9 2.76 0 1.63-1.22 2.78-2.9 2.78zm0-1.08c.91 0 1.6-.66 1.6-1.7 0-1.03-.69-1.69-1.6-1.69-.92 0-1.61.66-1.61 1.7 0 1.03.69 1.69 1.6 1.69zm5.3-3.61c.37-.57 1.03-.85 1.93-.85v1.2a1.6 1.6 0 0 0-.3-.03c-.96 0-1.57.57-1.57 1.67v2.63h-1.26v-5.41h1.2v.79zm7.14 4.62l-1.87-2.32-.95.9v1.42h-1.26v-7.52h1.26v4.54l2.63-2.43h1.52l-2.26 2.27 2.47 3.14h-1.54zm5.36-5.47a2.63 2.63 0 0 1 2.75 2.76 2.64 2.64 0 0 1-2.75 2.78c-.74 0-1.37-.25-1.8-.77v.7h-1.2v-7.52h1.27v2.77a2.25 2.25 0 0 1 1.73-.72zm-.14 4.46c.91 0 1.6-.66 1.6-1.7 0-1.03-.69-1.69-1.6-1.69-.91 0-1.61.66-1.61 1.7 0 1.03.7 1.69 1.61 1.69zm9.19-1.67l-.02.38h-4.25c.15.79.8 1.3 1.75 1.3.61 0 1.09-.2 1.47-.6l.68.79c-.49.58-1.25.88-2.18.88-1.81 0-2.99-1.16-2.99-2.78a2.7 2.7 0 0 1 2.8-2.76c1.58 0 2.74 1.1 2.74 2.8zm-2.74-1.78a1.5 1.5 0 0 0-1.54 1.32h3.07c-.1-.78-.7-1.32-1.53-1.32zM59 55.26c1.3 0 2.27.74 2.27 2.37v3.1H60v-2.94c0-.96-.48-1.43-1.29-1.43-.9 0-1.51.55-1.51 1.63v2.74h-1.27v-5.41h1.2v.7c.42-.5 1.08-.76 1.87-.76zm6.36 5.54c-1.71 0-2.93-1.15-2.93-2.78 0-1.62 1.22-2.76 2.93-2.76 1.06 0 1.9.43 2.31 1.25l-.97.57a1.53 1.53 0 0 0-1.35-.75c-.93 0-1.64.65-1.64 1.7 0 1.05.7 1.69 1.64 1.69.54 0 1.02-.24 1.35-.75l.97.56c-.41.81-1.25 1.27-2.3 1.27zm6.48-5.54c1.3 0 2.26.74 2.26 2.37v3.1h-1.27v-2.94c0-.96-.47-1.43-1.29-1.43-.9 0-1.5.55-1.5 1.63v2.74h-1.27v-7.52h1.26v2.74a2.41 2.41 0 0 1 1.8-.7zm-51 18.45l.6.73c-.46.55-1.1.84-1.85.84-.96 0-1.68-.37-2.73-1.47a3.6 3.6 0 0 1-3.41-3.63c0-2.1 1.62-3.65 3.82-3.65 2.2 0 3.82 1.54 3.82 3.65a3.55 3.55 0 0 1-2.66 3.5c.4.44.77.6 1.19.6.47 0 .87-.2 1.22-.57zm-6.07-3.53c0 1.45 1.07 2.5 2.5 2.5s2.5-1.05 2.5-2.5-1.07-2.5-2.5-2.5a2.42 2.42 0 0 0-2.5 2.5zm11.57-1.86h1.27v5.41h-1.2v-.69c-.41.5-1.05.76-1.75.76-1.4 0-2.33-.76-2.33-2.4v-3.08h1.26v2.92c0 .98.47 1.45 1.27 1.45.88 0 1.48-.55 1.48-1.64v-2.73zm3.57-.9c-.47 0-.81-.33-.81-.76 0-.42.34-.76.81-.76.47 0 .81.32.81.73 0 .45-.33.8-.81.8zm-.64 6.31v-5.41h1.27v5.41h-1.27zm5.41.07c-1.7 0-2.93-1.15-2.93-2.78 0-1.62 1.22-2.76 2.93-2.76 1.06 0 1.9.43 2.32 1.25l-.98.57a1.53 1.53 0 0 0-1.35-.75c-.93 0-1.64.65-1.64 1.7 0 1.05.71 1.69 1.64 1.69.54 0 1.03-.24 1.35-.75l.98.56c-.42.81-1.26 1.27-2.32 1.27zm7.5-.07l-1.88-2.32-.94.9v1.42h-1.27v-7.52h1.27v4.54l2.62-2.43h1.52l-2.26 2.27 2.48 3.14h-1.54zm6.72 0v-5.98h-2.35v-1.12h6.02v1.12h-2.35v5.98H48.9zm6.97.07c-1.66 0-2.88-1.15-2.88-2.78 0-1.62 1.22-2.76 2.88-2.76 1.68 0 2.9 1.14 2.9 2.76 0 1.63-1.22 2.78-2.9 2.78zm0-1.08c.92 0 1.61-.66 1.61-1.7 0-1.03-.69-1.69-1.6-1.69-.92 0-1.61.66-1.61 1.7 0 1.03.69 1.69 1.6 1.69zm8.08-4.4h1.27v5.41h-1.2v-.69c-.41.5-1.05.76-1.75.76-1.39 0-2.33-.76-2.33-2.4v-3.08h1.26v2.92c0 .98.47 1.45 1.27 1.45.88 0 1.48-.55 1.48-1.64v-2.73zm4.14.79c.36-.57 1.02-.85 1.92-.85v1.2a1.6 1.6 0 0 0-.29-.03c-.96 0-1.57.57-1.57 1.67v2.63h-1.27v-5.41h1.2v.79z"/>
    </g>
</svg>
