<?xml version="1.0" encoding="UTF-8"?>
<svg width="221px" height="132px" viewBox="0 0 221 132" version="1.1" xmlns="http://www.w3.org/2000/svg" xmlns:xlink="http://www.w3.org/1999/xlink">
    <!-- Generator: Sketch 52.5 (67469) - http://www.bohemiancoding.com/sketch -->
    <title>Group 9</title>
    <desc>Created with Sketch.</desc>
    <defs>
        <radialGradient cx="48.6460358%" cy="50.2956151%" fx="48.6460358%" fy="50.2956151%" r="93.3729694%" gradientTransform="translate(0.486460,0.502956),scale(0.580729,1.000000),rotate(-90.000000),scale(1.000000,1.170678),translate(-0.486460,-0.502956)" id="radialGradient-1">
            <stop stop-color="#5754F8" offset="0%"></stop>
            <stop stop-color="#31280D" offset="100%"></stop>
        </radialGradient>
        <path d="M2.8135348,0 C1.25966244,0 0,1.26341957 0,2.81420729 L0,122.779393 C0,124.333636 1.27006494,125.5936 2.8135348,125.5936 L213.455265,125.5936 C215.009138,125.5936 216.2688,124.33018 216.2688,122.779393 L216.2688,2.81420729 C216.2688,1.25996352 214.998735,0 213.455265,0 L2.8135348,0 Z" id="path-2"></path>
        <filter x="-1.8%" y="-3.2%" width="103.7%" height="108.0%" filterUnits="objectBoundingBox" id="filter-3">
            <feOffset dx="0" dy="2" in="SourceAlpha" result="shadowOffsetOuter1"></feOffset>
            <feGaussianBlur stdDeviation="1" in="shadowOffsetOuter1" result="shadowBlurOuter1"></feGaussianBlur>
            <feColorMatrix values="0 0 0 0 0   0 0 0 0 0   0 0 0 0 0  0 0 0 0.12 0" type="matrix" in="shadowBlurOuter1" result="shadowMatrixOuter1"></feColorMatrix>
            <feOffset dx="0" dy="0" in="SourceAlpha" result="shadowOffsetOuter2"></feOffset>
            <feGaussianBlur stdDeviation="1" in="shadowOffsetOuter2" result="shadowBlurOuter2"></feGaussianBlur>
            <feColorMatrix values="0 0 0 0 0   0 0 0 0 0   0 0 0 0 0  0 0 0 0.12 0" type="matrix" in="shadowBlurOuter2" result="shadowMatrixOuter2"></feColorMatrix>
            <feMerge>
                <feMergeNode in="shadowMatrixOuter1"></feMergeNode>
                <feMergeNode in="shadowMatrixOuter2"></feMergeNode>
            </feMerge>
        </filter>
        <rect id="path-4" x="0" y="0" width="132" height="126"></rect>
    </defs>
    <g id="Homepage" stroke="none" stroke-width="1" fill="none" fill-rule="evenodd">
        <g id="Homepage-November-Release" transform="translate(-290.000000, -500.000000)">
            <g id="Group-9" transform="translate(292.000000, 502.000000)">
                <g id="Card-1" transform="translate(170.649600, 108.134400)"></g>
                <g id="menu-bg-copy-2">
                    <use fill="black" fill-opacity="1" filter="url(#filter-3)" xlink:href="#path-2"></use>
                    <use fill="url(#radialGradient-1)" fill-rule="evenodd" xlink:href="#path-2"></use>
                </g>
                <g id="Card-1">
                    <g id="Workspaces-Notebooks" transform="translate(84.000000, 0.000000)">
                        <mask id="mask-5" fill="white">
                            <use xlink:href="#path-4"></use>
                        </mask>
                        <g id="Mask" fill-rule="nonzero"></g>
                        <path d="M29.825,10.5 L32.925,10.5 L27.125,28 L23.675,28 L19.35,15.05 L14.95,28 L11.475,28 L5.675,10.5 L9.05,10.5 L13.4,23.8 L17.925,10.5 L20.925,10.5 L25.35,23.875 L29.825,10.5 Z M41.65,28.175 C37.55,28.175 34.55,25.325 34.55,21.325 C34.55,17.325 37.55,14.5 41.65,14.5 C45.8,14.5 48.775,17.325 48.775,21.325 C48.775,25.325 45.8,28.175 41.65,28.175 Z M41.65,25.5 C43.925,25.5 45.625,23.875 45.625,21.325 C45.625,18.775 43.925,17.15 41.65,17.15 C39.4,17.15 37.7,18.775 37.7,21.325 C37.7,23.875 39.4,25.5 41.65,25.5 Z M54.75,16.6 C55.65,15.2 57.275,14.5 59.5,14.5 L59.5,17.475 C59.225,17.425 59,17.4 58.775,17.4 C56.4,17.4 54.9,18.8 54.9,21.525 L54.9,28 L51.775,28 L51.775,14.65 L54.75,14.65 L54.75,16.6 Z M72.35,28 L67.725,22.275 L65.4,24.475 L65.4,28 L62.275,28 L62.275,9.45 L65.4,9.45 L65.4,20.65 L71.875,14.65 L75.625,14.65 L70.05,20.25 L76.15,28 L72.35,28 Z M82.3,28.175 C80.075,28.175 77.85,27.525 76.65,26.675 L77.85,24.3 C79.025,25.075 80.825,25.625 82.5,25.625 C84.475,25.625 85.3,25.075 85.3,24.15 C85.3,21.6 77.05,24 77.05,18.675 C77.05,16.15 79.325,14.5 82.925,14.5 C84.7,14.5 86.725,14.925 87.925,15.65 L86.725,18.025 C85.45,17.275 84.175,17.025 82.9,17.025 C81,17.025 80.1,17.65 80.1,18.525 C80.1,21.225 88.35,18.825 88.35,24.05 C88.35,26.55 86.05,28.175 82.3,28.175 Z M98.45,14.5 C102.35,14.5 105.225,17.2 105.225,21.325 C105.225,25.475 102.35,28.175 98.45,28.175 C96.75,28.175 95.25,27.6 94.175,26.375 L94.175,32.85 L91.05,32.85 L91.05,14.65 L94.025,14.65 L94.025,16.4 C95.075,15.125 96.625,14.5 98.45,14.5 Z M98.1,25.5 C100.35,25.5 102.05,23.875 102.05,21.325 C102.05,18.775 100.35,17.15 98.1,17.15 C95.85,17.15 94.125,18.775 94.125,21.325 C94.125,23.875 95.85,25.5 98.1,25.5 Z M113.3,14.5 C117.15,14.5 119.375,16.325 119.375,20.175 L119.375,28 L116.425,28 L116.425,26.375 C115.675,27.525 114.225,28.175 112.225,28.175 C109.175,28.175 107.25,26.5 107.25,24.175 C107.25,21.95 108.75,20.2 112.8,20.2 L116.25,20.2 L116.25,20 C116.25,18.175 115.15,17.1 112.925,17.1 C111.425,17.1 109.875,17.6 108.875,18.425 L107.65,16.15 C109.075,15.05 111.15,14.5 113.3,14.5 Z M112.875,25.9 C114.4,25.9 115.725,25.2 116.25,23.825 L116.25,22.275 L113.025,22.275 C110.9,22.275 110.325,23.075 110.325,24.05 C110.325,25.175 111.275,25.9 112.875,25.9 Z M129.5,28.175 C125.275,28.175 122.275,25.325 122.275,21.325 C122.275,17.325 125.275,14.5 129.5,14.5 C132.1,14.5 134.175,15.575 135.2,17.6 L132.8,19 C132,17.725 130.8,17.15 129.475,17.15 C127.175,17.15 125.425,18.75 125.425,21.325 C125.425,23.925 127.175,25.5 129.475,25.5 C130.8,25.5 132,24.925 132.8,23.65 L135.2,25.05 C134.175,27.05 132.1,28.175 129.5,28.175 Z M150.45,21.4 C150.45,21.65 150.425,22.025 150.4,22.325 L139.925,22.325 C140.3,24.275 141.925,25.525 144.25,25.525 C145.75,25.525 146.925,25.05 147.875,24.075 L149.55,26 C148.35,27.425 146.475,28.175 144.175,28.175 C139.7,28.175 136.8,25.3 136.8,21.325 C136.8,17.35 139.725,14.5 143.7,14.5 C147.6,14.5 150.45,17.225 150.45,21.4 Z M143.7,17 C141.675,17 140.2,18.3 139.9,20.25 L147.475,20.25 C147.225,18.325 145.75,17 143.7,17 Z M157.575,28.175 C155.35,28.175 153.125,27.525 151.925,26.675 L153.125,24.3 C154.3,25.075 156.1,25.625 157.775,25.625 C159.75,25.625 160.575,25.075 160.575,24.15 C160.575,21.6 152.325,24 152.325,18.675 C152.325,16.15 154.6,14.5 158.2,14.5 C159.975,14.5 162,14.925 163.2,15.65 L162,18.025 C160.725,17.275 159.45,17.025 158.175,17.025 C156.275,17.025 155.375,17.65 155.375,18.525 C155.375,21.225 163.625,18.825 163.625,24.05 C163.625,26.55 161.325,28.175 157.575,28.175 Z M19.675,40.5 L22.9,40.5 L22.9,58 L20.225,58 L10.575,46.15 L10.575,58 L7.35,58 L7.35,40.5 L10.025,40.5 L19.675,52.35 L19.675,40.5 Z M33.3,58.175 C29.2,58.175 26.2,55.325 26.2,51.325 C26.2,47.325 29.2,44.5 33.3,44.5 C37.45,44.5 40.425,47.325 40.425,51.325 C40.425,55.325 37.45,58.175 33.3,58.175 Z M33.3,55.5 C35.575,55.5 37.275,53.875 37.275,51.325 C37.275,48.775 35.575,47.15 33.3,47.15 C31.05,47.15 29.35,48.775 29.35,51.325 C29.35,53.875 31.05,55.5 33.3,55.5 Z M50.575,55.05 L51.45,57.275 C50.7,57.875 49.575,58.175 48.45,58.175 C45.525,58.175 43.85,56.625 43.85,53.675 L43.85,47.25 L41.65,47.25 L41.65,44.75 L43.85,44.75 L43.85,41.7 L46.975,41.7 L46.975,44.75 L50.55,44.75 L50.55,47.25 L46.975,47.25 L46.975,53.6 C46.975,54.9 47.625,55.6 48.825,55.6 C49.475,55.6 50.1,55.425 50.575,55.05 Z M66.575,51.4 C66.575,51.65 66.55,52.025 66.525,52.325 L56.05,52.325 C56.425,54.275 58.05,55.525 60.375,55.525 C61.875,55.525 63.05,55.05 64,54.075 L65.675,56 C64.475,57.425 62.6,58.175 60.3,58.175 C55.825,58.175 52.925,55.3 52.925,51.325 C52.925,47.35 55.85,44.5 59.825,44.5 C63.725,44.5 66.575,47.225 66.575,51.4 Z M59.825,47 C57.8,47 56.325,48.3 56.025,50.25 L63.6,50.25 C63.35,48.325 61.875,47 59.825,47 Z M76.975,44.5 C80.875,44.5 83.75,47.175 83.75,51.325 C83.75,55.475 80.875,58.175 76.975,58.175 C75.15,58.175 73.6,57.55 72.55,56.275 L72.55,58 L69.575,58 L69.575,39.45 L72.7,39.45 L72.7,46.275 C73.775,45.075 75.275,44.5 76.975,44.5 Z M76.625,55.5 C78.875,55.5 80.575,53.875 80.575,51.325 C80.575,48.775 78.875,47.15 76.625,47.15 C74.375,47.15 72.65,48.775 72.65,51.325 C72.65,53.875 74.375,55.5 76.625,55.5 Z M92.725,58.175 C88.625,58.175 85.625,55.325 85.625,51.325 C85.625,47.325 88.625,44.5 92.725,44.5 C96.875,44.5 99.85,47.325 99.85,51.325 C99.85,55.325 96.875,58.175 92.725,58.175 Z M92.725,55.5 C95,55.5 96.7,53.875 96.7,51.325 C96.7,48.775 95,47.15 92.725,47.15 C90.475,47.15 88.775,48.775 88.775,51.325 C88.775,53.875 90.475,55.5 92.725,55.5 Z M108.85,58.175 C104.75,58.175 101.75,55.325 101.75,51.325 C101.75,47.325 104.75,44.5 108.85,44.5 C113,44.5 115.975,47.325 115.975,51.325 C115.975,55.325 113,58.175 108.85,58.175 Z M108.85,55.5 C111.125,55.5 112.825,53.875 112.825,51.325 C112.825,48.775 111.125,47.15 108.85,47.15 C106.6,47.15 104.9,48.775 104.9,51.325 C104.9,53.875 106.6,55.5 108.85,55.5 Z M129.05,58 L124.425,52.275 L122.1,54.475 L122.1,58 L118.975,58 L118.975,39.45 L122.1,39.45 L122.1,50.65 L128.575,44.65 L132.325,44.65 L126.75,50.25 L132.85,58 L129.05,58 Z M139,58.175 C136.775,58.175 134.55,57.525 133.35,56.675 L134.55,54.3 C135.725,55.075 137.525,55.625 139.2,55.625 C141.175,55.625 142,55.075 142,54.15 C142,51.6 133.75,54 133.75,48.675 C133.75,46.15 136.025,44.5 139.625,44.5 C141.4,44.5 143.425,44.925 144.625,45.65 L143.425,48.025 C142.15,47.275 140.875,47.025 139.6,47.025 C137.7,47.025 136.8,47.65 136.8,48.525 C136.8,51.225 145.05,48.825 145.05,54.05 C145.05,56.55 142.75,58.175 139,58.175 Z M15.45,88.25 C10.1,88.25 6.1,84.475 6.1,79.25 C6.1,74.025 10.1,70.25 15.475,70.25 C18.325,70.25 20.775,71.275 22.4,73.175 L20.3,75.15 C19.025,73.775 17.45,73.1 15.625,73.1 C12,73.1 9.375,75.65 9.375,79.25 C9.375,82.85 12,85.4 15.625,85.4 C17.45,85.4 19.025,84.725 20.3,83.325 L22.4,85.325 C20.775,87.225 18.325,88.25 15.45,88.25 Z M31.225,88.175 C27.125,88.175 24.125,85.325 24.125,81.325 C24.125,77.325 27.125,74.5 31.225,74.5 C35.375,74.5 38.35,77.325 38.35,81.325 C38.35,85.325 35.375,88.175 31.225,88.175 Z M31.225,85.5 C33.5,85.5 35.2,83.875 35.2,81.325 C35.2,78.775 33.5,77.15 31.225,77.15 C28.975,77.15 27.275,78.775 27.275,81.325 C27.275,83.875 28.975,85.5 31.225,85.5 Z M48.925,74.5 C52.125,74.5 54.5,76.325 54.5,80.35 L54.5,88 L51.375,88 L51.375,80.75 C51.375,78.375 50.2,77.225 48.2,77.225 C45.975,77.225 44.475,78.575 44.475,81.25 L44.475,88 L41.35,88 L41.35,69.45 L44.475,69.45 L44.475,76.2 C45.5,75.1 47.075,74.5 48.925,74.5 Z M64.475,88.175 C60.375,88.175 57.375,85.325 57.375,81.325 C57.375,77.325 60.375,74.5 64.475,74.5 C68.625,74.5 71.6,77.325 71.6,81.325 C71.6,85.325 68.625,88.175 64.475,88.175 Z M64.475,85.5 C66.75,85.5 68.45,83.875 68.45,81.325 C68.45,78.775 66.75,77.15 64.475,77.15 C62.225,77.15 60.525,78.775 60.525,81.325 C60.525,83.875 62.225,85.5 64.475,85.5 Z M77.575,76.6 C78.475,75.2 80.1,74.5 82.325,74.5 L82.325,77.475 C82.05,77.425 81.825,77.4 81.6,77.4 C79.225,77.4 77.725,78.8 77.725,81.525 L77.725,88 L74.6,88 L74.6,74.65 L77.575,74.65 L77.575,76.6 Z M92.25,85.05 L93.125,87.275 C92.375,87.875 91.25,88.175 90.125,88.175 C87.2,88.175 85.525,86.625 85.525,83.675 L85.525,77.25 L83.325,77.25 L83.325,74.75 L85.525,74.75 L85.525,71.7 L88.65,71.7 L88.65,74.75 L92.225,74.75 L92.225,77.25 L88.65,77.25 L88.65,83.6 C88.65,84.9 89.3,85.6 90.5,85.6 C91.15,85.6 91.775,85.425 92.25,85.05 Z M99.825,88.175 C97.6,88.175 95.375,87.525 94.175,86.675 L95.375,84.3 C96.55,85.075 98.35,85.625 100.025,85.625 C102,85.625 102.825,85.075 102.825,84.15 C102.825,81.6 94.575,84 94.575,78.675 C94.575,76.15 96.85,74.5 100.45,74.5 C102.225,74.5 104.25,74.925 105.45,75.65 L104.25,78.025 C102.975,77.275 101.7,77.025 100.425,77.025 C98.525,77.025 97.625,77.65 97.625,78.525 C97.625,81.225 105.875,78.825 105.875,84.05 C105.875,86.55 103.575,88.175 99.825,88.175 Z M15.45,118.25 C10.1,118.25 6.1,114.475 6.1,109.25 C6.1,104.025 10.1,100.25 15.475,100.25 C18.325,100.25 20.775,101.275 22.4,103.175 L20.3,105.15 C19.025,103.775 17.45,103.1 15.625,103.1 C12,103.1 9.375,105.65 9.375,109.25 C9.375,112.85 12,115.4 15.625,115.4 C17.45,115.4 19.025,114.725 20.3,113.325 L22.4,115.325 C20.775,117.225 18.325,118.25 15.45,118.25 Z M31.225,118.175 C27.125,118.175 24.125,115.325 24.125,111.325 C24.125,107.325 27.125,104.5 31.225,104.5 C35.375,104.5 38.35,107.325 38.35,111.325 C38.35,115.325 35.375,118.175 31.225,118.175 Z M31.225,115.5 C33.5,115.5 35.2,113.875 35.2,111.325 C35.2,108.775 33.5,107.15 31.225,107.15 C28.975,107.15 27.275,108.775 27.275,111.325 C27.275,113.875 28.975,115.5 31.225,115.5 Z M48.925,104.5 C52.125,104.5 54.5,106.325 54.5,110.35 L54.5,118 L51.375,118 L51.375,110.75 C51.375,108.375 50.2,107.225 48.2,107.225 C45.975,107.225 44.475,108.575 44.475,111.25 L44.475,118 L41.35,118 L41.35,104.65 L44.325,104.65 L44.325,106.375 C45.35,105.15 46.975,104.5 48.925,104.5 Z M64.6,118.175 C60.375,118.175 57.375,115.325 57.375,111.325 C57.375,107.325 60.375,104.5 64.6,104.5 C67.2,104.5 69.275,105.575 70.3,107.6 L67.9,109 C67.1,107.725 65.9,107.15 64.575,107.15 C62.275,107.15 60.525,108.75 60.525,111.325 C60.525,113.925 62.275,115.5 64.575,115.5 C65.9,115.5 67.1,114.925 67.9,113.65 L70.3,115.05 C69.275,117.05 67.2,118.175 64.6,118.175 Z M85.55,111.4 C85.55,111.65 85.525,112.025 85.5,112.325 L75.025,112.325 C75.4,114.275 77.025,115.525 79.35,115.525 C80.85,115.525 82.025,115.05 82.975,114.075 L84.65,116 C83.45,117.425 81.575,118.175 79.275,118.175 C74.8,118.175 71.9,115.3 71.9,111.325 C71.9,107.35 74.825,104.5 78.8,104.5 C82.7,104.5 85.55,107.225 85.55,111.4 Z M78.8,107 C76.775,107 75.3,108.3 75,110.25 L82.575,110.25 C82.325,108.325 80.85,107 78.8,107 Z M95.95,104.5 C99.85,104.5 102.725,107.2 102.725,111.325 C102.725,115.475 99.85,118.175 95.95,118.175 C94.25,118.175 92.75,117.6 91.675,116.375 L91.675,122.85 L88.55,122.85 L88.55,104.65 L91.525,104.65 L91.525,106.4 C92.575,105.125 94.125,104.5 95.95,104.5 Z M95.6,115.5 C97.85,115.5 99.55,113.875 99.55,111.325 C99.55,108.775 97.85,107.15 95.6,107.15 C93.35,107.15 91.625,108.775 91.625,111.325 C91.625,113.875 93.35,115.5 95.6,115.5 Z M112.85,115.05 L113.725,117.275 C112.975,117.875 111.85,118.175 110.725,118.175 C107.8,118.175 106.125,116.625 106.125,113.675 L106.125,107.25 L103.925,107.25 L103.925,104.75 L106.125,104.75 L106.125,101.7 L109.25,101.7 L109.25,104.75 L112.825,104.75 L112.825,107.25 L109.25,107.25 L109.25,113.6 C109.25,114.9 109.9,115.6 111.1,115.6 C111.75,115.6 112.375,115.425 112.85,115.05 Z M120.425,118.175 C118.2,118.175 115.975,117.525 114.775,116.675 L115.975,114.3 C117.15,115.075 118.95,115.625 120.625,115.625 C122.6,115.625 123.425,115.075 123.425,114.15 C123.425,111.6 115.175,114 115.175,108.675 C115.175,106.15 117.45,104.5 121.05,104.5 C122.825,104.5 124.85,104.925 126.05,105.65 L124.85,108.025 C123.575,107.275 122.3,107.025 121.025,107.025 C119.125,107.025 118.225,107.65 118.225,108.525 C118.225,111.225 126.475,108.825 126.475,114.05 C126.475,116.55 124.175,118.175 120.425,118.175 Z" fill="#FFFFFF" opacity="0.25" mask="url(#mask-5)"></path>
                    </g>
                    <path d="M2.81640631,0 C1.26094806,0 0,1.26341957 0,2.81420729 L0,122.779393 C0,124.333636 1.26722808,125.5936 2.81091708,125.5936 L66.4048,125.5936 L120.5248,0 L2.81640631,0 Z" id="menu-bg-copy-2" fill="#000000" opacity="0.441462054"></path>
                </g>
                <path d="M21.0666368,51.63368 L22.3236992,51.63368 L19.971776,58.73 L18.5727872,58.73 L16.8189824,53.4787232 L15.0347648,58.73 L13.6256384,58.73 L11.2737152,51.63368 L12.6422912,51.63368 L14.4062336,57.0268832 L16.2411392,51.63368 L17.4576512,51.63368 L19.2520064,57.057296 L21.0666368,51.63368 Z M25.8617216,58.8009632 C24.1991552,58.8009632 22.9826432,57.6452768 22.9826432,56.0232608 C22.9826432,54.4012448 24.1991552,53.255696 25.8617216,53.255696 C27.5445632,53.255696 28.7509376,54.4012448 28.7509376,56.0232608 C28.7509376,57.6452768 27.5445632,58.8009632 25.8617216,58.8009632 Z M25.8617216,57.71624 C26.7842432,57.71624 27.4736,57.057296 27.4736,56.0232608 C27.4736,54.9892256 26.7842432,54.3302816 25.8617216,54.3302816 C24.9493376,54.3302816 24.2599808,54.9892256 24.2599808,56.0232608 C24.2599808,57.057296 24.9493376,57.71624 25.8617216,57.71624 Z M31.173824,54.1072544 C31.5387776,53.5395488 32.1977216,53.255696 33.099968,53.255696 L33.099968,54.4620704 C32.9884544,54.4417952 32.897216,54.4316576 32.8059776,54.4316576 C31.8429056,54.4316576 31.2346496,54.9993632 31.2346496,56.1043616 L31.2346496,58.73 L29.9674496,58.73 L29.9674496,53.3165216 L31.173824,53.3165216 L31.173824,54.1072544 Z M38.3106944,58.73 L36.4352384,56.4084896 L35.4924416,57.3005984 L35.4924416,58.73 L34.2252416,58.73 L34.2252416,51.2079008 L35.4924416,51.2079008 L35.4924416,55.7495456 L38.11808,53.3165216 L39.63872,53.3165216 L37.3780352,55.587344 L39.8516096,58.73 L38.3106944,58.73 Z M43.6734848,53.255696 C45.2549504,53.255696 46.4207744,54.3404192 46.4207744,56.0232608 C46.4207744,57.7061024 45.2549504,58.8009632 43.6734848,58.8009632 C42.93344,58.8009632 42.3049088,58.5475232 41.8791296,58.0305056 L41.8791296,58.73 L40.6727552,58.73 L40.6727552,51.2079008 L41.9399552,51.2079008 L41.9399552,53.9754656 C42.375872,53.4888608 42.984128,53.255696 43.6734848,53.255696 Z M43.5315584,57.71624 C44.4439424,57.71624 45.1332992,57.057296 45.1332992,56.0232608 C45.1332992,54.9892256 44.4439424,54.3302816 43.5315584,54.3302816 C42.6191744,54.3302816 41.91968,54.9892256 41.91968,56.0232608 C41.91968,57.057296 42.6191744,57.71624 43.5315584,57.71624 Z M52.716224,56.0536736 C52.716224,56.1550496 52.7060864,56.3071136 52.6959488,56.4287648 L48.4482944,56.4287648 C48.6003584,57.2194976 49.2593024,57.7263776 50.2020992,57.7263776 C50.8103552,57.7263776 51.2868224,57.5337632 51.6720512,57.1383968 L52.3512704,57.918992 C51.8646656,58.4968352 51.1043456,58.8009632 50.1716864,58.8009632 C48.357056,58.8009632 47.1810944,57.6351392 47.1810944,56.0232608 C47.1810944,54.4113824 48.3671936,53.255696 49.979072,53.255696 C51.5605376,53.255696 52.716224,54.3606944 52.716224,56.0536736 Z M49.979072,54.269456 C49.1579264,54.269456 48.559808,54.7966112 48.4381568,55.587344 L51.5098496,55.587344 C51.4084736,54.8067488 50.8103552,54.269456 49.979072,54.269456 Z M57.0044288,53.255696 C58.3020416,53.255696 59.2651136,53.9957408 59.2651136,55.6278944 L59.2651136,58.73 L57.9979136,58.73 L57.9979136,55.790096 C57.9979136,54.827024 57.5214464,54.3606944 56.7104384,54.3606944 C55.808192,54.3606944 55.199936,54.9081248 55.199936,55.992848 L55.199936,58.73 L53.932736,58.73 L53.932736,53.3165216 L55.1391104,53.3165216 L55.1391104,54.016016 C55.554752,53.5192736 56.213696,53.255696 57.0044288,53.255696 Z M63.360704,58.8009632 C61.6474496,58.8009632 60.4309376,57.6452768 60.4309376,56.0232608 C60.4309376,54.4012448 61.6474496,53.255696 63.360704,53.255696 C64.4150144,53.255696 65.2564352,53.6916128 65.6720768,54.5127584 L64.6988672,55.080464 C64.374464,54.5634464 63.8878592,54.3302816 63.3505664,54.3302816 C62.4179072,54.3302816 61.7082752,54.979088 61.7082752,56.0232608 C61.7082752,57.0775712 62.4179072,57.71624 63.3505664,57.71624 C63.8878592,57.71624 64.374464,57.4830752 64.6988672,56.9660576 L65.6720768,57.5337632 C65.2564352,58.3447712 64.4150144,58.8009632 63.360704,58.8009632 Z M69.8386304,53.255696 C71.1362432,53.255696 72.0993152,53.9957408 72.0993152,55.6278944 L72.0993152,58.73 L70.8321152,58.73 L70.8321152,55.790096 C70.8321152,54.827024 70.355648,54.3606944 69.54464,54.3606944 C68.6423936,54.3606944 68.0341376,54.9081248 68.0341376,55.992848 L68.0341376,58.73 L66.7669376,58.73 L66.7669376,51.2079008 L68.0341376,51.2079008 L68.0341376,53.9450528 C68.4497792,53.4989984 69.088448,53.255696 69.8386304,53.255696 Z M18.8363648,71.7097248 L19.4446208,72.439632 C18.9782912,72.9870624 18.3396224,73.2810528 17.58944,73.2810528 C16.626368,73.2810528 15.9065984,72.9059616 14.8624256,71.8111008 C12.875456,71.6387616 11.4460544,70.1485344 11.4460544,68.18184 C11.4460544,66.0833568 13.0680704,64.532304 15.2679296,64.532304 C17.4677888,64.532304 19.0898048,66.0732192 19.0898048,68.18184 C19.0898048,69.8950944 18.0152192,71.2332576 16.4337536,71.679312 C16.8392576,72.1152288 17.2042112,72.2774304 17.6198528,72.2774304 C18.0861824,72.2774304 18.4916864,72.084816 18.8363648,71.7097248 Z M12.77408,68.18184 C12.77408,69.6315168 13.838528,70.6756896 15.2679296,70.6756896 C16.6973312,70.6756896 17.7617792,69.6315168 17.7617792,68.18184 C17.7617792,66.7321632 16.6973312,65.6879904 15.2679296,65.6879904 C13.838528,65.6879904 12.77408,66.7321632 12.77408,68.18184 Z M24.3410816,66.3165216 L25.6082816,66.3165216 L25.6082816,71.73 L24.4019072,71.73 L24.4019072,71.0406432 C23.9964032,71.5373856 23.3577344,71.8009632 22.65824,71.8009632 C21.2693888,71.8009632 20.326592,71.0406432 20.326592,69.4084896 L20.326592,66.3165216 L21.593792,66.3165216 L21.593792,69.2361504 C21.593792,70.2194976 22.0601216,70.6858272 22.860992,70.6858272 C23.7429632,70.6858272 24.3410816,70.1383968 24.3410816,69.0536736 L24.3410816,66.3165216 Z M27.9095168,65.4244128 C27.4431872,65.4244128 27.0985088,65.089872 27.0985088,64.6640928 C27.0985088,64.2383136 27.4431872,63.9037728 27.9095168,63.9037728 C28.3758464,63.9037728 28.7205248,64.2180384 28.7205248,64.63368 C28.7205248,65.0797344 28.385984,65.4244128 27.9095168,65.4244128 Z M27.270848,71.73 L27.270848,66.3165216 L28.538048,66.3165216 L28.538048,71.73 L27.270848,71.73 Z M32.6843264,71.8009632 C30.971072,71.8009632 29.75456,70.6452768 29.75456,69.0232608 C29.75456,67.4012448 30.971072,66.255696 32.6843264,66.255696 C33.7386368,66.255696 34.5800576,66.6916128 34.9956992,67.5127584 L34.0224896,68.080464 C33.6980864,67.5634464 33.2114816,67.3302816 32.6741888,67.3302816 C31.7415296,67.3302816 31.0318976,67.979088 31.0318976,69.0232608 C31.0318976,70.0775712 31.7415296,70.71624 32.6741888,70.71624 C33.2114816,70.71624 33.6980864,70.4830752 34.0224896,69.9660576 L34.9956992,70.5337632 C34.5800576,71.3447712 33.7386368,71.8009632 32.6843264,71.8009632 Z M40.1760128,71.73 L38.3005568,69.4084896 L37.35776,70.3005984 L37.35776,71.73 L36.09056,71.73 L36.09056,64.2079008 L37.35776,64.2079008 L37.35776,68.7495456 L39.9833984,66.3165216 L41.5040384,66.3165216 L39.2433536,68.587344 L41.716928,71.73 L40.1760128,71.73 Z M46.8972416,71.73 L46.8972416,65.748816 L44.5453184,65.748816 L44.5453184,64.63368 L50.5670528,64.63368 L50.5670528,65.748816 L48.2151296,65.748816 L48.2151296,71.73 L46.8972416,71.73 Z M53.8719104,71.8009632 C52.209344,71.8009632 50.992832,70.6452768 50.992832,69.0232608 C50.992832,67.4012448 52.209344,66.255696 53.8719104,66.255696 C55.554752,66.255696 56.7611264,67.4012448 56.7611264,69.0232608 C56.7611264,70.6452768 55.554752,71.8009632 53.8719104,71.8009632 Z M53.8719104,70.71624 C54.794432,70.71624 55.4837888,70.057296 55.4837888,69.0232608 C55.4837888,67.9892256 54.794432,67.3302816 53.8719104,67.3302816 C52.9595264,67.3302816 52.2701696,67.9892256 52.2701696,69.0232608 C52.2701696,70.057296 52.9595264,70.71624 53.8719104,70.71624 Z M61.9515776,66.3165216 L63.2187776,66.3165216 L63.2187776,71.73 L62.0124032,71.73 L62.0124032,71.0406432 C61.6068992,71.5373856 60.9682304,71.8009632 60.268736,71.8009632 C58.8798848,71.8009632 57.937088,71.0406432 57.937088,69.4084896 L57.937088,66.3165216 L59.204288,66.3165216 L59.204288,69.2361504 C59.204288,70.2194976 59.6706176,70.6858272 60.471488,70.6858272 C61.3534592,70.6858272 61.9515776,70.1383968 61.9515776,69.0536736 L61.9515776,66.3165216 Z M66.0877184,67.1072544 C66.452672,66.5395488 67.111616,66.255696 68.0138624,66.255696 L68.0138624,67.4620704 C67.9023488,67.4417952 67.8111104,67.4316576 67.719872,67.4316576 C66.7568,67.4316576 66.148544,67.9993632 66.148544,69.1043616 L66.148544,71.73 L64.881344,71.73 L64.881344,66.3165216 L66.0877184,66.3165216 L66.0877184,67.1072544 Z" id="Workbench-Quick-Tour" fill="#FFFFFF"></path>
            </g>
        </g>
    </g>
</svg>