<?xml version="1.0" encoding="UTF-8"?>
<svg width="7px" height="22px" viewBox="0 0 7 22" version="1.1" xmlns="http://www.w3.org/2000/svg" xmlns:xlink="http://www.w3.org/1999/xlink">
    <!-- Generator: sketchtool 53 (72520) - https://sketchapp.com -->
    <title>0A728F00-5608-471E-954E-07CB345402EF@3x</title>
    <desc>Created with sketchtool.</desc>
    <defs>
        <path d="M9,5 L10,5 L10,6 L9,6 L9,5 Z M6,5 L7,5 L7,6 L6,6 L6,5 Z M3,5 L4,5 L4,6 L3,6 L3,5 Z M0,5 L1,5 L1,6 L0,6 L0,5 Z M9,2.5 L10,2.5 L10,3.5 L9,3.5 L9,2.5 Z M6,2.5 L7,2.5 L7,3.5 L6,3.5 L6,2.5 Z M3,2.5 L4,2.5 L4,3.5 L3,3.5 L3,2.5 Z M0,2.5 L1,2.5 L1,3.5 L0,3.5 L0,2.5 Z M9,0 L10,0 L10,1 L9,1 L9,0 Z M6,0 L7,0 L7,1 L6,1 L6,0 Z M3,0 L4,0 L4,1 L3,1 L3,0 Z M0,0 L1,0 L1,1 L0,1 L0,0 Z" id="path-1"></path>
        <path d="M9,5 L10,5 L10,6 L9,6 L9,5 Z M6,5 L7,5 L7,6 L6,6 L6,5 Z M3,5 L4,5 L4,6 L3,6 L3,5 Z M0,5 L1,5 L1,6 L0,6 L0,5 Z M9,2.5 L10,2.5 L10,3.5 L9,3.5 L9,2.5 Z M6,2.5 L7,2.5 L7,3.5 L6,3.5 L6,2.5 Z M3,2.5 L4,2.5 L4,3.5 L3,3.5 L3,2.5 Z M0,2.5 L1,2.5 L1,3.5 L0,3.5 L0,2.5 Z M9,0 L10,0 L10,1 L9,1 L9,0 Z M6,0 L7,0 L7,1 L6,1 L6,0 Z M3,0 L4,0 L4,1 L3,1 L3,0 Z M0,0 L1,0 L1,1 L0,1 L0,0 Z" id="path-3"></path>
    </defs>
    <g id="Page-1" stroke="none" stroke-width="1" fill="none" fill-rule="evenodd">
        <g id="Tylenol-Search-Results---Drug-Exposure" transform="translate(-447.000000, -944.000000)">
            <g id="Group-2" transform="translate(447.956226, 944.000000)">
                <g id="Group-7">
                    <g id="color" transform="translate(3.000000, 17.000000) rotate(90.000000) translate(-3.000000, -17.000000) translate(-2.000000, 14.000000)">
                        <mask id="mask-2" fill="white">
                            <use xlink:href="#path-1"></use>
                        </mask>
                        <use id="Mask" fill="#777777" fill-rule="nonzero" xlink:href="#path-1"></use>
                    </g>
                    <g id="color" transform="translate(3.000000, 5.000000) rotate(90.000000) translate(-3.000000, -5.000000) translate(-2.000000, 2.000000)">
                        <mask id="mask-4" fill="white">
                            <use xlink:href="#path-3"></use>
                        </mask>
                        <use id="Mask" fill="#777777" fill-rule="nonzero" xlink:href="#path-3"></use>
                    </g>
                </g>
            </g>
        </g>
    </g>
</svg>