<svg xmlns="http://www.w3.org/2000/svg" viewBox="0 0 102 108.3">
	<style>
		.st0{fill:none;stroke-width:2;stroke-linecap:round;stroke-linejoin:round}.st0,.st1,.st3,.st4{stroke:#fff;stroke-miterlimit:10}.st1{stroke-width:2;stroke-linecap:round;stroke-linejoin:round;fill:#fff}.st3,.st4{fill:none}.st4{fill:#2ecc71}
	</style>
	<path d="M49.8 85.3l2.2-6.6 7.2-7.2v-9.9H40.4v6.3l-6.2 6.2V61.6H15.4v37.5h43.8v-11L47.6 92l2.2-6.7zm-2-6.4h-23 23zm-23 12.5h14.6-14.6zm0-6.2h17-17zM82.9 56.6l-4.4-4.4-19.3 19.3" class="st0"/>
	<path d="M59.2 85.9l1.6 1.6L87.3 61l-4.4-4.4" class="st0"/>
	<path d="M59.2 88.1l1.6-.6-1.6-1.6z" class="st1"/>
	<path d="M54.3 89.7L47.6 92l11.6-3.9v-2.2L52 78.7l-4.1 12.7" class="st0"/>
	<path d="M78.5 52.2l6.7-6.7zM87.3 61l6.8-6.7-6.8 6.7z" class="st1"/>
	<path d="M94.1 50.1l-4.6-4.6a2.9 2.9 0 0 0-4.2 0l-6.7 6.7 4.4 4.4 4.4 4.4 6.7-6.7c1.1-1.2 1.1-3.1 0-4.2zM40.4 55.2h-2.7 2.7L56 42.9H34h22.1v-6.3H18.5v6.3H28h-9.5l15.6 12.3v6.4h6.3zM40.4 67.9v-6.3h-6.3v12.6z" class="st0"/>
	<path fill="#1f3a93" stroke="#fff" stroke-miterlimit="10" d="M37.2 11.9z"/>
	<circle cx="37.2" cy="30.1" r="1" class="st3"/>
	<circle cx="37.2" cy="17.6" r="1" class="st3"/>
	<circle cx="37.2" cy="23.9" r="1" class="st3"/>
	<path d="M53.5 22.8c.1 0 .2 0 .4-.1.5-.2.8-.8.6-1.3-.2-.5-.8-.8-1.3-.6-.5.2-.8.8-.6 1.3.1.4.5.7.9.7zM44.4 31.2c.1 0 .3.1.4.1.4 0 .8-.2.9-.6.2-.5 0-1.1-.5-1.3-.5-.2-1.1 0-1.3.5-.3.5 0 1.1.5 1.3zM26.3 26.1c.3 0 .5-.1.7-.3.4-.4.4-1 0-1.4-.4-.4-1-.4-1.4 0-.4.4-.4 1 0 1.4.2.3.5.3.7.3zM48.6 26.1c.3 0 .5-.1.7-.3.4-.4.4-1 0-1.4-.4-.4-1-.4-1.4 0-.4.4-.4 1 0 1.4.2.3.5.3.7.3zM29.8 31.3c.1 0 .3 0 .4-.1.5-.2.7-.8.5-1.3-.2-.5-.8-.8-1.3-.5-.5.2-.8.8-.5 1.3.2.4.5.6.9.6zM20.7 22.7c.1.1.2.1.4.1.4 0 .8-.2.9-.6.2-.5 0-1.1-.6-1.3-.5-.2-1.1.1-1.3.6-.1.4.1 1 .6 1.2z" class="st3"/>
	<path d="M37.2 11.9a1 1 0 0 1-1-1v-.2a3.12 3.12 0 0 1 .9-6.1c1.7 0 3.1 1.4 3.1 3.1 0 1.4-.9 2.5-2.2 3v.2c.2.5-.2 1-.8 1 2.3 0 4.1-1.9 4.1-4.1 0-2.3-1.9-4.1-4.1-4.1s-4.1 1.9-4.1 4.1 1.8 4.1 4.1 4.1z" class="st4"/>
	<path d="M38.2 10.9v-.2c-.3.1-.6.2-1 .2-.3 0-.7-.1-1-.2v.2c0 .5.4 1 1 1s1-.5 1-1zM37.2 9.9c.5 0 .9.4 1 .8 1.2-.4 2.2-1.6 2.2-3 0-1.7-1.4-3.1-3.1-3.1-1.7 0-3.1 1.4-3.1 3.1 0 1.4.9 2.5 2.2 3-.1-.5.3-.8.8-.8zm-2.1-2.2c0-1.2 1-2.1 2.1-2.1s2.1 1 2.1 2.1-1 2.1-2.1 2.1-2.1-.9-2.1-2.1z" class="st4"/>
	<path d="M38.2 10.7c-.1-.5-.5-.8-1-.8s-.9.4-1 .8c.3.1.6.2 1 .2s.7-.1 1-.2zM12.2 16.5c-2.3 0-4.1 1.9-4.1 4.1s1.9 4.1 4.1 4.1 4.1-1.9 4.1-4.1-1.8-4.1-4.1-4.1zm0 7.3c-1.7 0-3.1-1.4-3.1-3.1 0-1.7 1.4-3.1 3.1-3.1 1.7 0 3.1 1.4 3.1 3.1 0 1.7-1.4 3.1-3.1 3.1z" class="st4"/>
	<path d="M12.2 17.5c-1.7 0-3.1 1.4-3.1 3.1 0 1.7 1.4 3.1 3.1 3.1 1.7 0 3.1-1.4 3.1-3.1 0-1.7-1.4-3.1-3.1-3.1zm0 5.3c-1.2 0-2.1-1-2.1-2.1s1-2.1 2.1-2.1 2.1 1 2.1 2.1-.9 2.1-2.1 2.1zM62.4 24.8c2.3 0 4.1-1.9 4.1-4.1s-1.9-4.1-4.1-4.1c-2.3 0-4.1 1.9-4.1 4.1s1.8 4.1 4.1 4.1zm0-7.3c1.7 0 3.1 1.4 3.1 3.1 0 1.7-1.4 3.1-3.1 3.1-1.7 0-3.1-1.4-3.1-3.1-.1-1.7 1.3-3.1 3.1-3.1z" class="st4"/>
	<path d="M62.4 23.8c1.7 0 3.1-1.4 3.1-3.1 0-1.7-1.4-3.1-3.1-3.1-1.7 0-3.1 1.4-3.1 3.1-.1 1.7 1.3 3.1 3.1 3.1zm0-5.3c1.2 0 2.1 1 2.1 2.1s-1 2.1-2.1 2.1-2.1-1-2.1-2.1.9-2.1 2.1-2.1z" class="st4"/>
</svg>
