<?xml version="1.0" encoding="utf-8"?>
<!-- Generator: Adobe Illustrator 22.1.0, SVG Export Plug-In . SVG Version: 6.00 Build 0)  -->
<svg version="1.1" id="Layer_1" xmlns="http://www.w3.org/2000/svg" xmlns:xlink="http://www.w3.org/1999/xlink" x="0px" y="0px"
	 viewBox="0 0 102 108.3" style="enable-background:new 0 0 102 108.3;" xml:space="preserve">
<style type="text/css">
	.st0{fill:none;stroke:#FFFFFF;stroke-width:2;stroke-linecap:round;stroke-linejoin:round;stroke-miterlimit:10;}
	.st1{fill:#FFFFFF;stroke:#FFFFFF;stroke-width:2;stroke-linecap:round;stroke-linejoin:round;stroke-miterlimit:10;}
	.st2{fill:#1F3A93;stroke:#FFFFFF;stroke-miterlimit:10;}
	.st3{fill:none;stroke:#FFFFFF;stroke-miterlimit:10;}
	.st4{fill:#2ECC71;stroke:#FFFFFF;stroke-miterlimit:10;}
</style>
<g>
	<path class="st0" d="M49.8,85.3l2.2-6.6l7.2-7.2v-9.9H40.4v6.3l-6.2,6.2V61.6H15.4v37.5h43.8v-11L47.6,92L49.8,85.3z M47.8,78.9
		h-23H47.8z M24.8,91.4h14.6H24.8z M24.8,85.2h17H24.8z"/>
	<polyline class="st0" points="82.9,56.6 78.5,52.2 59.2,71.5 	"/>
	<polyline class="st0" points="59.2,85.9 60.8,87.5 87.3,61 82.9,56.6 	"/>
	<polygon class="st1" points="59.2,88.1 60.8,87.5 59.2,85.9 	"/>
	<polyline class="st0" points="54.3,89.7 47.6,92 59.2,88.1 59.2,85.9 52,78.7 47.9,91.4 	"/>
	<polygon class="st1" points="78.5,52.2 78.5,52.2 85.2,45.5 	"/>
	<polygon class="st1" points="87.3,61 94.1,54.3 87.3,61 	"/>
	<path class="st0" d="M94.1,50.1l-4.6-4.6c-1.2-1.2-3.1-1.2-4.2,0l-6.7,6.7l4.4,4.4l4.4,4.4l6.7-6.7C95.2,53.1,95.2,51.2,94.1,50.1z
		"/>
	<polygon class="st0" points="40.4,55.2 37.7,55.2 40.4,55.2 40.4,55.2 56,42.9 34,42.9 56,42.9 56.1,42.9 56.1,36.6 18.5,36.6 
		18.5,42.9 28,42.9 18.5,42.9 34.1,55.2 34.1,61.6 40.4,61.6 	"/>
	<polygon class="st0" points="40.4,67.9 40.4,61.6 34.1,61.6 34.1,74.2 	"/>
	<polygon class="st2" points="37.2,11.9 37.2,11.9 37.2,11.9 	"/>
	<circle class="st3" cx="37.2" cy="30.1" r="1"/>
	<circle class="st3" cx="37.2" cy="17.6" r="1"/>
	<circle class="st3" cx="37.2" cy="23.9" r="1"/>
	<path class="st3" d="M53.5,22.8c0.1,0,0.2,0,0.4-0.1c0.5-0.2,0.8-0.8,0.6-1.3c-0.2-0.5-0.8-0.8-1.3-0.6c-0.5,0.2-0.8,0.8-0.6,1.3
		C52.7,22.5,53.1,22.8,53.5,22.8z"/>
	<path class="st3" d="M44.4,31.2c0.1,0,0.3,0.1,0.4,0.1c0.4,0,0.8-0.2,0.9-0.6c0.2-0.5,0-1.1-0.5-1.3c-0.5-0.2-1.1,0-1.3,0.5
		C43.6,30.4,43.9,31,44.4,31.2z"/>
	<path class="st3" d="M26.3,26.1c0.3,0,0.5-0.1,0.7-0.3c0.4-0.4,0.4-1,0-1.4c-0.4-0.4-1-0.4-1.4,0c-0.4,0.4-0.4,1,0,1.4
		C25.8,26.1,26.1,26.1,26.3,26.1z"/>
	<path class="st3" d="M48.6,26.1c0.3,0,0.5-0.1,0.7-0.3c0.4-0.4,0.4-1,0-1.4c-0.4-0.4-1-0.4-1.4,0c-0.4,0.4-0.4,1,0,1.4
		C48.1,26.1,48.4,26.1,48.6,26.1z"/>
	<path class="st3" d="M29.8,31.3c0.1,0,0.3,0,0.4-0.1c0.5-0.2,0.7-0.8,0.5-1.3c-0.2-0.5-0.8-0.8-1.3-0.5c-0.5,0.2-0.8,0.8-0.5,1.3
		C29.1,31.1,29.4,31.3,29.8,31.3z"/>
	<path class="st3" d="M20.7,22.7c0.1,0.1,0.2,0.1,0.4,0.1c0.4,0,0.8-0.2,0.9-0.6c0.2-0.5,0-1.1-0.6-1.3c-0.5-0.2-1.1,0.1-1.3,0.6
		C20,21.9,20.2,22.5,20.7,22.7z"/>
	<path class="st4" d="M37.2,11.9C37.2,11.9,37.2,11.9,37.2,11.9c-0.6,0-1-0.5-1-1c0-0.1,0-0.1,0-0.2c-1.3-0.4-2.2-1.6-2.2-3
		c0-1.7,1.4-3.1,3.1-3.1c1.7,0,3.1,1.4,3.1,3.1c0,1.4-0.9,2.5-2.2,3c0,0.1,0,0.1,0,0.2C38.2,11.4,37.8,11.9,37.2,11.9
		c2.3,0,4.1-1.9,4.1-4.1c0-2.3-1.9-4.1-4.1-4.1s-4.1,1.9-4.1,4.1S34.9,11.9,37.2,11.9z"/>
	<path class="st4" d="M38.2,10.9c0-0.1,0-0.1,0-0.2c-0.3,0.1-0.6,0.2-1,0.2c-0.3,0-0.7-0.1-1-0.2c0,0.1,0,0.1,0,0.2c0,0.5,0.4,1,1,1
		c0,0,0,0,0,0C37.8,11.9,38.2,11.4,38.2,10.9z"/>
	<path class="st4" d="M37.2,9.9c0.5,0,0.9,0.4,1,0.8c1.2-0.4,2.2-1.6,2.2-3c0-1.7-1.4-3.1-3.1-3.1c-1.7,0-3.1,1.4-3.1,3.1
		c0,1.4,0.9,2.5,2.2,3C36.3,10.2,36.7,9.9,37.2,9.9z M35.1,7.7c0-1.2,1-2.1,2.1-2.1s2.1,1,2.1,2.1s-1,2.1-2.1,2.1S35.1,8.9,35.1,7.7
		z"/>
	<path class="st4" d="M38.2,10.7c-0.1-0.5-0.5-0.8-1-0.8c-0.5,0-0.9,0.4-1,0.8c0.3,0.1,0.6,0.2,1,0.2C37.6,10.9,37.9,10.8,38.2,10.7
		z"/>
	<path class="st4" d="M12.2,16.5c-2.3,0-4.1,1.9-4.1,4.1s1.9,4.1,4.1,4.1s4.1-1.9,4.1-4.1S14.5,16.5,12.2,16.5z M12.2,23.8
		c-1.7,0-3.1-1.4-3.1-3.1c0-1.7,1.4-3.1,3.1-3.1c1.7,0,3.1,1.4,3.1,3.1C15.3,22.4,13.9,23.8,12.2,23.8z"/>
	<path class="st4" d="M12.2,17.5c-1.7,0-3.1,1.4-3.1,3.1c0,1.7,1.4,3.1,3.1,3.1c1.7,0,3.1-1.4,3.1-3.1
		C15.3,18.9,13.9,17.5,12.2,17.5z M12.2,22.8c-1.2,0-2.1-1-2.1-2.1s1-2.1,2.1-2.1s2.1,1,2.1,2.1S13.4,22.8,12.2,22.8z"/>
	<path class="st4" d="M62.4,24.8c2.3,0,4.1-1.9,4.1-4.1s-1.9-4.1-4.1-4.1c-2.3,0-4.1,1.9-4.1,4.1S60.1,24.8,62.4,24.8z M62.4,17.5
		c1.7,0,3.1,1.4,3.1,3.1c0,1.7-1.4,3.1-3.1,3.1c-1.7,0-3.1-1.4-3.1-3.1C59.2,18.9,60.6,17.5,62.4,17.5z"/>
	<path class="st4" d="M62.4,23.8c1.7,0,3.1-1.4,3.1-3.1c0-1.7-1.4-3.1-3.1-3.1c-1.7,0-3.1,1.4-3.1,3.1
		C59.2,22.4,60.6,23.8,62.4,23.8z M62.4,18.5c1.2,0,2.1,1,2.1,2.1s-1,2.1-2.1,2.1s-2.1-1-2.1-2.1S61.2,18.5,62.4,18.5z"/>
</g>
</svg>
