<svg xmlns="http://www.w3.org/2000/svg" viewBox="0 0 379.03 236.89">
    <defs>
        <style>
            .cls-1{fill:none;stroke:#fff;stroke-miterlimit:10;stroke-width:15.79px}
        </style>
    </defs>
    <rect width="31.59" height="47.38" x="22.11" y="19.35" class="cls-1" rx="1" ry="1" transform="rotate(180 30.8 37.31)"/>
    <path d="M260.58 55.27V15.79a7.9 7.9 0 0 0-7.9-7.9h-15.79a7.9 7.9 0 0 0-7.9 7.9v15.75M150.03 31.54V15.79a7.9 7.9 0 0 0-7.9-7.9h-15.79a7.9 7.9 0 0 0-7.9 7.9v39.48" class="cls-1"/>
    <rect width="31.59" height="47.38" x="300.06" y="94.76" class="cls-1" rx="1" ry="1"/>
    <path d="M300.06 197.41v-7.87a7.9 7.9 0 0 1 7.9-7.9h15.82a7.9 7.9 0 0 1 7.9 7.9v31.58a7.9 7.9 0 0 1-7.9 7.9h-7.9M78.96 0v63.17M189.51 0v31.59M371.13 86.86v63.17M371.13 173.72v63.17" class="cls-1"/>
    <rect width="31.59" height="47.38" x="353.76" y="19.35" class="cls-1" rx="1" ry="1" transform="rotate(180 362.44 37.32)"/>
    <path d="M300.06 0v63.17" class="cls-1"/>
    <rect width="31.59" height="47.38" x="61.6" y="106.21" class="cls-1" rx="1" ry="1" transform="rotate(180 70.28 124.17)"/>
    <path d="M7.9 86.86v63.17" class="cls-1"/>
    <rect width="31.59" height="47.38" x="7.9" y="181.62" class="cls-1" rx="1" ry="1"/>
    <path d="M260.58 213.21v7.88a7.9 7.9 0 0 1-7.9 7.9h-15.79a7.9 7.9 0 0 1-7.9-7.9V205.3M189.51 205.3v15.79a7.89 7.89 0 0 1-7.9 7.9h-15.83a7.9 7.9 0 0 1-7.9-7.9V205.3M78.96 173.72v63.17M118.45 181.62v55.27" class="cls-1"/>
    <circle cx="189.51" cy="118.45" r="71.07" class="cls-1"/>
    <rect width="31.59" height="47.38" x="189.51" y="94.76" class="cls-1" rx="1" ry="1"/>
    <path d="M157.93 86.86v63.17M236.89 165.82l63.17 63.17" class="cls-1"/>
</svg>
