<svg xmlns="http://www.w3.org/2000/svg" viewBox="0 0 369.4 254.9">
	<style>
		.st0,.st1{fill:none;stroke:#fff;stroke-width:14.6079;stroke-miterlimit:10}.st1{stroke-width:13.1766}
	</style>
	<circle cx="186" cy="126.1" r="65.7" class="st0"/>
	<path d="M229.8 169.9l58.5 58.5" class="st0"/>
	<path d="M212.7 154.1h-52.2c-3.3 0-6-2.7-6-6v-41.5c0-3.3 2.7-6 6-6h52.2c3.3 0 6 2.7 6 6v41.5c0 3.3-2.7 6-6 6zM91.5 154.1H39.3c-3.3 0-6-2.7-6-6v-41.5c0-3.3 2.7-6 6-6h52.2c3.3 0 6 2.7 6 6v41.5c0 3.3-2.7 6-6 6zM335.5 154.1h-52.2c-3.3 0-6-2.7-6-6v-41.5c0-3.3 2.7-6 6-6h52.2c3.3 0 6 2.7 6 6v41.5c0 3.3-2.7 6-6 6z" class="st1"/>
</svg>
