<?xml version="1.0" encoding="utf-8"?>
<!-- Generator: Adobe Illustrator 23.0.2, SVG Export Plug-In . SVG Version: 6.00 Build 0)  -->
<svg version="1.1" id="Layer_1" xmlns="http://www.w3.org/2000/svg" xmlns:xlink="http://www.w3.org/1999/xlink" x="0px" y="0px"
	 viewBox="0 0 12 11" style="enable-background:new 0 0 12 11;" xml:space="preserve">
<style type="text/css">
	.st0{filter:url(#Adobe_OpacityMaskFilter);}
	.st1{fill-rule:evenodd;clip-rule:evenodd;fill:#FFFFFF;}
	.st2{mask:url(#mask-2_1_);}
	.st3{fill-rule:evenodd;clip-rule:evenodd;fill:#216FB4;}
</style>
<title>mask</title>
<desc>Created with Sketch.</desc>
<g id="Page-1">
	<g id="Table-header" transform="translate(-699.000000, -618.000000)">
		<g id="mask" transform="translate(699.000000, 618.000000)">
			<g id="Mask">
				<path d="M0,0v0.7c0,0.1,0,0.2,0.1,0.2l4.4,4.4c0.1,0.1,0.1,0.1,0.1,0.2v4.1c0,0.1,0.1,0.2,0.2,0.3l2.4,0.8c0.1,0,0.2,0,0.3,0
					c0.1-0.1,0.1-0.2,0.1-0.3v-5c0-0.1,0-0.2,0.1-0.2l4.3-4.3C12,0.8,12,0.8,12,0.7V0H0z"/>
			</g>
			<defs>
				<filter id="Adobe_OpacityMaskFilter" filterUnits="userSpaceOnUse" x="-5" y="-5" width="22" height="22">
					<feColorMatrix  type="matrix" values="1 0 0 0 0  0 1 0 0 0  0 0 1 0 0  0 0 0 1 0"/>
				</filter>
			</defs>
			<mask maskUnits="userSpaceOnUse" x="-5" y="-5" width="22" height="22" id="mask-2_1_">
				<g class="st0">
					<path id="path-1_1_" class="st1" d="M0,0v0.7c0,0.1,0,0.2,0.1,0.2l4.4,4.4c0.1,0.1,0.1,0.1,0.1,0.2v4.1c0,0.1,0.1,0.2,0.2,0.3
						l2.4,0.8c0.1,0,0.2,0,0.3,0c0.1-0.1,0.1-0.2,0.1-0.3v-5c0-0.1,0-0.2,0.1-0.2l4.3-4.3C12,0.8,12,0.8,12,0.7V0H0z"/>
				</g>
			</mask>
			<g id="color" class="st2">
				<g id="Rectangle" transform="translate(-5.000000, -5.000000)">
					<rect class="st3" width="22" height="22"/>
				</g>
			</g>
		</g>
	</g>
</g>
</svg>
