<?xml version="1.0" encoding="utf-8"?>
<!-- Generator: Adobe Illustrator 25.4.1, SVG Export Plug-In . SVG Version: 6.00 Build 0)  -->
<svg version="1.1" id="Art" xmlns="http://www.w3.org/2000/svg" xmlns:xlink="http://www.w3.org/1999/xlink" x="0px" y="0px"
	 viewBox="0 0 833.9 142.6" style="enable-background:new 0 0 833.9 142.6;" xml:space="preserve">
<style type="text/css">
	.st0{fill:#606469;}
	.st1{fill:#4385F3;}
	.st2{fill:#FABB06;}
	.st3{fill:#E94336;}
	.st4{fill:#34A753;}
</style>
<g id="NrvvcU.tif">
	<g>
		<path class="st0" d="M433.4,138.2c-0.3-0.5-0.8-0.3-1.3-0.4c-8.7-1.8-14.7-6.9-18.9-14.5c-0.6-1.1-0.5-1.6,0.7-2
			c2.6-1,5.2-2,7.7-3.2c1.2-0.5,1.7-0.3,2.3,0.9c4.6,8.4,12.8,10,19.6,7.1c5.7-2.4,7.7-7.3,8.2-13c0.2-1.9,0-3.8,0-5.9
			c-0.4,0.1-0.6,0.2-0.7,0.3c-6.6,7-14.7,7.3-23.1,4.4c-11.8-4.2-19.1-16.6-17.5-29.1c1.6-12.3,10.2-21.7,21.9-23.9
			c6.9-1.3,13.2,0.3,18.4,5.3c0.2,0.2,0.4,0.4,0.8,0.6c0.5-1.1,0.3-2,0.2-3c0-1,0.2-1.5,1.4-1.4c2.9,0.1,5.8,0.1,8.7,0
			c1.2,0,1.4,0.4,1.4,1.5c0,8.2,0,16.4,0,24.6c0,8.4,0,16.8,0.1,25.2c0.1,11.3-6.4,24-21.7,26.4c-0.2,0-0.5,0.1-0.5,0.4
			C438.7,138.2,436,138.2,433.4,138.2z M452.7,85.4c0-0.8-0.1-2.2-0.4-3.7c-2.3-11.4-15.3-16.3-23.9-8.9c-6.8,5.8-8,16.2-2.7,23.4
			c5.1,6.9,14.7,8.5,21,3.4C450.9,96.1,452.7,91.5,452.7,85.4z"/>
		<path class="st0" d="M826.1,111.6c-2.7,0-5.5,0-8.2,0.1c-1,0-1.2-0.4-1.1-1.3c0-1.9,0-3.7,0-6.1c-1.1,1.2-1.7,2.1-2.4,2.8
			c-6.9,7.3-19.4,8.3-28.2,2.3c-15.4-10.6-15.4-35.8-0.1-46.4c8.1-5.6,19.5-5.3,26.9,0.7c1.4,1.1,2.4,2.5,3.6,4
			c0.5-0.6,0.3-1.2,0.2-1.7c-0.7-9.2-0.1-18.4-0.3-27.6c0-0.8,0.1-1.3,1.1-1.3c2.8,0.1,5.7,0.1,8.5,0.1
			C826.1,62,826.1,86.8,826.1,111.6z M816.8,86.1c0.1-3-0.4-5.9-1.7-8.7c-2.7-5.9-7.3-9.5-13.9-9.8c-6.8-0.3-11.9,2.9-14.9,8.9
			c-3.2,6.5-3.2,13.3,0.3,19.7c5.5,10.2,19.5,11.2,26.3,2.2C815.8,94.9,817,90.8,816.8,86.1z"/>
		<path class="st1" d="M120.3,25.1c0.9-0.1,1.2,0.6,1.7,1.1c7.7,7.3,13,16,16.1,26.1c0.3,0.9,0.7,1.6,1.5,2.3
			c12.3,9.2,18.2,21.6,17.7,36.9c-0.7,20-16.6,37.4-36.5,40.2c-2.5,0.4-5.1,0.5-7.6,0.5c-10.1,0-20.3,0-30.4,0
			c-0.6,0-1.3,0.2-1.9-0.2c0-8.7,0-17.4,0.1-26.2c11.2,0,22.4,0.1,33.6-0.1c10.5-0.1,18-10.1,15.6-20.2c-1.7-6.8-6.9-11.6-13.8-12.4
			c-1.9-0.2-2.5-0.8-2.3-2.7c0.2-2.2,0-4.4-0.3-6.5c-1.4-8.2-5.1-15-11.6-20.2c0.5-0.5,0.9-1.1,1.4-1.6
			C109,36.3,114.7,30.7,120.3,25.1z"/>
		<path class="st0" d="M265.4,66.9c6,0,12,0,18,0c1.3,0,1.7,0.4,1.8,1.7c0.9,8.8,0.2,17.4-4.4,25.2c-7.3,12.5-18.4,19-32.7,19.6
			c-16.8,0.8-30.1-6.1-39.4-19.9c-11-16.2-8.4-38.4,5.4-52.2c7.2-7.2,15.6-11.9,25.7-13.1c12.8-1.5,24.2,1.7,33.9,10.4
			c0.9,0.8,1,1.3,0.1,2.2c-2.1,2-4.1,4-6,6.1c-0.9,1-1.5,0.9-2.5,0.1c-10.4-8.8-25.4-9.9-36.5-2.3c-11.2,7.7-16,18.6-13.6,31.9
			c2.4,12.9,10.6,21,23.3,24.2c10.3,2.5,19.6,0,27.6-6.9c4.2-3.7,6.3-8.6,7.1-14.1c0.2-1.5-0.8-1-1.4-1c-8.1,0-16.1-0.1-24.2,0
			c-1.7,0-2.3-0.4-2.1-2.1c0.2-2.6,0.1-5.3,0-8c0-1.3,0.3-1.8,1.7-1.8C253.3,66.9,259.3,66.9,265.4,66.9z"/>
		<path class="st2" d="M22.1,123c-9.7-7.5-15.3-17.3-16.5-29.3C4,77.3,10.1,64.2,23.2,54.3c0.3-0.2,0.5-0.5,0.8-0.7
			c1.3-0.7,2.6-1.5,3.9-2.2c9.1-4.9,18.8-6.1,28.9-4.3c0.4,0.1,0.8,0.3,1.2,0.4c9.2,2.2,16.8,6.9,23,13.9c1.1,1.2,1.3,2-0.1,3.2
			c-5.5,5.2-10.8,10.6-16.1,16c-1.5,1.5-1.5,1.5-2.7-0.3c-4.2-6.7-12.7-9.5-20-6.6c-7.5,3-11.7,10.7-10.1,18.6
			c1.1,5.5,4.5,9.2,9.3,11.8C34.8,110.4,28.4,116.7,22.1,123z"/>
		<path class="st3" d="M56.7,47.1c-10.1-1.8-19.8-0.5-28.9,4.3c-1.3,0.7-2.6,1.4-3.9,2.2c-0.4-1.1,0.2-2.1,0.6-3
			c8.2-22.2,23.9-35.9,47.3-39.8c17.6-3,33.4,1.8,47.3,13c0.4,0.4,1,0.6,1.2,1.3c-5.6,5.6-11.2,11.2-16.8,16.8
			c-0.5,0.5-0.9,1.1-1.4,1.6c-0.5-0.3-1.1-0.7-1.6-1C86.8,32.6,68,34.6,56.7,47.1z"/>
		<path class="st0" d="M519.6,58.4c7.1,0.1,14.3,5.9,19.1,15.3c0.8,1.6,2.2,3.6,1.8,5c-0.4,1.3-3,1.6-4.6,2.2
			c-10.2,4.2-20.4,8.4-30.7,12.6c-1.3,0.5-1.5,0.9-0.7,2.1c4.5,7.6,15.5,9.2,22.6,3.3c1.1-0.9,2.1-1.9,2.9-3.1
			c0.5-0.7,0.8-0.9,1.6-0.4c2.4,1.7,4.9,3.3,7.4,5c0.8,0.5,0.8,0.9,0.3,1.6c-6.4,9-18.2,13.3-29.3,10.6c-10.7-2.6-18.7-11.8-20.1-23
			c-0.9-7.1,0.3-13.8,4.3-19.8C499.2,62.5,506.8,58.4,519.6,58.4z M517.2,69c-8.5,0-15.3,6.6-15.6,14.3c0,1.4,0.3,1.6,1.6,1.1
			c7.2-3,14.5-6.1,21.8-9c1.4-0.5,1.2-1.1,0.5-2.1C523.2,70.3,520,69.2,517.2,69z"/>
		<path class="st0" d="M350.1,85.9c-0.5-16.2,13.3-27.6,27.7-27.6c15.6,0.1,27.4,11.9,27.7,27.4c0.3,15.9-12.8,27.7-27.8,27.7
			C362.9,113.4,349.7,101.7,350.1,85.9z M393.3,85.8c0-0.6,0.1-1.2,0-1.8c-0.7-6.4-3.8-11.2-9.8-13.6c-5.9-2.4-11.4-1.4-16.1,2.9
			c-4.6,4.3-6,9.7-5,15.8c1.4,9.1,10.7,15.2,19.5,12.8C388.6,100.2,393.3,93.6,393.3,85.8z"/>
		<path class="st0" d="M345,85.9c0.4,15.4-12.4,27.6-27.8,27.5c-14.9,0-28-11.8-27.6-28.1c0.4-15.2,12.3-27,28-26.9
			C332,58.4,345.4,69.8,345,85.9z M332.9,85.9c0-0.9,0-1.8-0.2-2.6c-0.9-5.8-3.9-10.3-9.3-12.7c-5.4-2.4-10.7-1.8-15.4,1.8
			c-5.4,4.2-7.1,9.9-6.2,16.5c1.2,9.1,10.5,15.5,19.4,13.1C328.1,100.2,332.9,93.7,332.9,85.9z"/>
		<path class="st0" d="M575.4,74.4c-0.7,12.6,7.2,24.9,20,28.5c11.9,3.3,22.4,0.6,31-8.3c0.9-1,1.4-1.1,2.3-0.1
			c1.4,1.6,2.9,3.1,4.5,4.5c0.9,0.8,0.8,1.3,0,2.1c-6,6.4-13.3,10.4-22,11.7c-13.6,2.1-25.6-1.2-35.3-11.2
			c-8.8-9-11.8-20.1-10.4-32.4c2-16.5,13.5-29.4,29.7-32.8c13.3-2.8,25.3-0.1,35.1,9.8c1,1.1,1.3,1.7,0,2.8c-1.6,1.3-3,2.8-4.5,4.3
			c-0.6,0.6-1,0.8-1.7,0c-8.3-9-18.7-10.7-29.8-7c-11.3,3.7-17.4,12.1-19.1,23.8C575.2,71.4,575.4,72.9,575.4,74.4z"/>
		<path class="st4" d="M22.1,123c6.4-6.3,12.7-12.6,19.1-19c3.3,1.3,6.8,1.5,10.3,1.4c9.2,0,18.4,0,27.7,0c0.6,0,1.3-0.1,1.9,0.2
			c0,8.7,0,17.4-0.1,26.2c-11.4,0-22.9,0.1-34.3,0c-8.6-0.1-16.5-2.8-23.6-7.8C22.7,123.7,22.4,123.3,22.1,123z"/>
		<path class="st0" d="M713.2,85.8c0,13.9-8,24.2-20.9,27.1c-15,3.3-29.8-7.2-31.6-22.4c-0.9-7.8,0.3-15.2,5.3-21.4
			c6.9-8.6,16.1-11.7,26.8-9.3c10.9,2.4,17.4,9.5,19.9,20.3C713.1,82.1,713.1,84.1,713.2,85.8z M703.5,86.2c0-1.7-0.1-3.3-0.5-4.9
			c-2.8-12.7-17.6-17.9-27.1-9.3c-5.4,4.9-6.6,11.2-5.6,18.1c1.7,11.2,13.3,17.8,23.3,13C700.6,99.7,703.4,93.7,703.5,86.2z"/>
		<path class="st0" d="M757.1,105c-3.4,4.2-7.4,7-12.6,8.1c-11.6,2.4-21.6-3.6-23.4-16.8c-0.6-4.2-0.2-8.4-0.2-12.6
			c-0.1-7.1,0-14.3,0-21.4c0-1.3,0.3-1.8,1.7-1.7c2.1,0.1,4.3,0.1,6.4,0c1.4-0.1,1.7,0.5,1.7,1.7c0,9,0,18.1,0,27.1
			c0,2.5,0.1,5,0.8,7.4c1.4,4.5,4.8,7.3,9.6,7.7c9,0.8,15.6-5.3,15.7-14.7c0.1-9.1,0.1-18.2,0-27.3c0-1.6,0.5-2,2-1.9
			c2.1,0.1,4.2,0.1,6.2,0c1.2-0.1,1.5,0.4,1.5,1.5c0,16,0,32,0,48c0,1.2-0.3,1.6-1.6,1.6c-2.1-0.1-4.1-0.1-6.2,0
			c-1.1,0-1.6-0.2-1.5-1.4C757.2,108.5,757.1,106.8,757.1,105z"/>
		<path class="st0" d="M471.8,71.3c0-12.9,0-25.7,0-38.6c0-1.5,0.4-1.9,1.9-1.8c2.8,0.1,5.6,0.1,8.3,0c1.6-0.1,2,0.4,2,2
			c-0.1,22.8,0,45.7,0,68.6c0,3-0.1,5.9,0,8.9c0,1.3-0.4,1.6-1.6,1.6c-3-0.1-5.9-0.1-8.9,0c-1.3,0-1.7-0.4-1.7-1.7
			C471.8,97.1,471.8,84.2,471.8,71.3z"/>
		<path class="st0" d="M642.6,74.3c0-11.8,0-23.5,0-35.3c0-1.7,0.5-2.1,2.1-2c2,0.1,4,0.1,6,0c1.3-0.1,1.6,0.4,1.6,1.6
			c-0.1,6.6,0,13.1,0,19.7c0,17.1,0,34.3,0,51.4c0,1.8-0.5,2.2-2.2,2.1c-1.9-0.1-3.9-0.1-5.9,0c-1.4,0.1-1.7-0.4-1.7-1.7
			c0.1-10.4,0-20.8,0-31.2C642.6,77.3,642.6,75.8,642.6,74.3z"/>
	</g>
</g>
</svg>
