<?xml version="1.0" encoding="utf-8"?>
<!-- Generator: Adobe Illustrator 22.1.0, SVG Export Plug-In . SVG Version: 6.00 Build 0)  -->
<svg version="1.1" id="Layer_1" xmlns="http://www.w3.org/2000/svg" xmlns:xlink="http://www.w3.org/1999/xlink" x="0px" y="0px"
	 viewBox="0 0 277.2 291.2" style="enable-background:new 0 0 277.2 291.2;" xml:space="preserve">
<style type="text/css">
	.st0{fill:#FFFFFF;}
</style>
<g>
	<g>
		<g>
			<g>
				<path class="st0" d="M253.1,245.3H21.9c-3,0-5.4-2.4-5.4-5.4V114.3c0-8.6,7-15.6,15.6-15.6h10.4c3,0,5.4,2.4,5.4,5.4
					c0,3-2.4,5.4-5.4,5.4H32.1c-2.7,0-4.8,2.2-4.8,4.8v120.2h220.5V114.3c0-2.7-2.2-4.8-4.8-4.8h-11.7c-3,0-5.4-2.4-5.4-5.4
					c0-3,2.4-5.4,5.4-5.4h11.7c8.6,0,15.6,7,15.6,15.6v125.6C258.5,242.9,256.1,245.3,253.1,245.3z"/>
			</g>
		</g>
	</g>
	<g>
		<g>
			<g>
				<path class="st0" d="M260.2,278.6H14.8c-5.8,0-10.5-4.7-10.5-10.5V245c0-5.8,4.7-10.5,10.5-10.5h245.5c5.8,0,10.5,4.7,10.5,10.5
					v23.1C270.7,273.9,266,278.6,260.2,278.6z M260,245l-245.2,0.3l0.3,22.9l244.9-0.3V245z"/>
			</g>
		</g>
	</g>
	<g>
		<g>
			<g>
				<path class="st0" d="M153.6,262h-32.3c-3,0-5.4-2.4-5.4-5.4c0-3,2.4-5.4,5.4-5.4h32.3c3,0,5.4,2.4,5.4,5.4
					C159,259.5,156.6,262,153.6,262z"/>
			</g>
		</g>
	</g>
	<g>
		<g>
			<g>
				<g>
					<path class="st0" d="M137.5,198.6c-2,0-3.8-1.1-4.7-2.8L115.3,164c-20.3-5.9-37.4-19.8-47.4-38.5c-0.7-1.3-1.3-2.5-1.9-3.8
						C53.7,95,57,64,74.8,40.7c7.7-10.2,17.6-18.2,29.4-23.7c39.4-18.3,86.4-1.2,104.7,38.2l0,0c11.7,25.2,9.2,55.1-6.7,78
						c-7.8,11.5-18.8,20.7-31.6,26.7c-4.4,2.1-9.1,3.7-14,4.9l-14.3,30.7c-0.9,1.8-2.7,3-4.7,3.1
						C137.6,198.6,137.6,198.6,137.5,198.6z M137.4,20.4c-9.6,0-19.3,2-28.6,6.3c-10.2,4.7-18.7,11.6-25.4,20.5
						C68,67.3,65.1,94.1,75.8,117.1c0.5,1.1,1.1,2.2,1.7,3.3c8.9,16.7,24.5,29.1,42.9,33.8c1.4,0.4,2.7,1.3,3.4,2.6l13.4,24.5
						l10.9-23.5c0.7-1.5,2.1-2.6,3.8-3c5.1-1.1,9.9-2.7,14.4-4.7c11.1-5.1,20.5-13.1,27.3-23c13.7-19.8,15.9-45.6,5.8-67.4l0,0
						C187.7,34.9,163,20.4,137.4,20.4z"/>
				</g>
			</g>
		</g>
		<g>
			<g>
				<g>
					<g>
						<path class="st0" d="M139,124c-0.8,0-1.7,0-2.5,0c-16.2-0.5-32.3-5.5-32-15.6l0.4-23.5c0.1-3,2.7-5.2,5.5-5.3
							c3,0.1,5.3,2.5,5.3,5.5l-0.4,23c1.7,1.7,9.3,4.8,21.6,5.2c12.3,0.4,20-2.3,21.8-3.9l0.4-22.9c0.1-3,2.8-5.4,5.5-5.3
							c3,0.1,5.3,2.5,5.3,5.5l-0.4,23.6c-0.1,3.6-2.3,8.4-11.9,11.4C152.3,123.1,145.8,124,139,124z M115.2,108.5L115.2,108.5
							C115.2,108.5,115.2,108.5,115.2,108.5z"/>
					</g>
				</g>
			</g>
			<g>
				<g>
					<g>
						<path class="st0" d="M137,102c-0.8,0-1.5-0.2-2.2-0.5L91.5,82c-1.9-0.9-3.2-2.8-3.2-5c0-2.1,1.3-4.1,3.3-4.9L136,53.5
							c1.4-0.6,3.1-0.6,4.5,0.1l43.2,21.3c1.9,0.9,3.1,2.9,3,5.1c-0.1,2.1-1.5,4-3.5,4.8l-44.3,16.9C138.3,101.9,137.6,102,137,102z
							 M107.2,77.3l29.9,13.5l30.7-11.7l-29.9-14.7L107.2,77.3z"/>
					</g>
				</g>
			</g>
		</g>
	</g>
</g>
</svg>
