<svg xmlns="http://www.w3.org/2000/svg" viewBox="0 0 277.2 291.2">
	<style>
		.st0{fill:#fff}
	</style>
	<path d="M253.1 245.3H21.9c-3 0-5.4-2.4-5.4-5.4V114.3c0-8.6 7-15.6 15.6-15.6h10.4c3 0 5.4 2.4 5.4 5.4 0 3-2.4 5.4-5.4 5.4H32.1a4.8 4.8 0 0 0-4.8 4.8v120.2h220.5V114.3c0-2.7-2.2-4.8-4.8-4.8h-11.7c-3 0-5.4-2.4-5.4-5.4 0-3 2.4-5.4 5.4-5.4H243c8.6 0 15.6 7 15.6 15.6v125.6c-.1 3-2.5 5.4-5.5 5.4z" class="st0"/>
	<path d="M260.2 278.6H14.8c-5.8 0-10.5-4.7-10.5-10.5V245c0-5.8 4.7-10.5 10.5-10.5h245.5c5.8 0 10.5 4.7 10.5 10.5v23.1c-.1 5.8-4.8 10.5-10.6 10.5zM260 245l-245.2.3.3 22.9 244.9-.3V245z" class="st0"/>
	<path d="M153.6 262h-32.3c-3 0-5.4-2.4-5.4-5.4 0-3 2.4-5.4 5.4-5.4h32.3c3 0 5.4 2.4 5.4 5.4 0 2.9-2.4 5.4-5.4 5.4zM137.5 198.6c-2 0-3.8-1.1-4.7-2.8L115.3 164A78.74 78.74 0 0 1 66 121.7C53.7 95 57 64 74.8 40.7A77.44 77.44 0 0 1 104.2 17c39.4-18.3 86.4-1.2 104.7 38.2a78.96 78.96 0 0 1-6.7 78 78.2 78.2 0 0 1-31.6 26.7c-4.4 2.1-9.1 3.7-14 4.9l-14.3 30.7c-.9 1.8-2.7 3-4.7 3.1h-.1zm-.1-178.2c-9.6 0-19.3 2-28.6 6.3a66 66 0 0 0-25.4 20.5 67.68 67.68 0 0 0-7.6 69.9c.5 1.1 1.1 2.2 1.7 3.3a67.83 67.83 0 0 0 42.9 33.8c1.4.4 2.7 1.3 3.4 2.6l13.4 24.5 10.9-23.5c.7-1.5 2.1-2.6 3.8-3 5.1-1.1 9.9-2.7 14.4-4.7a67.15 67.15 0 0 0 27.3-23 68.35 68.35 0 0 0 5.8-67.4 68.58 68.58 0 0 0-62-39.3z" class="st0"/>
	<path d="M139 124h-2.5c-16.2-.5-32.3-5.5-32-15.6l.4-23.5c.1-3 2.7-5.2 5.5-5.3 3 .1 5.3 2.5 5.3 5.5l-.4 23c1.7 1.7 9.3 4.8 21.6 5.2 12.3.4 20-2.3 21.8-3.9l.4-22.9c.1-3 2.8-5.4 5.5-5.3 3 .1 5.3 2.5 5.3 5.5l-.4 23.6c-.1 3.6-2.3 8.4-11.9 11.4A74.5 74.5 0 0 1 139 124zm-23.8-15.5z" class="st0"/>
	<path d="M137 102c-.8 0-1.5-.2-2.2-.5L91.5 82c-1.9-.9-3.2-2.8-3.2-5 0-2.1 1.3-4.1 3.3-4.9L136 53.5c1.4-.6 3.1-.6 4.5.1l43.2 21.3c1.9.9 3.1 2.9 3 5.1-.1 2.1-1.5 4-3.5 4.8l-44.3 16.9c-.6.2-1.3.3-1.9.3zm-29.8-24.7l29.9 13.5 30.7-11.7-29.9-14.7-30.7 12.9z" class="st0"/>
</svg>
