<svg xmlns="http://www.w3.org/2000/svg" viewBox="0 0 13 17">
    <g fill="#302C71" fill-rule="nonzero">
        <path d="M11.38 4.86h-.55C10.83 2.17 8.9 0 6.5 0 4.1 0 2.17 2.17 2.17 4.86h-.54C.72 4.86 0 5.67 0 6.68v8.5C0 16.18.73 17 1.63 17h9.75c.9 0 1.62-.82 1.62-1.82v-8.5c0-1-.73-1.82-1.63-1.82zM6.5 1.2c1.8 0 3.25 1.64 3.25 3.65h-6.5c0-2.01 1.46-3.65 3.25-3.65zm5.42 13.97c0 .33-.25.6-.54.6H1.62c-.3 0-.54-.27-.54-.6v-8.5c0-.34.25-.6.54-.6h9.75c.3 0 .55.26.55.6v8.5z"/>
        <path d="M7.27 9.31V7H5.73v2.31c-.45.26-.73.7-.73 1.19 0 .48.28.93.73 1.19V14h1.54v-2.31c.45-.26.73-.7.73-1.19 0-.48-.28-.93-.73-1.19z"/>
    </g>
</svg>
