<?xml version="1.0" encoding="UTF-8"?>
<svg width="33px" height="30px" viewBox="0 0 33 30" version="1.1" xmlns="http://www.w3.org/2000/svg" xmlns:xlink="http://www.w3.org/1999/xlink">
    <title>Group 3</title>
    <g id="WORKSPACE-LIBRARY" stroke="none" stroke-width="1" fill="none" fill-rule="evenodd">
        <g id="Workspace-lib-3" transform="translate(-34.000000, -288.000000)" fill="#262262" fill-rule="nonzero">
            <g id="Group-3" transform="translate(34.000000, 288.000000)">
                <g id="Group">
                    <path d="M9.71264608,9.61951144 C12.3689617,9.61951144 14.5224018,7.46607131 14.5224018,4.80975572 C14.5224018,2.15344013 12.3689617,0 9.71264608,0 C7.05633049,0 4.90289036,2.15344013 4.90289036,4.80975572 C4.90289036,7.46607131 7.05633049,9.61951144 9.71264608,9.61951144 Z M13.9211823,25.3058467 L13.9211823,25.5791533 C13.9211823,25.0408055 13.9211823,24.4395861 13.9211823,23.7754949 L13.9211823,14.4292672 C13.9211823,12.4369938 15.3122363,10.8219504 13.3199629,10.8219504 L12.4662048,10.8219504 C10.7594226,11.6067942 8.73940739,11.6406275 6.95908735,10.8219504 L6.10532929,10.8219504 C4.1130559,10.8219504 5.50410983,12.4369938 5.50410983,14.4292672 L5.50410983,23.7754949 C5.50410983,24.4395861 5.50410983,25.0408055 5.50410983,25.5791533 L5.50410983,25.3058467 C5.50410983,30.7924216 13.9211823,30.7924216 13.9211823,25.3058467 Z" id=""></path>
                    <rect id="Rectangle" transform="translate(4.247019, 16.178228) rotate(25.000000) translate(-4.247019, -16.178228) " x="2.4980125" y="10.0567057" width="3.4980125" height="12.2430438" rx="1.74900625"></rect>
                    <rect id="Rectangle-Copy" transform="translate(15.615559, 16.178228) rotate(-25.000000) translate(-15.615559, -16.178228) " x="13.8665531" y="10.0567057" width="3.4980125" height="12.2430438" rx="1.74900625"></rect>
                </g>
                <path d="M26.2968588,21.8749955 C26.554665,21.8749955 26.7656077,21.6640528 26.7656077,21.4062466 L26.7656077,19.0625022 L27.468731,19.0625022 C27.7265372,19.0625022 27.9374799,18.8515595 27.9374799,18.5937534 L27.9374799,17.6562556 C27.9374799,17.3984494 27.7265372,17.1875067 27.468731,17.1875067 L26.7656077,17.1875067 L26.7656077,7.34378017 C26.7656077,7.08597401 26.554665,6.87503129 26.2968588,6.87503129 L25.8281099,6.87503129 C25.5703037,6.87503129 25.359361,7.08597401 25.359361,7.34378017 L25.359361,17.1875067 L24.6562377,17.1875067 C24.3984315,17.1875067 24.1874888,17.3984494 24.1874888,17.6562556 L24.1874888,18.5937534 C24.1874888,18.8515595 24.3984315,19.0625022 24.6562377,19.0625022 L25.359361,19.0625022 L25.359361,21.4062466 C25.359361,21.6640528 25.5703037,21.8749955 25.8281099,21.8749955 L26.2968588,21.8749955 Z" id="Path"></path>
                <path d="M21.60937,21.8749955 C21.8671761,21.8749955 22.0781189,21.6640528 22.0781189,21.4062466 L22.0781189,11.5625201 L22.7812422,11.5625201 C23.0390483,11.5625201 23.2499911,11.3515774 23.2499911,11.0937712 L23.2499911,10.1562735 C23.2499911,9.89846731 23.0390483,9.68752459 22.7812422,9.68752459 L22.0781189,9.68752459 L22.0781189,7.34378017 C22.0781189,7.08597401 21.8671761,6.87503129 21.60937,6.87503129 L21.1406211,6.87503129 C20.8828149,6.87503129 20.6718722,7.08597401 20.6718722,7.34378017 L20.6718722,9.68752459 L19.9687489,9.68752459 C19.7109427,9.68752459 19.5,9.89846731 19.5,10.1562735 L19.5,11.0937712 C19.5,11.3515774 19.7109427,11.5625201 19.9687489,11.5625201 L20.6718722,11.5625201 L20.6718722,21.4062466 C20.6718722,21.6640528 20.8828149,21.8749955 21.1406211,21.8749955 L21.60937,21.8749955 Z" id="Path"></path>
                <path d="M30.60937,21.8749955 C30.8671761,21.8749955 31.0781189,21.6640528 31.0781189,21.4062466 L31.0781189,15.3125112 L31.7812422,15.3125112 C32.0390483,15.3125112 32.2499911,15.1015685 32.2499911,14.8437623 L32.2499911,13.9062645 C32.2499911,13.6484584 32.0390483,13.4375156 31.7812422,13.4375156 L31.0781189,13.4375156 L31.0781189,7.34378017 C31.0781189,7.08597401 30.8671761,6.87503129 30.60937,6.87503129 L30.1406211,6.87503129 C29.8828149,6.87503129 29.6718722,7.08597401 29.6718722,7.34378017 L29.6718722,13.4375156 L28.9687489,13.4375156 C28.7109427,13.4375156 28.5,13.6484584 28.5,13.9062645 L28.5,14.8437623 C28.5,15.1015685 28.7109427,15.3125112 28.9687489,15.3125112 L29.6718722,15.3125112 L29.6718722,21.4062466 C29.6718722,21.6640528 29.8828149,21.8749955 30.1406211,21.8749955 L30.60937,21.8749955 Z" id="Path"></path>
            </g>
        </g>
    </g>
</svg>