<svg xmlns="http://www.w3.org/2000/svg" viewBox="0 0 14 15">
    <path fill="#302C71" fill-rule="nonzero" d="M11.45 9.97c-.63 0-1.24.23-1.7.65L4.93 8.26c.18-.5.18-1.06 0-1.57l4.8-2.35c.9.79 2.23.86 3.2.17.98-.7 1.33-1.96.84-3.03A2.57 2.57 0 0 0 8.9 2.5c0 .26.06.53.14.78l-4.8 2.36a2.6 2.6 0 0 0-3.53.14 2.45 2.45 0 0 0 0 3.45 2.6 2.6 0 0 0 3.53.14l4.8 2.35c-.08.26-.13.52-.14.79 0 1.37 1.14 2.49 2.55 2.49 1.4 0 2.55-1.12 2.55-2.5 0-1.37-1.14-2.48-2.55-2.48v-.05zm0-8.72c.7 0 1.28.56 1.28 1.25 0 .68-.58 1.24-1.28 1.24-.7 0-1.27-.56-1.27-1.24 0-.7.57-1.25 1.27-1.25zM2.53 8.72c-.7 0-1.28-.55-1.28-1.24s.57-1.25 1.28-1.25c.7 0 1.27.56 1.27 1.25s-.57 1.24-1.27 1.24zm8.92 4.98c-.7 0-1.27-.55-1.27-1.24s.57-1.25 1.27-1.25c.7 0 1.28.56 1.28 1.25s-.58 1.24-1.28 1.24z"/>
</svg>
