<svg xmlns="http://www.w3.org/2000/svg" viewBox="0 0 28 28">
    <circle cx="14" cy="14" r="14" fill="#2691d0"/>
    <path fill="#fff" fill-rule="evenodd" d="M7.23 19.75a.28.28 0 0 1-.09-.2.29.29 0 0 1 .09-.21l3-3-1.27-1.25a.56.56 0 0 1-.17-.4.54.54 0 0 1 .17-.4.52.52 0 0 1 .4-.17h4a.58.58 0 0 1 .57.57v4a.52.52 0 0 1-.17.4.54.54 0 0 1-.4.17.56.56 0 0 1-.4-.17l-1.29-1.28-3 3a.29.29 0 0 1-.21.09.28.28 0 0 1-.2-.09zm6.89-6.44v-4a.54.54 0 0 1 .17-.4.54.54 0 0 1 .4-.17.56.56 0 0 1 .4.17l1.28 1.29 3-3a.28.28 0 0 1 .2-.09.29.29 0 0 1 .21.09l1 1a.29.29 0 0 1 .09.21.28.28 0 0 1-.09.2l-3 3 1.29 1.28a.57.57 0 0 1 0 .81.56.56 0 0 1-.4.17h-4a.58.58 0 0 1-.57-.58z"/>
</svg>
