<?xml version="1.0" encoding="UTF-8"?>
<svg width="27px" height="22px" viewBox="0 0 27 22" version="1.1" xmlns="http://www.w3.org/2000/svg" xmlns:xlink="http://www.w3.org/1999/xlink">
    <title></title>
    <g id="WORKSPACE-LIBRARY" stroke="none" stroke-width="1" fill="none" fill-rule="evenodd">
        <g id="Workspace-lib-3" transform="translate(-37.000000, -348.000000)" fill="#262262" fill-rule="nonzero">
            <path d="M52.3407227,369.414212 C55.5835586,367.782013 60.273382,367.336702 62.5922699,367.214846 C63.3840161,367.173143 63.9994781,366.538456 63.9994781,365.777654 L63.9994781,349.941449 C63.9999356,349.111297 63.2799209,348.453629 62.4164891,348.502381 C59.8477544,348.648178 54.7421452,349.178817 51.5902667,351.108149 C51.3727837,351.241312 51.2495083,351.478021 51.2495083,351.725487 L51.2495083,368.781858 C51.2495083,369.3233 51.8415326,369.665478 52.3407227,369.414212 Z M49.7499696,368.785154 L49.7499696,351.717065 C49.7499696,351.469095 49.6271519,351.24177 49.4092111,351.108149 C46.2577904,349.178817 41.1521813,348.648636 38.5834465,348.502381 C37.7200148,348.453629 37,349.111297 37,349.941449 L37,365.778112 C37,366.539371 37.6154618,367.174059 38.4071622,367.215303 C40.7270114,367.337206 45.4192152,367.782975 48.6620053,369.416089 C49.1598221,369.666851 49.7499696,369.325131 49.7499696,368.785154 Z" id=""></path>
        </g>
    </g>
</svg>